<?xml version="1.0" encoding="iso-8859-1"?>
<!-- Generator: Adobe Illustrator 19.0.0, SVG Export Plug-In . SVG Version: 6.00 Build 0)  -->
<svg xmlns="http://www.w3.org/2000/svg" xmlns:xlink="http://www.w3.org/1999/xlink" version="1.1" id="Layer_1" x="0px" y="0px" viewBox="0 0 489.064 489.064" style="enable-background:new 0 0 489.064 489.064;" xml:space="preserve" width="512" height="512">
<g>
	<path style="fill:#AD7136;" d="M255.002,137.446l-25.758,53.76l2.179-54.674c2.084-38.632-10.163-80.082-27.077-117.034L244.031,0   C260.828,44.054,264.485,91.786,255.002,137.446z"/>
	<path style="fill:#FF3B6A;" d="M321.119,485.719c-14.8,6.88-30.05,2.51-44.32-7.32c-9.09-6.25-19.47-9.59-29.95-10.02   c-0.39,0-0.79-0.01-1.18-0.03c-11.64-0.25-23.33,3.11-33.41,10.05c-14.27,9.83-29.52,14.2-44.32,7.32   c-183.3-85.2-185.81-317.08-112.04-375.61c20.08-15.94,40.59-21.03,60.51-19.99c36.33,1.89,70.73,24.14,97.11,38.08h0.01   c12.27,6.49,22.81,11.18,31,11.18c35.46,0,114.87-87.81,188.64-29.27C506.929,168.639,504.429,400.519,321.119,485.719z"/>
	<path style="fill:#E21E56;" d="M245.669,468.349c-11.64-0.25-23.33,3.11-33.41,10.05c-14.27,9.83-29.52,14.2-44.32,7.32   c-183.3-85.2-185.81-317.08-112.04-375.61c20.08-15.94,40.59-21.03,60.51-19.99c36.33,1.89,70.73,24.14,97.11,38.08   C27.339,128.199,166.539,464.999,245.669,468.349z"/>
</g>















</svg>
