<?xml version="1.0" encoding="iso-8859-1"?>
<!-- Generator: Adobe Illustrator 19.0.0, SVG Export Plug-In . SVG Version: 6.00 Build 0)  -->
<svg xmlns="http://www.w3.org/2000/svg" xmlns:xlink="http://www.w3.org/1999/xlink" version="1.1" id="Layer_1" x="0px" y="0px" viewBox="0 0 487.486 487.486" style="enable-background:new 0 0 487.486 487.486;" xml:space="preserve" width="512" height="512">
<g>
	<path style="fill:#AD7136;" d="M252.943,137.446l-25.758,53.76l2.179-54.674c2.084-38.632-10.163-80.082-27.077-117.034L241.972,0   C258.768,44.054,262.425,91.786,252.943,137.446z"/>
	<path style="fill:#FFB83B;" d="M288.88,89.64c-15.75,0-30.915,3.375-45.137,9.598c-14.222-6.223-29.387-9.598-45.137-9.598   c-81.066,0-146.783,89.061-146.783,198.923s65.717,198.923,146.783,198.923c15.75,0,30.915-3.375,45.137-9.598   c14.222,6.223,29.387,9.598,45.137,9.598c81.066,0,146.783-89.061,146.783-198.923S369.946,89.64,288.88,89.64z"/>
	<path style="fill:#FF933B;" d="M243.742,432.63c-18.407,0-36.991-8.445-52.327-23.781c-14.311-14.311-25.16-33.601-31.375-55.785   l-2.472-8.821l0.236-0.219c-2.321-10.751-3.494-21.818-3.494-33.014c0-35.272,11.109-67.775,31.281-91.519   c16.748-19.694,36.854-30.101,58.15-30.101c18.406,0,36.98,8.448,52.321,23.788c23.24,23.241,37.111,59.817,37.104,97.841   c0,17.57-2.834,34.613-8.425,50.653c-5.326,15.36-12.911,28.962-22.537,40.407C292.612,413.488,272.258,432.63,243.742,432.63z"/>
	<path style="fill:#AD7136;" d="M243.742,417.63c-14.402,0-29.217-6.884-41.721-19.388c-12.626-12.626-22.113-29.863-27.538-49.225   l0.006-0.006c-3.384-12.038-5.18-24.916-5.18-38.001c0-31.723,9.842-60.773,27.712-81.807   c9.623-11.315,25.536-24.813,46.719-24.813c14.396-0.006,29.211,6.891,41.714,19.394c20.479,20.479,32.718,53.087,32.711,87.232   c0,15.939-2.642,31.523-7.589,45.718c-4.656,13.427-11.38,25.614-19.853,35.689C282.809,401.84,266.178,417.63,243.742,417.63z"/>
	<path style="fill:#8C531F;" d="M243.731,417.63c-14.4-0.01-29.21-6.89-41.7-19.39c-12.63-12.62-22.12-29.86-27.54-49.22v-0.01   c-3.38-12.04-5.18-24.91-5.18-38c0-31.72,9.85-60.77,27.72-81.81c9.62-11.31,25.52-24.8,46.7-24.81   c-8.69,0.01-15.21,13.5-19.16,24.81c-7.34,21.04-11.38,50.09-11.38,81.81c0,13.09,0.74,25.96,2.13,38l-0.01,0.01   c2.23,19.36,6.12,36.6,11.31,49.22C231.75,410.74,237.82,417.62,243.731,417.63z"/>
	<path style="fill:#8C531F;" d="M243.731,417.63c-14.4-0.01-29.21-6.89-41.7-19.39c-12.63-12.62-22.12-29.86-27.54-49.22v-0.01   c-3.38-12.04-5.18-24.91-5.18-38c0-31.72,9.85-60.77,27.72-81.81c9.62-11.31,25.52-24.8,46.7-24.81   c-8.69,0.01-15.21,13.5-19.16,24.81c-7.34,21.04-11.38,50.09-11.38,81.81c0,13.09,0.74,25.96,2.13,38l-0.01,0.01   c2.23,19.36,6.12,36.6,11.31,49.22C231.75,410.74,237.82,417.62,243.731,417.63z"/>
	<g>
		<path style="fill:#8C531F;" d="M252.966,376.791c-3.169,0-6.059-2.072-7.089-5.062c-1.045-3.032,0.016-6.482,2.567-8.416    c5.514-4.181,13.506,1.103,11.789,7.824C259.395,374.416,256.355,376.791,252.966,376.791z"/>
		<path style="fill:#8C531F;" d="M263.266,351.791c-6.9,0-10.088-8.956-4.723-13.32c5.341-4.344,13.498,0.585,12.061,7.363    C269.878,349.256,266.768,351.791,263.266,351.791z"/>
		<path style="fill:#8C531F;" d="M278.836,370.701c-6.632,0-9.971-8.364-5.168-12.935c2.422-2.305,6.157-2.699,9.025-1    c2.764,1.637,4.17,5.004,3.445,8.124C285.359,368.244,282.292,370.701,278.836,370.701z"/>
	</g>
</g>















</svg>
