<?xml version="1.0" encoding="iso-8859-1"?>
<!-- Generator: Adobe Illustrator 19.0.0, SVG Export Plug-In . SVG Version: 6.00 Build 0)  -->
<svg xmlns="http://www.w3.org/2000/svg" xmlns:xlink="http://www.w3.org/1999/xlink" version="1.1" id="Layer_1" x="0px" y="0px" viewBox="0 0 485.031 485.031" style="enable-background:new 0 0 485.031 485.031;" xml:space="preserve" width="512" height="512">
<g>
	<g>
		<path style="fill:#70D65B;" d="M480.875,4.162c10.594,38.105,0.94,80.659-29.021,110.62    c-29.961,29.961-72.515,39.615-110.62,29.021c-10.594-38.105-0.94-80.659,29.021-110.62C400.216,3.222,442.77-6.433,480.875,4.162    z"/>
		<path style="fill:#58B741;" d="M341.235,143.802c-10.598-38.104-0.936-80.655,29.019-110.61    C400.22,3.226,442.771-6.436,480.875,4.162C480.875,4.162,394.531,20.102,341.235,143.802z"/>
	</g>
	<g>
		<path style="fill:#70D65B;" d="M355.261,118.631c-13.143,13.143-28.704,22.374-45.264,27.705    c-15.456,4.984-31.753,6.561-47.735,4.731c-5.941-0.662-11.818-1.808-17.611-3.417c-9.81-35.254-2.271-74.315,22.637-103.681    c2.019-2.376,4.143-4.689,6.382-6.929c29.966-29.966,72.517-39.628,110.62-29.03c7.15,25.676,5.089,53.37-6.182,77.89    C372.651,97.749,365.029,108.863,355.261,118.631z"/>
		<path style="fill:#58B741;" d="M244.651,147.65c-10.598-38.104-0.936-80.655,29.019-110.61    C303.636,7.074,346.187-2.588,384.291,8.01C384.291,8.01,297.948,23.95,244.651,147.65z"/>
	</g>
	<g>
		<path style="fill:#70D65B;" d="M447.976,211.366c-2.239,2.239-4.553,4.363-6.929,6.382    c-29.366,24.908-68.426,32.447-103.681,22.637c-1.609-5.793-2.755-11.671-3.417-17.611c-1.829-15.982-0.252-32.3,4.721-47.745    c5.341-16.549,14.583-32.121,27.716-45.253c9.768-9.768,20.882-17.391,32.752-22.827c24.498-11.292,52.193-13.353,77.869-6.203    C487.604,138.85,477.941,181.401,447.976,211.366z"/>
		<path style="fill:#58B741;" d="M337.366,240.386c-10.598-38.104-0.936-80.655,29.019-110.61    c29.966-29.966,72.517-39.628,110.621-29.03C477.005,100.746,390.662,116.686,337.366,240.386z"/>
	</g>
	<polyline style="fill:#70D65B;" points="265.359,265.917 46.25,485.026 0,438.776 219.109,219.667  "/>
	<polyline style="fill:#58B741;" points="240.763,241.32 21.653,460.43 0,438.776 219.109,219.667  "/>
	<g>
		<path style="fill:#70D65B;" d="M366.69,199.937c-9.768,9.768-20.871,17.38-32.741,22.837    c-24.498,11.271-52.193,13.332-77.869,6.182c-7.139-25.686-5.078-53.381,6.182-77.89c5.457-11.85,13.069-22.953,22.837-32.72    c6.529-6.529,13.648-12.091,21.197-16.697c21.849-13.311,47.199-18.558,71.812-15.75c5.941,0.662,11.818,1.808,17.611,3.417    c1.609,5.793,2.755,11.692,3.417,17.632c2.807,24.593-2.439,49.943-15.75,71.77C378.792,186.279,373.219,193.408,366.69,199.937z"/>
		<path style="fill:#58B741;" d="M256.08,228.957c-10.598-38.104-0.936-80.655,29.019-110.61    c29.966-29.966,72.517-39.628,110.621-29.03C395.72,89.317,309.376,105.257,256.08,228.957z"/>
	</g>
	<path style="fill:#58B741;" d="M441.047,217.749c-29.366,24.908-68.426,32.447-103.681,22.637   c-1.609-5.793-2.755-11.671-3.417-17.611c-24.498,11.271-52.193,13.332-77.869,6.182c-7.139-25.686-5.078-53.381,6.182-77.89   c-5.941-0.662-11.818-1.808-17.611-3.417c-9.81-35.254-2.271-74.315,22.637-103.681c13.416,10.535,24.425,24.025,31.995,39.502   c2.849,5.793,5.204,11.871,7.013,18.179c2.923,10.009,4.479,20.608,4.479,31.564c0,4.437-0.252,8.832-0.778,13.122   c-1.745,15.33-6.571,29.703-13.816,42.52c12.806-7.255,27.169-12.071,42.488-13.826c4.3-0.515,8.685-0.778,13.143-0.778   c10.956,0,21.555,1.556,31.574,4.468C406.507,185.417,426.579,199.285,441.047,217.749z"/>
	<path style="fill:#70D65B;" d="M328.523,312.945c-42.373,0-79.288-23.268-98.729-57.702   c-34.445-19.451-57.713-56.367-57.713-98.739c0-42.372,23.268-79.288,57.702-98.75c19.925,11.261,36.106,28.368,46.21,49.007   c7.36,15.014,11.492,31.89,11.492,49.743c0,20.23-5.31,39.208-14.594,55.641c16.423-9.295,35.401-14.604,55.631-14.604   c42.372,0,79.288,23.268,98.75,57.702C407.811,289.676,370.896,312.945,328.523,312.945z"/>
	<path style="fill:#58B741;" d="M229.794,255.242c-34.445-19.451-57.713-56.367-57.713-98.739c0-42.372,23.268-79.288,57.702-98.75   c19.925,11.261,36.106,28.368,46.21,49.007C235.567,126.664,200.018,195.416,229.794,255.242z"/>
	<path style="fill:#58B741;" d="M245.471,335.62L245.471,335.62c-19.884-19.884-52.122-19.884-72.006,0l-28.127,28.127l0,0   c19.884,19.884,52.122,19.884,72.006,0L245.471,335.62z"/>
	<path style="fill:#58B741;" d="M93.048,290.991L93.048,290.991c19.884,19.884,19.884,52.122,0,72.006l-28.127,28.127l0,0   c-19.884-19.884-19.884-52.122,0-72.006L93.048,290.991z"/>
</g>















</svg>
