<?xml version="1.0" encoding="iso-8859-1"?>
<!-- Generator: Adobe Illustrator 19.0.0, SVG Export Plug-In . SVG Version: 6.00 Build 0)  -->
<svg xmlns="http://www.w3.org/2000/svg" xmlns:xlink="http://www.w3.org/1999/xlink" version="1.1" id="Layer_1" x="0px" y="0px" viewBox="0 0 489.642 489.642" style="enable-background:new 0 0 489.642 489.642;" xml:space="preserve" width="512" height="512">
<g>
	<path style="fill:#AD7136;" d="M475.322,0c-0.91,35.8-15.06,69.6-39.12,95.16l-10.23-11.05l-11.82-12.76   c11.03-20.21,13.19-48.09,13.32-71.35H475.322z"/>
	<path style="fill:#8C531F;" d="M449.602,0c-1.62,27.39-7.01,61.45-23.63,84.11l-11.82-12.76c11.03-20.21,13.19-48.09,13.32-71.35   H449.602z"/>
	<path style="fill:#70D65B;" d="M64.713,166.711c-75.259,75.259-62.329,184.347,12.93,259.606s184.347,88.189,259.606,12.93   s162.135-284.154,86.876-359.413S139.972,91.452,64.713,166.711z"/>
	<path style="fill:#58B741;" d="M311.982,382.749c-16.842,16.842-37.016,28.299-58.41,34.36   c-45.528,12.942-96.525,1.485-132.37-34.36c-52.675-52.675-52.675-138.093,0-190.78c35.845-35.845,86.842-47.29,132.37-34.36   c21.394,6.073,41.568,17.518,58.41,34.36C364.669,244.657,364.669,330.074,311.982,382.749z"/>
	<path style="fill:#8C531F;" d="M295.602,366.37c-13.95,13.95-30.66,23.44-48.38,28.46c-37.71,10.72-79.95,1.23-109.64-28.46   c-43.63-43.63-43.63-114.38,0-158.02c29.69-29.69,71.93-39.17,109.64-28.46c17.72,5.03,34.43,14.51,48.38,28.46   C339.242,251.99,339.242,322.74,295.602,366.37z"/>
	<path style="fill:#AD7136;" d="M295.602,366.37c-13.95,13.95-30.66,23.44-48.38,28.46c-17.72-5.02-34.44-14.51-48.39-28.46   c-43.63-43.63-43.63-114.38,0-158.02c13.95-13.95,30.67-23.44,48.39-28.46c17.72,5.03,34.43,14.51,48.38,28.46   C339.242,251.99,339.242,322.74,295.602,366.37z"/>
	<g>
		<path style="fill:#8C531F;" d="M273.774,284.76c-2.943,0-5.658-1.778-6.847-4.462c-1.374-3.101-0.45-6.859,2.237-8.943    c5.418-4.2,13.466,0.799,11.927,7.554C280.322,282.289,277.245,284.76,273.774,284.76z"/>
		<path style="fill:#8C531F;" d="M293.534,266.31c-2.94,0-5.662-1.785-6.847-4.47c-1.347-3.053-0.485-6.746,2.118-8.851    c4.992-4.037,12.7-0.06,12.205,6.372C300.714,263.222,297.419,266.31,293.534,266.31z"/>
		<path style="fill:#8C531F;" d="M299.844,289.98c-6.702,0-10.043-8.566-5.042-13.061c2.452-2.204,6.134-2.552,8.953-0.836    c2.622,1.596,4.034,4.769,3.454,7.783C306.538,287.353,303.411,289.98,299.844,289.98z"/>
	</g>
</g>















</svg>
