<?xml version="1.0" encoding="iso-8859-1"?>
<!-- Generator: Adobe Illustrator 19.0.0, SVG Export Plug-In . SVG Version: 6.00 Build 0)  -->
<svg xmlns="http://www.w3.org/2000/svg" xmlns:xlink="http://www.w3.org/1999/xlink" version="1.1" id="Layer_1" x="0px" y="0px" viewBox="0 0 489.141 489.141" style="enable-background:new 0 0 489.141 489.141;" xml:space="preserve" width="512" height="512">
<g>
	<path style="fill:#58B741;" d="M0,192.146c34.993-24.236,118.908-13.401,165.395,7.86c34.558,15.807,59.93,42.632,72.538,72.761   c0.421,0.967,0.821,1.939,1.198,2.916c3.297,8.485,5.592,17.203,6.79,25.985c0.141,1.049,0.275,2.103,0.388,3.149   c-34.999,24.228-85.716,28.579-132.203,7.318c-25.858-11.839-56.851-34.535-80.046-59.64C15.557,232.464,2.028,210.919,0,192.146z"/>
	<path style="fill:#70D65B;" d="M0,192.146c34.993-24.236,118.908-13.401,165.395,7.86c34.558,15.807,59.93,42.632,72.538,72.761   c0.421,0.967,0.821,1.939,1.198,2.916c3.297,8.485,5.592,17.203,6.79,25.985C171.149,277.795,22.118,207.365,0,192.146z"/>
</g>
<path style="fill:#58B741;" d="M104.165,38.299c42.48,2.71,101.56,63.28,124.82,108.8c17.29,33.84,20.54,70.62,11.73,102.07  c-0.27,1.02-0.56,2.03-0.87,3.03c-2.68,8.7-6.29,16.96-10.8,24.59c-0.54,0.91-1.09,1.82-1.65,2.71  c-42.48-2.72-84.95-30.78-108.21-76.3c-12.93-25.33-23.15-62.36-25.76-96.44C91.345,79.569,94.105,54.279,104.165,38.299z"/>
<path style="fill:#70D65B;" d="M104.165,38.299c42.48,2.71,101.56,63.28,124.82,108.8c17.29,33.84,20.54,70.62,11.73,102.07  c-0.27,1.02-0.56,2.03-0.87,3.03c-2.68,8.7-6.29,16.96-10.8,24.59C185.225,211.669,112.065,63.959,104.165,38.299z"/>
<g>
	<path style="fill:#70D65B;" d="M477.753,61.756c-42.48,2.71-101.56,63.28-124.82,108.8c-17.29,33.84-20.54,70.62-11.73,102.07   c0.27,1.02,0.56,2.03,0.87,3.03c2.68,8.7,6.29,16.96,10.8,24.59c0.54,0.91,1.09,1.82,1.65,2.71c42.48-2.72,84.95-30.78,108.21-76.3   c12.93-25.33,23.15-62.36,25.76-96.44C490.573,103.026,487.813,77.736,477.753,61.756z"/>
	<path style="fill:#58B741;" d="M477.753,61.756c-42.48,2.71-101.56,63.28-124.82,108.8c-17.29,33.84-20.54,70.62-11.73,102.07   c0.27,1.02,0.56,2.03,0.87,3.03c2.68,8.7,6.29,16.96,10.8,24.59C396.693,235.126,469.853,87.416,477.753,61.756z"/>
</g>
<g>
	<path style="fill:#463068;" d="M363.809,233.086c0,35.75-23.4,66.02-55.71,76.35c-7.7,2.47-15.91,3.8-24.43,3.8   c-44.27,0-80.15-35.88-80.15-80.15c0-44.26,35.88-80.14,80.15-80.14c8.52,0,16.73,1.33,24.43,3.8   C340.409,167.076,363.809,197.346,363.809,233.086z"/>
	<path style="fill:#654B87;" d="M363.809,233.086c0,35.75-23.4,66.02-55.71,76.35c-32.31-10.33-55.71-40.6-55.71-76.35   c0-35.74,23.4-66.01,55.71-76.34C340.409,167.076,363.809,197.346,363.809,233.086z"/>
</g>
<g>
	<path style="fill:#463068;" d="M457.124,283.779c0,34.91-22.31,64.59-53.44,75.58c-0.75,0.27-1.51,0.53-2.27,0.77   c-7.7,2.47-15.91,3.8-24.43,3.8c-43.75,0-79.3-35.04-80.13-78.59c-0.02-0.52-0.02-1.04-0.02-1.56c0-44.26,35.88-80.14,80.15-80.14   c8.52,0,16.73,1.33,24.43,3.8C433.724,217.77,457.124,248.04,457.124,283.779z"/>
	<path style="fill:#654B87;" d="M457.123,283.777c0,35.75-23.4,66.02-55.71,76.35c-32.31-10.33-55.71-40.6-55.71-76.35   c0-35.74,23.4-66.01,55.71-76.34C433.723,217.767,457.123,248.037,457.123,283.777z"/>
</g>
<g>
	<path style="fill:#463068;" d="M269.29,324.321c0,35.75-23.4,66.02-55.71,76.35c-7.7,2.47-15.91,3.8-24.43,3.8   c-44.27,0-80.15-35.88-80.15-80.15c0-44.26,35.88-80.14,80.15-80.14c8.52,0,16.73,1.33,24.43,3.8   C245.89,258.311,269.29,288.581,269.29,324.321z"/>
	<path style="fill:#654B87;" d="M269.29,324.321c0,35.75-23.4,66.02-55.71,76.35c-32.31-10.33-55.71-40.6-55.71-76.35   c0-35.74,23.4-66.01,55.71-76.34C245.89,258.311,269.29,288.581,269.29,324.321z"/>
</g>
<path style="fill:#463068;" d="M393.929,370.692c0,35.75-23.4,66.02-55.71,76.35c-7.7,2.47-15.91,3.8-24.43,3.8  c-44.27,0-80.15-35.88-80.15-80.15c0-44.26,35.88-80.14,80.15-80.14c8.52,0,16.73,1.33,24.43,3.8  C370.528,304.682,393.929,334.952,393.929,370.692z"/>
<path style="fill:#463068;" d="M403.684,359.359c-0.75,0.27-1.51,0.53-2.27,0.77c-7.7,2.47-15.91,3.8-24.43,3.8  c-43.75,0-79.3-35.04-80.13-78.59c8.36-2.95,17.35-4.56,26.71-4.56c8.52,0,16.73,1.33,24.43,3.8  C379.834,294.759,403.024,324.299,403.684,359.359z"/>
<path style="fill:#654B87;" d="M393.929,370.692c0,35.75-23.4,66.02-55.71,76.35c-32.31-10.33-55.71-40.6-55.71-76.35  c0-35.74,23.4-66.01,55.71-76.34C370.528,304.682,393.929,334.952,393.929,370.692z"/>
<g>
	<circle style="fill:#1E1915;" cx="150.593" cy="324.001" r="14.661"/>
</g>
<g>
	<circle style="fill:#1E1915;" cx="355.062" cy="386.227" r="14.661"/>
</g>
<g>
	<circle style="fill:#1E1915;" cx="420.546" cy="275.458" r="14.661"/>
</g>















</svg>
