<?xml version="1.0" encoding="iso-8859-1"?>
<!-- Generator: Adobe Illustrator 19.0.0, SVG Export Plug-In . SVG Version: 6.00 Build 0)  -->
<svg xmlns="http://www.w3.org/2000/svg" xmlns:xlink="http://www.w3.org/1999/xlink" version="1.1" id="Layer_1" x="0px" y="0px" viewBox="0 0 490 490" style="enable-background:new 0 0 490 490;" xml:space="preserve" width="512" height="512">
<g>
	<path style="fill:#58B741;" d="M223.045,336.498v31.982c0,10.015,9.831,18.134,21.972,18.134c12.142,0,21.972-8.119,21.972-18.134   v-31.982l45.81-81.629l44.157,79.607C299.757,363.032,298.111,490,298.111,490H191.723c0,0-1.646-126.968-58.846-155.524   l63.017-104.367L223.045,336.498z"/>
	<path style="fill:#70D65B;" d="M423,266.06c1.46,5.15,2.26,10.58,2.26,16.2c0,32.82-26.6,59.42-59.42,59.42   c-24.06,0-44.77-14.32-54.11-34.9c-15.81,19.31-39.83,31.63-66.73,31.63c-22.99,0-43.87-9-59.33-23.68   c-2.63-2.48-5.1-5.14-7.4-7.95c-9.34,20.58-30.05,34.9-54.12,34.9c-32.81,0-59.41-26.6-59.41-59.42c0-5.62,0.8-11.05,2.25-16.2   c-31.75-15.57-53.61-48.2-53.61-85.95c0-52.84,42.83-95.67,95.66-95.67c14.41,0,28.07,3.19,40.32,8.89C150.6,41.58,192.94,0,245,0   c6.84,0,13.51,0.72,19.94,2.09c0.02,0,0.04,0.01,0.06,0.01c42.5,9.03,74.56,46.3,75.64,91.23c12.25-5.7,25.91-8.89,40.31-8.89   c52.84,0,95.67,42.83,95.67,95.67C476.62,217.86,454.76,250.49,423,266.06z"/>
	<path style="fill:#58B741;" d="M264.94,2.09c-53.95-10.39-87.79,79.48-53.92,128.98c0,0-86.01-6.091-86.01,51.249   s50.82,67.341,50.82,67.341s-33.1,31.31,2.44,57.12c-9.34,20.58-30.05,34.9-54.12,34.9c-32.81,0-59.41-26.6-59.41-59.42   c0-5.62,0.8-11.05,2.25-16.2c-31.75-15.57-53.61-48.2-53.61-85.95c0-52.84,42.83-95.67,95.66-95.67c14.41,0,28.07,3.19,40.32,8.89   C150.6,41.58,192.94,0,245,0C251.84,0,258.51,0.72,264.94,2.09z"/>
</g>















</svg>
