<?xml version="1.0" encoding="iso-8859-1"?>
<!-- Generator: Adobe Illustrator 19.0.0, SVG Export Plug-In . SVG Version: 6.00 Build 0)  -->
<svg xmlns="http://www.w3.org/2000/svg" xmlns:xlink="http://www.w3.org/1999/xlink" version="1.1" id="Layer_1" x="0px" y="0px" viewBox="0 0 478.514 478.514" style="enable-background:new 0 0 478.514 478.514;" xml:space="preserve" width="512" height="512">
<g>
	<rect x="174.102" y="0.004" style="fill:#70D65B;" width="130.32" height="62.62"/>
	<polyline style="fill:#58B741;" points="217.107,62.62 217.107,0 174.102,0 174.102,62.62  "/>
	<path style="fill:#58B741;" d="M304.422,48.934v13.69h-130.32v-13.68c20.54-6.61,42.43-10.17,65.16-10.17   S283.882,42.335,304.422,48.934z"/>
	<path style="fill:#70D65B;" d="M452.282,265.484c0,117.65-95.37,213.03-213.02,213.03c-20.46,0-40.25-2.89-58.98-8.28   c-5.4-1.55-10.72-3.31-15.94-5.28c-80.69-30.31-138.11-108.19-138.11-199.47c0-30.74,6.51-59.96,18.24-86.35   c3.92-8.85,8.43-17.37,13.48-25.53c17.85-28.89,42.43-53.19,71.54-70.71c4.83-2.92,9.79-5.65,14.86-8.17   c28.58-14.25,60.81-22.27,94.91-22.27c35.32,0,68.64,8.6,97.97,23.82c5.35,2.78,10.57,5.78,15.65,8.99   c27.19,17.17,50.22,40.33,67.25,67.62c5.38,8.63,10.16,17.67,14.28,27.06C445.902,206.125,452.282,235.065,452.282,265.484z"/>
	<path style="fill:#58B741;" d="M239.253,478.51c-117.65,0-213.02-95.37-213.02-213.03c0-117.65,95.37-213.02,213.02-213.02   c-46.66,0-112.065,95.37-112.065,213.02C127.188,383.14,192.593,478.51,239.253,478.51z"/>
	<path style="fill:#46992E;" d="M434.412,179.944c-4.34,42.13-30.9,101.21-142.2,114.2c-39.16,4.57-68.96,20.57-88.58,47.58   c-13.07,18.01-21.41,40.45-24.77,66.69c-2.52,19.73-2.01,41.43,1.42,61.82c-5.4-1.55-10.72-3.31-15.94-5.28   c-3.89-29.94-5.55-87.01,27.16-132.05c7.61-10.47,16.52-19.47,26.71-26.99c-0.73-21.25-10.68-37.87-31.14-52.13   c-19.43-13.55-44.86-22.55-69.45-31.26c-20.57-7.29-40.01-14.17-54-23.22c-9.36-6.04-15.72-12.73-19.15-20.17   c3.92-8.85,8.43-17.37,13.48-25.53l-1.07,6.96c-0.01,0.06-0.02,0.12-0.03,0.18c-3.81,21.36,22.31,32.25,65.78,47.64   c19.49,6.9,40.87,14.48,59.59,24.88c10.98-18.8,30.49-32.6,51.97-44.84c-2.91-14.5-20.94-24.28-41.56-35.44   c-28.59-15.48-60.86-32.95-63.14-70.09c4.83-2.92,9.79-5.65,14.86-8.17v3.92c0,31.14,28.17,46.4,55.42,61.15   c20.55,11.12,41.68,22.57,47.96,41.19c3.62-1.93,7.25-3.84,10.87-5.74c44.35-23.32,86.25-45.34,78.72-93.73   c-0.06-0.38-0.09-0.76-0.09-1.15v-4.09c5.35,2.78,10.57,5.78,15.65,8.99c2.17,24.01-5.76,44.48-24.11,62.42   c-16.82,16.46-40.4,28.85-63.2,40.83c-29.71,15.62-57.89,30.44-70.59,52.61c19.35,13.33,33.99,30.87,37.48,55.7   c16.65-9.13,36.03-15.02,58.01-17.58c49.84-5.82,85.92-21.73,107.24-47.31c14.88-17.86,22.42-40.07,22.42-66.01v-13.04   C425.512,161.514,430.292,170.555,434.412,179.944z"/>
</g>















</svg>
