<?xml version="1.0" encoding="iso-8859-1"?>
<!-- Generator: Adobe Illustrator 19.0.0, SVG Export Plug-In . SVG Version: 6.00 Build 0)  -->
<svg xmlns="http://www.w3.org/2000/svg" xmlns:xlink="http://www.w3.org/1999/xlink" version="1.1" id="Layer_1" x="0px" y="0px" viewBox="0 0 485.115 485.115" style="enable-background:new 0 0 485.115 485.115;" xml:space="preserve" width="512" height="512">
<g>
	<path style="fill:#70D65B;" d="M460.586,124.62c22.72,54.9-93.54,103.24-131.68,115.1c-16.79-32.83-43.62-59.67-76.45-76.45   c-5.32-2.72-10.72-5.15-16.18-7.25c25.5-64.99,33.32-177.07,101.08-140.58c10.68,5.75,17.26,13,20.77,21.15   c32.93-32.6,71.56-52.62,104.34-19.84c27.84,27.84,15.02,58.81-11.88,86.63c-0.01,0.01-0.01,0.01-0.01,0.01   c-0.42,0.43-0.84,0.87-1.27,1.3c-0.53,0.53-1.05,1.06-1.58,1.58C453.896,112.44,458.086,118.57,460.586,124.62z"/>
	<path style="fill:#FF8040;" d="M287.106,381.51c-3.92,2.97-7.99,5.9-12.18,8.77c-94.04,64.52-251.28,106.06-265.19,92.15   c-11.43-11.43,14.6-119.69,60.07-210.1c2.36-4.71,4.78-9.38,7.25-13.97c19.16-35.65,41.34-67.42,65.35-87.73   c4.01-3.4,8.08-6.48,12.19-9.19c15.57-10.33,31.81-15.54,48.39-13.73c17,1.86,33.57,7.42,49.47,15.55   c32.84,16.79,59.67,43.62,76.46,76.45c8.13,15.91,13.69,32.48,15.54,49.47C348.056,322.14,323.906,353.71,287.106,381.51z"/>
	<path style="fill:#ED761D;" d="M9.742,482.435c-20.351-20.351,77.93-347.31,193.245-334.723   c16.992,1.86,33.567,7.417,49.476,15.549c16.405,8.386,31.318,19.297,44.222,32.202c-4.928-4.929-11.851-7.849-20.605-8.584   c-8.485-0.707-18.222,0.573-29.387,4.54C170.898,218.352,1.964,474.657,9.742,482.435z"/>
	<path style="fill:#58B741;" d="M358.132,36.581c-41.66,41.26-74.19,102.65-74.19,102.65l-17.06,32.29   c-4.66-2.97-9.47-5.73-14.42-8.26c-5.32-2.72-10.72-5.15-16.18-7.25c25.5-64.99,33.32-177.07,101.08-140.58   C348.042,21.181,354.622,28.431,358.132,36.581z"/>
	<path style="fill:#58B741;" d="M460.586,124.62c-35.87,26.23-105.21,46.25-106.4,46.59c27.5-14.77,66.65-38.29,93.54-64.94   C453.896,112.44,458.086,118.57,460.586,124.62z"/>
	<path style="fill:#3F3730;" d="M287.106,381.51c-3.92,2.97-7.99,5.9-12.18,8.77c-18.74-26.27-47.99-54.85-48.35-55.2   c-2.97-2.89-3.03-7.64-0.14-10.6c2.89-2.97,7.63-3.04,10.6-0.15C238.526,325.79,267.606,354.21,287.106,381.51z"/>
	<path style="fill:#3F3730;" d="M115.716,307.63c-1.46,1.47-3.38,2.2-5.3,2.2c-1.92,0-3.84-0.73-5.31-2.2l-35.3-35.3   c2.36-4.71,4.78-9.38,7.25-13.97l38.66,38.67C118.646,299.96,118.646,304.7,115.716,307.63z"/>
	<path style="fill:#3F3730;" d="M132.117,423.656c-1.919,0-3.839-0.732-5.303-2.197l-29.321-29.321   c-2.929-2.929-2.929-7.678,0-10.606c2.929-2.929,7.678-2.929,10.606,0l29.321,29.321c2.929,2.929,2.929,7.678,0,10.606   C135.956,422.924,134.037,423.656,132.117,423.656z"/>
	<path style="fill:#3F3730;" d="M201.986,222.61c-1.39,1.12-3.05,1.66-4.71,1.66c-2.19,0-4.36-0.95-5.84-2.79   c-15.31-18.95-35.28-38.24-49.03-50.85c4.01-3.4,8.08-6.48,12.19-9.19c13.97,12.87,33.22,31.69,48.51,50.62   C205.706,215.28,205.206,220,201.986,222.61z"/>
</g>















</svg>
