<?xml version="1.0" encoding="iso-8859-1"?>
<!-- Generator: Adobe Illustrator 19.0.0, SVG Export Plug-In . SVG Version: 6.00 Build 0)  -->
<svg xmlns="http://www.w3.org/2000/svg" xmlns:xlink="http://www.w3.org/1999/xlink" version="1.1" id="Layer_1" x="0px" y="0px" viewBox="0 0 490 490" style="enable-background:new 0 0 490 490;" xml:space="preserve" width="512" height="512">
<g>
	<path style="fill:#E6E6E6;" d="M332.31,337.92v131.32H157.68c0,0,0-131.32,0-131.32v-59.26c0-6.67-2.7-12.7-7.07-17.07   c-4.36-4.37-10.39-7.07-17.06-7.07c-15.29,0-26.72,14.03-23.64,29l9.87,47.98C48.05,315.64,0,280.44,0,210.93   C0,105.9,109.69,20.76,245,20.76s245,85.14,245,190.17c0,69.51-48.05,104.71-119.78,120.57l9.87-47.98c0.34-1.66,0.5-3.3,0.5-4.91   c0-12.99-10.55-24.09-24.14-24.09c-13.33,0-24.14,10.81-24.14,24.14C332.31,278.66,332.31,337.92,332.31,337.92z"/>
	<path style="fill:#3F3730;" d="M157.68,248.23v30.43c0-6.67-2.7-12.7-7.07-17.07c-4.36-4.37-10.39-7.07-17.06-7.07   c-15.29,0-26.72,14.03-23.64,29l9.87,47.98h-0.01L84.3,261.76c-10.1-19.86,4.33-43.39,26.62-43.39h16.9   C144.31,218.37,157.68,231.74,157.68,248.23z"/>
	<path style="fill:#3F3730;" d="M405.68,261.76l-35.46,69.74l9.87-47.98c0.34-1.66,0.5-3.3,0.5-4.91   c0-12.99-10.55-24.09-24.14-24.09c-13.33,0-24.14,10.81-24.14,24.14v-30.43c0-16.49,13.37-29.86,29.86-29.86h16.9   C401.35,218.37,415.79,241.9,405.68,261.76z"/>
</g>















</svg>
