<?xml version="1.0" encoding="iso-8859-1"?>
<!-- Generator: Adobe Illustrator 19.0.0, SVG Export Plug-In . SVG Version: 6.00 Build 0)  -->
<svg xmlns="http://www.w3.org/2000/svg" xmlns:xlink="http://www.w3.org/1999/xlink" version="1.1" id="Layer_1" x="0px" y="0px" viewBox="0 0 490.003 490.003" style="enable-background:new 0 0 490.003 490.003;" xml:space="preserve" width="512" height="512">
<g>
	<path style="fill:#4AA032;" d="M140.493,270.981c-3.99,0-7.31-3.145-7.487-7.17c-0.1-2.278-2.164-56.486,23.19-116.346   c14.959-35.317,36.4-65.175,63.729-88.744c34.094-29.404,77.382-48.953,128.662-58.102c4.068-0.729,7.973,1.988,8.701,6.066   c0.728,4.078-1.988,7.973-6.066,8.701c-48.595,8.671-89.473,27.073-121.5,54.695c-25.569,22.052-45.66,50.057-59.713,83.236   c-24.046,56.769-22.04,109.312-22.017,109.836c0.182,4.138-3.025,7.64-7.163,7.823   C140.717,270.979,140.604,270.981,140.493,270.981z"/>
	<path style="fill:#4AA032;" d="M335.212,270.983c-0.877,0-1.768-0.155-2.637-0.481c-3.877-1.457-5.84-5.781-4.384-9.658   c8.164-21.734-3.016-55.238-14.852-90.709c-10.589-31.733-21.539-64.547-20.622-94.262c1.093-35.41,18.847-59.872,54.277-74.784   c3.815-1.607,8.216,0.185,9.822,4.003c1.606,3.818-0.186,8.215-4.004,9.822c-29.866,12.571-44.197,32.088-45.103,61.422   c-0.834,27.042,9.685,58.566,19.857,89.052c12.702,38.065,24.699,74.02,14.666,100.731   C341.103,269.127,338.247,270.983,335.212,270.983z"/>
	<path style="fill:#70D65B;" d="M473.134,241.2c-42.48-2.71-101.56-63.28-124.82-108.8c-17.29-33.84-20.54-70.62-11.73-102.07   c0.27-1.02,0.56-2.03,0.87-3.03c2.68-8.7,6.29-16.96,10.8-24.59c0.54-0.91,1.09-1.82,1.65-2.71c42.48,2.72,84.95,30.78,108.21,76.3   c12.93,25.33,23.15,62.36,25.76,96.44C485.954,199.93,483.194,225.22,473.134,241.2z"/>
	<path style="fill:#58B741;" d="M473.134,241.2c-42.48-2.71-101.56-63.28-124.82-108.8c-17.29-33.84-20.54-70.62-11.73-102.07   c0.27-1.02,0.56-2.03,0.87-3.03c2.68-8.7,6.29-16.96,10.8-24.59C392.074,67.83,465.234,215.54,473.134,241.2z"/>
	<path style="fill:#FF3B6A;" d="M140.499,490.001c74.568,0,135.018-60.449,135.018-135.018s-60.449-141.677-135.018-99.503   C65.931,213.307,5.481,280.415,5.481,354.983S65.931,490.001,140.499,490.001z"/>
	<path style="fill:#E21E56;" d="M140.501,490.003c-74.57,0-135.02-60.45-135.02-135.02c0-64.17,44.77-122.82,104.79-111.04   c-22.09,9.14-37.24,58.22-37.24,111.04C73.031,429.553,103.231,490.003,140.501,490.003z"/>
	<path style="fill:#FF3B6A;" d="M335.213,490.001c74.568,0,135.018-60.449,135.018-135.018s-60.449-141.677-135.018-99.503   c-74.568-42.174-135.018,24.935-135.018,99.503S260.645,490.001,335.213,490.001z"/>
	<path style="fill:#E21E56;" d="M335.215,490.003c-74.57,0-135.02-60.45-135.02-135.02c0-64.17,44.77-122.82,104.79-111.04   c-22.09,9.14-37.24,58.22-37.24,111.04C267.745,429.553,297.945,490.003,335.215,490.003z"/>
</g>















</svg>
