<?xml version="1.0" encoding="iso-8859-1"?>
<!-- Generator: Adobe Illustrator 19.0.0, SVG Export Plug-In . SVG Version: 6.00 Build 0)  -->
<svg xmlns="http://www.w3.org/2000/svg" xmlns:xlink="http://www.w3.org/1999/xlink" version="1.1" id="Layer_1" x="0px" y="0px" viewBox="0 0 486.725 486.725" style="enable-background:new 0 0 486.725 486.725;" xml:space="preserve" width="512" height="512">
<g>
	<path style="fill:#58B741;" d="M382.925,130.83l-54.197,30.315l34.669-45.245c24.96-31.643,39.408-74.286,47.184-115.9   l45.491,7.216C443.935,54.807,418.402,97.644,382.925,130.83z"/>
	<path style="fill:#FF3B6A;" d="M441.241,273.839c-11.81,30.71-32.22,67.01-64.56,109.98c-157.21,208.91-367.69,35.08-367.69,35.08   c83.56-3.1,175.55-98.26,197.41-185.83c6.21-24.85,17.63-49.9,32.9-71.56c28.36-40.27,70-68.86,116-62.78   c16.46,2.17,33.48,8.78,50.65,20.89C435.06,140.129,476.59,181.969,441.241,273.839z"/>
	<path style="fill:#E21E56;" d="M8.989,418.903c83.563-3.103,175.553-98.262,197.412-185.833   c17.733-71.031,78.146-143.686,148.898-134.345c-1.67,24.211-9.662,53.74-26.079,89.707   C216.191,435.96,85.271,444.989,8.989,418.903z"/>
	<path style="fill:#E21E56;" d="M441.241,273.839c-29.05-19.5-40.37-50.39-40.37-50.39c-22.76,20.49-78.14,21.31-78.14,21.31   c-9.81-10.57-15.8-23.06-19.39-35.22c-7.83-26.43-4.35-51.26-4.35-51.26c-13.9,10.23-44.32,6.16-59.69,3.23   c28.36-40.27,70-68.86,116-62.78c16.46,2.17,33.48,8.78,50.65,20.89C435.06,140.129,476.59,181.969,441.241,273.839z"/>
	<path style="fill:#70D65B;" d="M466.457,255.278c-39.086-17.596-53.86-57.896-53.86-57.896   c-22.758,20.498-78.138,21.317-78.138,21.317c-9.806-10.57-15.797-23.064-19.388-35.218c-7.828-26.432-4.353-51.269-4.353-51.269   c-19.008,14.003-68.96,1.226-68.96,1.226C261.014,58.98,359.654,41.575,414.02,79.895   C513.949,143.13,466.457,255.278,466.457,255.278z"/>
	<path style="fill:#58B741;" d="M315.071,183.48c-7.828-26.432-4.353-51.269-4.353-51.269c-20.722,11.253-68.96,1.226-68.96,1.226   C261.014,58.98,359.654,41.575,414.02,79.895C379.448,77.41,338.547,133.92,315.071,183.48z"/>
</g>















</svg>
