<?xml version="1.0" encoding="iso-8859-1"?>
<!-- Generator: Adobe Illustrator 19.0.0, SVG Export Plug-In . SVG Version: 6.00 Build 0)  -->
<svg xmlns="http://www.w3.org/2000/svg" xmlns:xlink="http://www.w3.org/1999/xlink" version="1.1" id="Layer_1" x="0px" y="0px" viewBox="0 0 490 490" style="enable-background:new 0 0 490 490;" xml:space="preserve" width="512" height="512">
<g>
	<ellipse style="fill:#AD7136;" cx="245" cy="245" rx="197.429" ry="245"/>
	<path style="fill:#8C531F;" d="M244.99,490c-109.03,0-197.42-109.69-197.42-245c0-135.31,88.39-245,197.42-245   c-47.5,0-86,109.69-86,245C158.99,380.31,197.49,490,244.99,490z"/>
	<g>
		<circle style="fill:#3F3730;" cx="245" cy="52.419" r="27.366"/>
	</g>
	<g>
		<g>
			<circle style="fill:#3F3730;" cx="191.244" cy="124.18" r="27.366"/>
		</g>
		<g>
			<circle style="fill:#3F3730;" cx="298.756" cy="124.18" r="27.366"/>
		</g>
	</g>
	<g>
		<path style="fill:#AD7136;" d="M118.963,394.049c-6.746,0-10.028-8.648-4.963-13.124c2.244-1.983,5.548-2.423,8.238-1.123    c2.961,1.431,4.67,4.737,4.12,7.981C125.755,391.345,122.587,394.049,118.963,394.049z"/>
		<path style="fill:#AD7136;" d="M106.013,370.309c-6.578,0-9.977-8.32-5.195-12.903c4.972-4.765,13.507-0.542,12.634,6.322    C112.98,367.438,109.768,370.309,106.013,370.309z"/>
		<path style="fill:#AD7136;" d="M130.503,370.099c-3.269,0-6.213-2.199-7.169-5.319c-0.96-3.132,0.309-6.655,3.058-8.443    c5.182-3.37,12.163,0.836,11.575,6.997C137.604,367.128,134.307,370.099,130.503,370.099z"/>
	</g>
	<g>
		<path style="fill:#8C531F;" d="M410.243,192.769c-6.705,0-10.026-8.556-5.036-13.061c2.478-2.237,6.221-2.556,9.042-0.777    c2.662,1.679,4.015,4.958,3.296,8.026C416.761,190.306,413.697,192.769,410.243,192.769z"/>
		<path style="fill:#8C531F;" d="M386.193,180.409c-6.844,0-10.017-8.776-4.873-13.201c5.085-4.374,13.15,0.014,12.313,6.62    C393.162,177.536,389.945,180.409,386.193,180.409z"/>
		<path style="fill:#8C531F;" d="M406.333,166.479c-6.795,0-10.042-8.755-4.896-13.181c2.434-2.093,5.997-2.387,8.753-0.754    c2.64,1.564,4.052,4.7,3.533,7.714C413.113,163.797,409.93,166.479,406.333,166.479z"/>
	</g>
</g>















</svg>
