<?xml version="1.0" encoding="iso-8859-1"?>
<!-- Generator: Adobe Illustrator 19.0.0, SVG Export Plug-In . SVG Version: 6.00 Build 0)  -->
<svg xmlns="http://www.w3.org/2000/svg" xmlns:xlink="http://www.w3.org/1999/xlink" version="1.1" id="Layer_1" x="0px" y="0px" viewBox="0 0 487.415 487.415" style="enable-background:new 0 0 487.415 487.415;" xml:space="preserve" width="512" height="512">
<g>
	<path style="fill:#FFE239;" d="M367.019,320.237c-2.108,0-4.204-0.884-5.688-2.607c-2.702-3.14-2.348-7.875,0.792-10.577   c25.638-22.069,64.613-25.419,66.26-25.551c4.131-0.331,7.744,2.749,8.075,6.877c0.33,4.129-2.749,7.744-6.878,8.075   c-0.348,0.029-35.795,3.136-57.672,21.967C370.492,319.64,368.751,320.237,367.019,320.237z"/>
	<path style="fill:#FFE239;" d="M405.796,274.859c-1.294,0-2.604-0.334-3.8-1.039c-3.568-2.102-4.758-6.7-2.656-10.269   c20.881-35.453,66.212-48.54,68.132-49.08c3.987-1.12,8.13,1.203,9.25,5.19c1.121,3.988-1.202,8.129-5.189,9.25   c-0.404,0.115-41.486,12.063-59.267,42.251C410.867,273.538,408.364,274.859,405.796,274.859z"/>
	<path style="fill:#FFB83B;" d="M291.56,66.8c-2.391,0-4.74-1.14-6.193-3.261c-2.342-3.417-1.47-8.084,1.946-10.426   c27.13-18.593,27.729-44.578,27.74-45.675C315.099,3.327,318.446,0,322.552,0c0.015,0,0.028,0,0.043,0   c4.125,0.023,7.458,3.353,7.458,7.479c0,1.41-0.39,34.793-34.26,58.007C294.497,66.374,293.021,66.8,291.56,66.8z"/>
	<path style="fill:#FFE239;" d="M351.421,346.159c-35.279,35.279-73.311,63.378-110.372,83.094   c-74.093,39.416-144.337,45.407-181.11,8.634c-33.394-33.394-31.517-94.395-1.361-160.823c0,0,0.008-0.008,0.008-0.023   c19.653-43.287,51.334-88.889,93.081-130.635c37.781-37.781,78.714-67.312,118.24-87.145   c71.168-35.74,137.776-40.049,173.242-4.583c49.192,49.192,21.859,158.281-59.664,256.368   C373.577,322.955,362.878,334.701,351.421,346.159z"/>
	<path style="fill:#FFB83B;" d="M351.421,346.159c-35.279,35.279-73.311,63.378-110.372,83.094   c-46.446,13.131-98.305,11.434-149.515-22.961c-30.977-42.927-39.04-86.871-32.956-129.228c0,0,0.008-0.008,0.008-0.023   c19.653-43.287,51.334-88.889,93.081-130.635c37.781-37.781,78.714-67.312,118.24-87.145   c-1.306,61.838-10.37,163.701-51.468,241.962c61.869-7.078,130.252,3.199,165.046,9.823   C373.577,322.955,362.878,334.701,351.421,346.159z"/>
	<polyline style="fill:#70D65B;" points="106.724,438.495 57.804,487.415 10.411,440.022 57.847,392.586  "/>
	<polyline style="fill:#58B741;" points="75.408,407.179 26.488,456.099 10.411,440.022 57.847,392.586  "/>
	<path style="fill:#FFB83B;" d="M59.942,437.889C4.775,382.723,45.849,252.228,151.67,146.407S387.985-0.487,443.152,54.679   c-30.141-30.141-140.349,31.22-246.17,137.041S29.801,407.749,59.942,437.889z"/>
	<circle style="fill:#FF933B;" cx="240.764" cy="130.174" r="31.348"/>
	<circle style="fill:#FF933B;" cx="292.395" cy="221.845" r="31.348"/>
	<circle style="fill:#FF933B;" cx="336.728" cy="266.178" r="31.348"/>
	<circle style="fill:#FF933B;" cx="257.07" cy="327.94" r="31.348"/>
	<path style="fill:#70D65B;" d="M115.074,415.004c-16.196,10.378-34.481,18.23-55.135,22.883   C-77.829,246.938,237.459,35.696,237.459,35.696s2.667,37.093-0.54,88.881C231.195,217.017,206.771,356.278,115.074,415.004z"/>
	<path style="fill:#58B741;" d="M115.074,415.004c-16.196,10.378-38.399,19.696-59.053,24.349   C-81.747,248.405,237.459,35.696,237.459,35.696s2.667,37.093-0.54,88.881c-65.083,47.706-175.753,166.587-132.466,254.061   C110.695,391.244,114.026,403.398,115.074,415.004z"/>
	<path style="fill:#70D65B;" d="M106.972,460.785c-15.626-4.911-31.361-12.372-47.033-22.899   c4.599-91.595,100.354-109.551,185.106-107.291C313.624,332.433,375,347.512,375,347.512S245.42,504.323,106.972,460.785z"/>
	<path style="fill:#58B741;" d="M106.972,460.785c-15.626-4.911-31.361-12.372-47.033-22.899   c4.599-91.595,100.354-109.551,185.106-107.291l0.023,0.023C198.215,331.706,106.972,383.94,106.972,460.785z"/>
	<circle style="fill:#FF933B;" cx="347.024" cy="120.275" r="31.348"/>
	<circle style="fill:#FF933B;" cx="391.357" cy="164.608" r="31.348"/>
</g>















</svg>
