<?xml version="1.0" encoding="iso-8859-1"?>
<!-- Generator: Adobe Illustrator 19.0.0, SVG Export Plug-In . SVG Version: 6.00 Build 0)  -->
<svg xmlns="http://www.w3.org/2000/svg" xmlns:xlink="http://www.w3.org/1999/xlink" version="1.1" id="Layer_1" x="0px" y="0px" viewBox="0 0 488.225 488.225" style="enable-background:new 0 0 488.225 488.225;" xml:space="preserve" width="512" height="512">
<g>
	<path style="fill:#58B741;" d="M446.703,48.161c-2.885,0-5.635-1.674-6.87-4.484c-1.663-3.782,0.047-8.194,3.818-9.871   c0.782-0.354,17.424-8.111,17.424-25.16c0-4.142,3.358-7.5,7.5-7.5s7.5,3.358,7.5,7.5c0,26.982-25.282,38.406-26.358,38.879   C448.735,47.957,447.711,48.161,446.703,48.161z"/>
	<path style="fill:#70D65B;" d="M472.358,181.864c-12.76,22.45-26.6,44.18-41.45,65.13c8.38,9.47,8.07,23.94-0.99,33   c-7.44,7.43-18.52,8.97-27.49,4.66c-7.01,8.71-14.21,17.26-21.58,25.65c5.7,9.29,4.55,21.59-3.49,29.63   c-7.64,7.64-19.12,9.08-28.2,4.33c-49.46,49.91-105.68,93.09-167.29,128.09c-52.98,30.1-117.45,15.58-153.56-28.44h-0.01   c-8.91-10.85-16.1-23.5-20.96-37.71c-0.27-0.77-0.53-1.54-0.8-2.32c-18.9-55.2,4.31-115.86,55-144.75   c31.75-18.1,61.39-39.38,88.54-63.4c-6.67-9.41-5.81-22.52,2.62-30.95c8.62-8.62,22.13-9.32,31.58-2.16   c28.76-30.47,53.93-64.38,74.85-101.09c28.9-50.69,89.56-73.89,144.76-54.99c0.77,0.26,1.55,0.52,2.32,0.79   c8.95,3.06,17.27,7.04,24.92,11.8h0.01C484.918,52.555,505.208,124.044,472.358,181.864z"/>
	<path style="fill:#58B741;" d="M431.128,19.134c-46.57-11.53-77.23,36.61-95.48,79.61c-18.24,43.01-95.13,135.53-166.8,169.41   c-71.67,33.89-181.14,113.38-140.54,175.76h-0.01c-8.91-10.85-16.1-23.5-20.96-37.71c-0.27-0.77-0.53-1.54-0.8-2.32   c-18.9-55.2,4.31-115.86,55-144.75c31.75-18.1,61.39-39.38,88.54-63.4c-6.67-9.41-5.81-22.52,2.62-30.95   c8.62-8.62,22.13-9.32,31.58-2.16c28.76-30.47,53.93-64.38,74.85-101.09c28.9-50.69,89.56-73.89,144.76-54.99   c0.77,0.26,1.55,0.52,2.32,0.79C415.158,10.394,423.478,14.374,431.128,19.134z"/>
	<path style="fill:#58B741;" d="M309.642,192.088c-1.919,0-3.839-0.732-5.303-2.197c-2.929-2.929-2.929-7.678,0-10.606   c3.137-3.137,4.864-7.308,4.864-11.744s-1.728-8.607-4.864-11.744c-6.475-6.476-17.012-6.475-23.488,0   c-2.929,2.929-7.678,2.929-10.606,0c-2.929-2.929-2.929-7.678,0-10.606c12.324-12.324,32.377-12.324,44.701,0   c5.97,5.97,9.258,13.908,9.258,22.351s-3.288,16.38-9.258,22.351C313.481,191.356,311.561,192.088,309.642,192.088z"/>
	<path style="fill:#58B741;" d="M420.358,200.074c-1.919,0-3.839-0.732-5.303-2.197c-2.929-2.929-2.929-7.678,0-10.606   c3.137-3.137,4.864-7.308,4.864-11.744s-1.728-8.607-4.864-11.744c-3.137-3.137-7.308-4.864-11.744-4.864   s-8.607,1.728-11.744,4.864c-2.929,2.929-7.678,2.929-10.606,0c-2.929-2.929-2.929-7.678,0-10.606   c5.97-5.97,13.908-9.258,22.351-9.258s16.38,3.288,22.351,9.258s9.258,13.908,9.258,22.351s-3.288,16.38-9.258,22.351   C424.197,199.341,422.277,200.074,420.358,200.074z"/>
	<path style="fill:#58B741;" d="M274.889,365.303c-1.919,0-3.839-0.732-5.303-2.197c-2.929-2.929-2.929-7.678,0-10.606   c3.137-3.137,4.864-7.308,4.864-11.744s-1.728-8.607-4.864-11.744c-3.137-3.137-7.308-4.864-11.744-4.864   c-4.437,0-8.607,1.728-11.744,4.864c-2.929,2.929-7.678,2.929-10.606,0c-2.929-2.929-2.929-7.678,0-10.606   c5.97-5.97,13.908-9.258,22.351-9.258c8.443,0,16.38,3.288,22.351,9.258s9.258,13.908,9.258,22.351s-3.288,16.38-9.258,22.351   C278.727,364.57,276.808,365.303,274.889,365.303z"/>
	<path style="fill:#58B741;" d="M128.449,356.666c-1.919,0-3.839-0.732-5.303-2.197c-2.929-2.929-2.929-7.677,0-10.606   c6.475-6.476,6.475-17.013,0-23.488c-6.477-6.475-17.013-6.476-23.488,0c-2.929,2.929-7.678,2.929-10.606,0   c-2.929-2.929-2.929-7.678,0-10.606c12.324-12.324,32.377-12.324,44.701,0c12.324,12.324,12.324,32.377,0,44.701   C132.288,355.933,130.369,356.666,128.449,356.666z"/>
</g>















</svg>
