<?xml version="1.0" encoding="iso-8859-1"?>
<!-- Generator: Adobe Illustrator 19.0.0, SVG Export Plug-In . SVG Version: 6.00 Build 0)  -->
<svg xmlns="http://www.w3.org/2000/svg" xmlns:xlink="http://www.w3.org/1999/xlink" version="1.1" id="Layer_1" x="0px" y="0px" viewBox="0 0 488.708 488.708" style="enable-background:new 0 0 488.708 488.708;" xml:space="preserve" width="512" height="512">
<g>
	<path style="fill:#AD7136;" d="M267.112,137.446l-25.758,53.76l2.179-54.674c2.084-38.632-10.163-80.082-27.077-117.034L256.141,0   C272.937,44.054,276.594,91.786,267.112,137.446z"/>
	<polygon style="fill:#58B741;" points="421.734,292.908 397.844,316.998 410.164,348.618 381.664,367.018 386.514,400.608    354.434,411.568 350.274,445.238 316.424,446.448 301.664,476.968 269.594,466.138 244.354,488.708 219.114,466.138    187.044,476.968 172.284,446.448 138.434,445.238 134.274,411.568 102.184,400.608 107.034,367.018 78.534,348.618 90.864,316.998    66.974,292.898 85.554,264.498 66.974,236.098 90.864,211.998 78.534,180.378 107.034,161.978 102.184,128.398 134.274,117.438    138.424,83.758 172.284,82.548 187.044,52.028 219.114,62.868 244.354,40.288 269.594,62.868 301.664,52.028 316.424,82.548    350.274,83.758 354.434,117.438 386.514,128.388 381.664,161.978 410.164,180.378 397.844,212.008 421.734,236.098    403.154,264.498  "/>
	<polygon style="fill:#70D65B;" points="421.734,292.908 397.844,316.998 410.164,348.618 381.664,367.018 386.514,400.608    354.434,411.568 350.274,445.238 316.424,446.448 301.664,476.968 269.594,466.138 244.354,488.708 237.444,446.448    203.594,445.238 199.434,411.568 167.344,400.608 172.194,367.018 143.694,348.618 156.014,316.998 132.124,292.898    150.714,264.498 132.124,236.098 156.024,211.998 143.694,180.378 172.194,161.978 167.344,128.398 199.424,117.438    203.584,83.758 237.434,82.548 244.354,40.288 269.594,62.868 301.664,52.028 316.424,82.548 350.274,83.758 354.434,117.438    386.514,128.388 381.664,161.978 410.164,180.378 397.844,212.008 421.734,236.098 403.154,264.498  "/>
</g>















</svg>
