<?xml version="1.0" encoding="iso-8859-1"?>
<!-- Generator: Adobe Illustrator 19.0.0, SVG Export Plug-In . SVG Version: 6.00 Build 0)  -->
<svg xmlns="http://www.w3.org/2000/svg" xmlns:xlink="http://www.w3.org/1999/xlink" version="1.1" id="Layer_1" x="0px" y="0px" viewBox="0 0 483.185 483.185" style="enable-background:new 0 0 483.185 483.185;" xml:space="preserve" width="512" height="512">
<g>
	<path style="fill:#654B87;" d="M341.4,114.78c-42.498-19.868-70.395-64.575-70.395-114.576v-0.2h-29.412H212.18v0.2   c0,50.001-27.896,94.707-70.395,114.576C65.64,150.408,13.156,225.522,13.156,312.425c0,121.319,102.272,170.76,228.437,170.76   s228.437-49.441,228.437-170.76C470.029,225.522,417.546,150.408,341.4,114.78z"/>
	<path style="fill:#463068;" d="M241.586,483.18c-126.16,0-228.43-49.44-228.43-170.76c0-86.9,52.48-162.02,128.63-197.64   c42.49-19.87,70.39-64.58,70.39-114.58V0h16.86v0.2c0,50-11.9,94.71-30.03,114.58c-32.49,35.62-54.88,110.74-54.88,197.64   C144.126,433.74,187.756,483.18,241.586,483.18z"/>
	<path style="fill:#312051;" d="M352.219,431.755c-1.408,0-2.832-0.396-4.099-1.224c-3.466-2.267-4.438-6.916-2.171-10.382   c16.395-25.067,24.707-58.567,24.707-99.57c0-66.366-21.975-127.794-58.783-164.322c-2.939-2.918-2.958-7.667-0.04-10.607   c2.917-2.94,7.666-2.958,10.606-0.041c39.584,39.284,63.217,104.693,63.217,174.97c0,43.968-9.136,80.231-27.154,107.78   C357.063,430.559,354.665,431.755,352.219,431.755z"/>
	<path style="fill:#312051;" d="M130.963,431.755c-2.446,0-4.845-1.195-6.283-3.396c-18.018-27.55-27.153-63.812-27.153-107.78   c0-70.278,23.633-135.688,63.217-174.97c2.939-2.917,7.688-2.901,10.606,0.041c2.918,2.94,2.899,7.688-0.04,10.606   c-36.809,36.527-58.783,97.956-58.783,164.322c0,41.002,8.313,74.502,24.706,99.57c2.268,3.467,1.295,8.115-2.171,10.382   C133.795,431.359,132.371,431.755,130.963,431.755z"/>
</g>















</svg>
