<?xml version="1.0" encoding="iso-8859-1"?>
<!-- Generator: Adobe Illustrator 19.0.0, SVG Export Plug-In . SVG Version: 6.00 Build 0)  -->
<svg xmlns="http://www.w3.org/2000/svg" xmlns:xlink="http://www.w3.org/1999/xlink" version="1.1" id="Layer_1" x="0px" y="0px" viewBox="0 0 490 490" style="enable-background:new 0 0 490 490;" xml:space="preserve" width="512" height="512">
<g>
	<path style="fill:#FF933B;" d="M405.271,372.44c-3.95,3.58-8.07,7.12-12.28,10.59c-20.03,16.58-41.81,31.69-54.76,42.51   c-2.61,2.18-4.86,4.18-6.66,5.98c-3.69,3.69-6.96,7.54-10.11,11.42c-18.57,22.89-32.8,47.06-101.31,47.06   c-36.98,0-58.44-20.06-64.03-51c-0.89-4.87-1.38-10.02-1.47-15.4c-0.1-5.59,0.23-11.44,0.99-17.5   c2.42-19.33-13.13-48.3-32.96-80.51c-3.61-5.87-7.36-11.85-11.18-17.9c-14.32-22.68-29.47-46.32-41.06-68.86   c-2.56-4.96-4.94-9.85-7.1-14.68c-15.21-33.97-19.65-64.24,2.88-83.2c1.07-0.92,2.21-1.8,3.41-2.65   c38.29-27.2,63.08-0.9,82.4,35.26c2.89,5.42,5.67,11.06,8.35,16.78c14.1,30.11,25.54,62.29,38.27,75.02c0-0.06-0.01-0.12-0.02-0.19   c-0.04-0.33-0.12-1.1-0.23-2.27c0-0.03,0-0.06-0.01-0.09c-0.88-9.07-3.64-41.4-2.75-80.43c0.13-5.78,0.34-11.71,0.65-17.73   c1.46-28.34,5.1-58.75,12.79-85.63c1.46-5.1,3.06-10.07,4.83-14.87C227.461,27.18,250.411,0,288.571,0c6.7,0,12.62,0.65,17.81,1.91   c32.83,7.89,36.95,39.54,30.61,80.17c-0.82,5.25-1.81,10.66-2.95,16.19c-5.18,25.33-13.22,53.15-20.3,80.38   c-1.53,5.9-3.02,11.78-4.42,17.6c-7.81,32.25-13.03,62.67-9.07,85.91c0.51,2.99,1.17,5.87,2,8.61c0.86,2.83,1.76,5.44,2.7,7.84   c3.09,7.88,6.63,13.51,10.53,17.36l0.03,0.03c12.16,11.97,27.83,6.74,44.41-1.64c5.27-2.65,10.63-5.63,15.99-8.47   c19.76-10.47,39.62-19.12,55.35-3.39c2.6,2.6,4.53,5.32,5.84,8.13l0.01,0.01C445.751,329.01,428.531,351.39,405.271,372.44z"/>
	<path style="fill:#ED761D;" d="M306.377,1.911c-30.2-1.91-106.43,56.9-84.28,264.76c0,21.5-21.27,28.04-23.45-1.31   c0-0.06-0.01-0.12-0.02-0.19c-0.05-0.7-0.13-1.46-0.23-2.27c0-0.03,0-0.06-0.01-0.09c-2.63-27.17-22.18-262.81,90.18-262.81   C295.267,0.001,301.187,0.65,306.377,1.911z"/>
	<path style="fill:#ED761D;" d="M220.151,490c-48.87,0-70.62-35.03-64.51-83.9c2.42-19.33-13.13-48.3-32.96-80.51   c-3.61-5.87-7.36-11.85-11.18-17.9c-39.6-62.74-85.58-132.83-45.28-166.74c-12.47,18,47.25,104.04,88.9,176.91   c3.23,5.65,6.35,11.22,9.32,16.67c16.49,30.28,28.34,56.95,28.34,73.53C192.781,468.66,175.191,474.21,220.151,490z"/>
	<path style="fill:#ED761D;" d="M437.097,310.63c-15.5-15.45-77.49,53.73-121.59,5.37c30.25,29.79,82.31-46.94,115.75-13.5   C433.857,305.101,435.787,307.82,437.097,310.63z"/>
	<path style="fill:#ED761D;" d="M336.991,82.08c-0.82,5.25-1.81,10.66-2.95,16.19c-13.85,3.23-26.94,4.54-39.08,4.54   c-45.48,0.01-77.56-18.45-85.88-23.79c1.46-5.1,3.06-10.07,4.83-14.87l1.78,1.26c0.64,0.45,50.43,34.66,118.07,17.49L336.991,82.08   z"/>
	<path style="fill:#ED761D;" d="M313.741,178.65c-1.53,5.9-3.02,11.78-4.42,17.6c-14.46,4.84-28.3,6.73-41.08,6.73   c-35.33,0-62.56-14.42-72.6-20.6c0.13-5.78,0.34-11.71,0.65-17.73l3.98,2.87c0.77,0.54,50.31,34.96,108.55,12.99L313.741,178.65z"/>
	<path style="fill:#ED761D;" d="M304.951,298.61c-26.62,25.14-63.48,38.21-107.46,38.21c-4.66,0-9.4-0.15-14.22-0.44   c-6.57-0.4-12.88-1.05-18.83-1.85c-18.13-2.44-32.96-6.3-41.76-8.94c-3.61-5.87-7.36-11.85-11.18-17.9l0.6-1.63l7.04,2.61   c0.35,0.13,14.76,5.36,35.98,9.19c8.82,1.59,18.81,2.94,29.46,3.57c47.84,2.85,85.65-9.25,112.36-35.96l3.31-3.31   c0.51,2.99,1.17,5.87,2,8.61C303.111,293.6,304.011,296.21,304.951,298.61z"/>
	<path style="fill:#ED761D;" d="M160.381,190.34c-10.82,18.78-29.71,33.01-55,41.37c-15.27,5.05-28.82,6.64-34.94,7.12   c-2.56-4.96-4.94-9.85-7.1-14.68l3.22-0.1c0.62-0.02,62.52-2.54,83.01-45.34l2.46-5.15   C154.921,178.98,157.701,184.62,160.381,190.34z"/>
	<path style="fill:#ED761D;" d="M405.271,372.44c-3.95,3.58-8.07,7.12-12.28,10.59c-16.05-8.89-26.77-24.17-31.08-44.38   c-2.14-9.98-2.22-18.95-1.99-24.29c5.27-2.65,10.63-5.63,15.99-8.47l-0.71,5.34c-0.03,0.25-1.41,11.6,1.47,24.71   c3.68,16.75,12.36,28.57,25.8,35.13L405.271,372.44z"/>
	<path style="fill:#ED761D;" d="M338.231,425.54c-2.61,2.18-4.86,4.18-6.66,5.98c-3.69,3.69-6.96,7.54-10.11,11.42   c-23.89,2.81-46.38,3.89-67.08,3.89c-40.71,0-74.45-4.21-98.26-7.83c-0.89-4.87-1.38-10.02-1.47-15.4   C192.371,429.47,258.381,437.69,338.231,425.54z"/>
</g>















</svg>
