<?xml version="1.0" encoding="iso-8859-1"?>
<!-- Generator: Adobe Illustrator 19.0.0, SVG Export Plug-In . SVG Version: 6.00 Build 0)  -->
<svg xmlns="http://www.w3.org/2000/svg" xmlns:xlink="http://www.w3.org/1999/xlink" version="1.1" id="Layer_1" x="0px" y="0px" viewBox="0 0 494.51 494.51" style="enable-background:new 0 0 494.51 494.51;" xml:space="preserve" width="512" height="512">
<g>
	<path style="fill:#AD7136;" d="M216.357,73.868c-6.4-59.691-44.007-70.36-44.007-70.36L143.68,25.35   c0,0,46.628,16.941,53.28,71.665"/>
	<g>
		<circle style="fill:#654B87;" cx="137.389" cy="128.559" r="69.876"/>
		<path style="fill:#463068;" d="M155.44,196.076c-5.763,1.533-11.812,2.355-18.055,2.355c-38.593,0-69.873-31.279-69.873-69.873    c0-38.593,31.279-69.882,69.873-69.882c6.243,0,12.292,0.822,18.055,2.355c-29.848,7.961-51.827,35.176-51.827,67.527    C103.613,160.909,125.592,188.116,155.44,196.076z"/>
		<circle style="fill:#654B87;" cx="256.534" cy="128.559" r="69.876"/>
		<path style="fill:#463068;" d="M274.585,196.076c-5.763,1.533-11.812,2.355-18.055,2.355c-38.593,0-69.873-31.279-69.873-69.873    c0-38.593,31.279-69.882,69.873-69.882c6.243,0,12.292,0.822,18.055,2.355c-29.848,7.961-51.827,35.176-51.827,67.527    C222.758,160.909,244.737,188.116,274.585,196.076z"/>
	</g>
	<g>
		<circle style="fill:#654B87;" cx="196.964" cy="424.632" r="69.876"/>
		<path style="fill:#463068;" d="M163.182,424.629c0,32.35,21.98,59.557,51.827,67.518c-0.037,0.009-0.074,0.018-0.111,0.037    c-5.726,1.524-11.738,2.327-17.934,2.327c-38.593,0-69.882-31.288-69.882-69.882c0-38.584,31.288-69.873,69.882-69.873    c38.584,0,69.873,31.288,69.873,69.873C230.201,372.7,163.182,404.431,163.182,424.629z"/>
	</g>
	<g>
		<path style="fill:#654B87;" d="M208.271,324.129c0,32.397-22.044,59.64-51.938,67.555c-5.726,1.524-11.738,2.327-17.934,2.327    c-38.593,0-69.882-31.288-69.882-69.882c0-38.584,31.288-69.873,69.882-69.873C176.983,254.257,208.271,285.545,208.271,324.129z"/>
		<path style="fill:#463068;" d="M104.617,324.129c0,32.35,21.98,59.557,51.827,67.518c-0.037,0.009-0.074,0.018-0.111,0.037    c-5.726,1.524-11.738,2.327-17.934,2.327c-38.593,0-69.882-31.288-69.882-69.882c0-38.584,31.288-69.873,69.882-69.873    c38.584,0,69.873,31.288,69.873,69.873C171.636,272.2,104.617,303.932,104.617,324.129z"/>
	</g>
	<g>
		<circle style="fill:#654B87;" cx="255.533" cy="324.133" r="69.876"/>
		<path style="fill:#463068;" d="M221.751,324.129c0,32.35,21.98,59.557,51.827,67.518c-0.037,0.009-0.074,0.018-0.111,0.037    c-5.726,1.524-11.738,2.327-17.934,2.327c-38.593,0-69.882-31.288-69.882-69.882c0-38.584,31.288-69.873,69.882-69.873    c38.584,0,69.873,31.288,69.873,69.873C288.77,272.201,221.751,303.932,221.751,324.129z"/>
	</g>
	<g>
		<circle style="fill:#654B87;" cx="79.827" cy="223.634" r="69.876"/>
		<path style="fill:#463068;" d="M97.877,291.151c-5.763,1.533-11.812,2.355-18.055,2.355c-38.593,0-69.873-31.279-69.873-69.873    c0-38.593,31.279-69.882,69.873-69.882c6.243,0,12.292,0.822,18.055,2.355c-29.848,7.961-51.827,35.176-51.827,67.527    C46.05,255.984,68.03,283.191,97.877,291.151z"/>
	</g>
	<g>
		<circle style="fill:#463068;" cx="196.964" cy="223.634" r="69.876"/>
	</g>
	<g>
		<circle style="fill:#463068;" cx="314.102" cy="223.634" r="69.876"/>
	</g>
	<g>
		<path style="fill:#70D65B;" d="M406.01,153.297c0,0,47.36,56.9,23.08,128.31c-71.4,24.28-128.3-23.09-128.3-23.09    c0,44.28-32.85,78.55-32.85,78.55c-85.69-59.98-57.12-134.25-57.12-134.25c-37.61,25.24-62.38,9.04-62.38,9.04    c-7.28-72.03,28.93-100.38,58.08-111.53c18.44-7.06,34.05-7.24,34.05-7.24s1.2-104.03,118.78-92.14c0,0,16.19,24.77-9.04,62.38    c0,0,74.27-28.57,134.25,57.13C484.56,120.457,450.28,153.297,406.01,153.297z"/>
		<path style="fill:#58B741;" d="M429.094,281.604c24.28-71.4-23.09-128.3-23.09-128.3c44.28,0,78.55-32.85,78.55-32.85    c-59.98-85.69-134.25-57.12-134.25-57.12c25.24-37.61,9.04-62.38,9.04-62.38c-72.03-7.28-100.38,28.93-111.53,58.08    c0,32.87,25.14,25.14,25.14,25.14c-8.26,33.25,40.15,36.56,40.15,36.56C294.174,150.144,385.464,258.134,429.094,281.604z"/>
		<path style="fill:#4AA032;" d="M372.658,109.294c-44.247-8.835-75.337,8.868-87.55,17.718l-16.472-16.472    c3.38-10.317,15.064-38.778,44.344-52.346c3.758-1.742,5.393-6.2,3.651-9.958c-1.742-3.758-6.201-5.393-9.958-3.651    c-29.439,13.642-43.628,39.076-49.757,54.237l-40.019-40.019c-2.929-2.929-7.678-2.929-10.606,0    c-2.929,2.929-2.929,7.677,0,10.606l40.019,40.019c-15.161,6.128-40.594,20.317-54.236,49.756    c-1.742,3.758-0.107,8.217,3.651,9.958c1.021,0.473,2.093,0.697,3.148,0.697c2.831,0,5.541-1.611,6.81-4.348    c13.571-29.285,42.034-40.965,52.347-44.343l16.472,16.472c-8.85,12.213-26.553,43.304-17.719,87.55    c0.712,3.566,3.844,6.033,7.347,6.033c0.487,0,0.98-0.048,1.476-0.147c4.062-0.811,6.698-4.761,5.887-8.823    c-7.31-36.611,6.094-62.605,13.76-73.861l58.276,58.276c1.464,1.465,3.384,2.197,5.303,2.197s3.839-0.732,5.303-2.197    c2.929-2.929,2.929-7.677,0-10.606l-58.242-58.242c11.296-7.616,37.456-21.056,73.828-13.794c4.063,0.812,8.012-1.824,8.823-5.886    C379.356,114.055,376.72,110.105,372.658,109.294z"/>
	</g>
</g>















</svg>
