<?xml version="1.0" encoding="iso-8859-1"?>
<!-- Generator: Adobe Illustrator 19.0.0, SVG Export Plug-In . SVG Version: 6.00 Build 0)  -->
<svg xmlns="http://www.w3.org/2000/svg" xmlns:xlink="http://www.w3.org/1999/xlink" version="1.1" id="Layer_1" x="0px" y="0px" viewBox="0 0 490 490" style="enable-background:new 0 0 490 490;" xml:space="preserve" width="512" height="512">
<g>
	<path style="fill:#AD7136;" d="M331.333,19.781c-16.33,22.15-24.92,67.55-28.41,90.73h-115.84c-3.49-23.18-12.08-68.58-28.41-90.73   c0,0,38.12,10.92,55.71,34.78l9.46-13.92l21.16-31.15l30.62,45.07C293.213,30.701,331.333,19.781,331.333,19.781z"/>
	<path style="fill:#8C531F;" d="M238.123,110.511h-51.04c-3.49-23.18-12.08-68.58-28.41-90.73c0,0,38.12,10.92,55.71,34.78   l9.46-13.92C225.453,67.171,232.213,92.641,238.123,110.511z"/>
	<path style="fill:#FF3B6A;" d="M490,308.109c0-113.14-109.69-204.859-245-204.859S0,194.969,0,308.109s109.69,172.398,245,172.398   S490,421.249,490,308.109z"/>
	<path style="fill:#E21E56;" d="M245,480.509c-135.31,0-245-59.26-245-172.4s109.69-204.86,245-204.86   c-67.29,0-121.85,91.72-121.85,204.86S177.71,480.509,245,480.509z"/>
	<g>
		<path style="fill:#E21E56;" d="M392.043,412.979c-6.699,0-10.016-8.556-5.032-13.061c2.383-2.154,5.933-2.528,8.728-0.964    c2.778,1.554,4.303,4.863,3.664,7.985C398.695,410.398,395.588,412.979,392.043,412.979z"/>
		<path style="fill:#E21E56;" d="M386.493,386.509c-6.765,0-10.02-8.633-4.98-13.103c2.569-2.279,6.445-2.486,9.263-0.544    c2.4,1.654,3.629,4.677,3.084,7.538C393.193,383.901,390.066,386.509,386.493,386.509z"/>
		<path style="fill:#E21E56;" d="M410.003,393.379c-6.857,0-10.101-8.94-4.752-13.294c2.432-1.98,5.912-2.237,8.609-0.633    c2.749,1.635,4.159,4.958,3.461,8.076C416.563,390.914,413.467,393.379,410.003,393.379z"/>
	</g>
	<g>
		<path style="fill:#FF3B6A;" d="M31.733,295.709c-3.173,0-6.06-2.066-7.09-5.062c-1.054-3.065,0.039-6.601,2.678-8.501    c5.546-3.993,13.386,1.224,11.679,7.909C38.162,293.333,35.121,295.709,31.733,295.709z"/>
		<path style="fill:#FF3B6A;" d="M36.693,269.129c-3.134,0-6.007-2.019-7.058-4.971c-1.064-2.987-0.095-6.454,2.411-8.416    c5.439-4.256,13.483,0.782,11.959,7.536C43.242,266.656,40.165,269.129,36.693,269.129z"/>
		<path style="fill:#FF3B6A;" d="M55.803,284.449c-3.135,0-5.999-2.026-7.053-4.972c-1.068-2.984-0.096-6.459,2.413-8.415    c5.454-4.252,13.526,0.803,11.943,7.577C62.321,281.997,59.263,284.449,55.803,284.449z"/>
	</g>
</g>















</svg>
