<?xml version="1.0" encoding="iso-8859-1"?>
<!-- Generator: Adobe Illustrator 19.0.0, SVG Export Plug-In . SVG Version: 6.00 Build 0)  -->
<svg xmlns="http://www.w3.org/2000/svg" xmlns:xlink="http://www.w3.org/1999/xlink" version="1.1" id="Layer_1" x="0px" y="0px" viewBox="0 0 490 490" style="enable-background:new 0 0 490 490;" xml:space="preserve" width="512" height="512">
<g>
	<circle style="fill:#AD7136;" cx="245" cy="245" r="245"/>
	<circle style="fill:#58B741;" cx="245" cy="245" r="214.722"/>
	<circle style="fill:#70D65B;" cx="245" cy="245" r="199.753"/>
	<circle style="fill:#58B741;" cx="245" cy="245" r="53.608"/>
	<path style="fill:#58B741;" d="M244.833,344.349h-0.011c-4.14,0-7.489-3.37-7.479-7.51l0,0c0-4.14,3.37-7.5,7.51-7.49l0,0   c4.141,0.01,7.49,3.37,7.49,7.51l0,0c-0.01,4.14-3.36,7.49-7.5,7.49l0,0H244.833z M284.283,328.389   c-2.07-3.59-0.841-8.17,2.75-10.24l0,0c3.59-2.07,8.18-0.83,10.25,2.75l0,0c2.06,3.59,0.829,8.18-2.761,10.25l0,0   c-1.18,0.68-2.46,1-3.729,1l0,0C288.193,332.149,285.673,330.799,284.283,328.389z M195.183,330.979   c-3.58-2.08-4.8-6.67-2.72-10.25l0,0c2.08-3.58,6.67-4.8,10.25-2.72l0,0c3.58,2.08,4.8,6.67,2.72,10.25l0,0   c-1.39,2.4-3.91,3.73-6.49,3.73l0,0C197.663,331.989,196.363,331.669,195.183,330.979z M320.693,297.579   c-3.58-2.08-4.79-6.67-2.71-10.25l0,0c2.08-3.58,6.67-4.8,10.25-2.72l0,0c3.58,2.09,4.801,6.68,2.71,10.26l0,0   c-1.39,2.39-3.899,3.73-6.489,3.73l0,0C323.173,298.599,321.883,298.269,320.693,297.579z M158.883,294.569v0.01   c-2.07-3.59-0.84-8.18,2.75-10.25l0,0c3.58-2.07,8.17-0.84,10.24,2.75l0,0c2.069,3.59,0.84,8.18-2.75,10.25l0,0   c-1.181,0.68-2.471,1-3.74,1l0,0C162.793,298.329,160.273,296.979,158.883,294.569z M336.833,252.709   c-4.141-0.01-7.49-3.37-7.48-7.52l0,0c0-0.05,0-0.11,0-0.17l0,0c0-0.01,0-0.01,0-0.02l0,0c0-4.14,3.36-7.5,7.5-7.5l0,0   c4.141,0,7.5,3.36,7.5,7.5l0,0c0,0.04,0,0.07,0,0.11l0,0c0,0.04,0,0.08,0,0.12l0,0c-0.01,4.14-3.37,7.48-7.5,7.48l0,0   C336.843,252.709,336.843,252.709,336.833,252.709z M153.143,252.399c-4.149-0.01-7.5-3.37-7.49-7.51l0,0c0-4.15,3.36-7.5,7.5-7.5   l0,0c4.15,0.01,7.5,3.37,7.5,7.51l0,0c-0.01,4.14-3.369,7.5-7.5,7.5l0,0C153.143,252.399,153.143,252.399,153.143,252.399z    M318.073,202.839c-2.069-3.59-0.85-8.18,2.74-10.25l0,0c3.59-2.07,8.17-0.85,10.25,2.74l0,0c2.07,3.58,0.84,8.17-2.74,10.24l0,0   c-1.18,0.69-2.47,1.01-3.75,1.01l0,0C321.983,206.579,319.463,205.239,318.073,202.839z M161.723,205.479   c-3.59-2.08-4.81-6.67-2.729-10.25l0,0c2.079-3.58,6.67-4.8,10.25-2.72l0,0c3.579,2.07,4.8,6.66,2.729,10.25l0,0   c-1.39,2.4-3.91,3.74-6.5,3.73l0,0C164.193,206.489,162.903,206.169,161.723,205.479z M287.203,171.949L287.203,171.949   L287.203,171.949c-3.58-2.08-4.811-6.67-2.73-10.25l0,0c2.07-3.59,6.66-4.81,10.25-2.73l0,0c3.58,2.07,4.8,6.66,2.73,10.24l0,0   c-1.391,2.41-3.91,3.75-6.5,3.75l0,0C289.683,172.959,288.383,172.629,287.203,171.949z M192.633,169.159   c-2.07-3.59-0.84-8.18,2.74-10.25l0,0c3.59-2.07,8.18-0.84,10.25,2.74l0,0c2.069,3.59,0.84,8.18-2.75,10.25l0,0   c-1.181,0.68-2.471,1.01-3.74,1.01l0,0C196.543,172.909,194.023,171.559,192.633,169.159z M245.043,160.649   c-4.141,0-7.49-3.36-7.49-7.5l0,0c0-4.15,3.36-7.5,7.5-7.5l0,0c4.14,0,7.5,3.36,7.5,7.5l0,0c0,4.14-3.36,7.5-7.5,7.5l0,0   C245.053,160.649,245.053,160.649,245.043,160.649z"/>
</g>















</svg>
