<?xml version="1.0" encoding="iso-8859-1"?>
<!-- Generator: Adobe Illustrator 19.0.0, SVG Export Plug-In . SVG Version: 6.00 Build 0)  -->
<svg xmlns="http://www.w3.org/2000/svg" xmlns:xlink="http://www.w3.org/1999/xlink" version="1.1" id="Layer_1" x="0px" y="0px" viewBox="0 0 489.869 489.869" style="enable-background:new 0 0 489.869 489.869;" xml:space="preserve" width="512" height="512">
<g>
	<path style="fill:#FFE239;" d="M393.327,425.054c71.69-71.69,83.907-180.325,36.663-264.614   c-4.407-7.864-3.071-17.692,3.303-24.066l0,0c17.746-17.746,17.746-46.518,0-64.265l0,0c-17.746-17.746-46.519-17.746-64.265,0v0   c-6.374,6.374-16.203,7.71-24.066,3.303c-84.29-47.243-192.924-35.027-264.614,36.663S-3.559,292.399,43.684,376.689   c4.407,7.863,3.071,17.692-3.303,24.066h0c-17.746,17.746-17.746,46.518,0,64.265l0,0c17.746,17.746,46.519,17.746,64.265,0h0   c6.374-6.374,16.203-7.71,24.066-3.303C213.002,508.96,321.637,496.744,393.327,425.054z"/>
	<path style="fill:#FFB83B;" d="M294.208,482.34c-55.06,14.72-114.7,7.85-165.49-20.62c-3.09-1.73-6.48-2.58-9.85-2.58   c-5.21,0-10.35,2.01-14.22,5.88c-8.87,8.87-20.5,13.31-32.13,13.31c-11.63,0-23.26-4.44-32.13-13.31   c-8.87-8.87-13.31-20.51-13.31-32.13c0-11.63,4.44-23.26,13.31-32.13c6.37-6.38,7.71-16.21,3.3-24.07   c-47.24-84.29-35.03-192.93,36.66-264.62c58.15-58.15,140.62-77.17,214.68-57.06c-94.78,24.91-164.68,111.18-164.68,213.78   C130.348,371.08,199.848,457.15,294.208,482.34z"/>
	<path style="fill:#FFB83B;" d="M140.767,336.008c-7.703-32.541,7.233-83.987,89.554-100.229S79.154,205.806,79.154,205.806"/>
	<path style="fill:#70D65B;" d="M403.99,80.12c-1.19,31.59-12.22,62.95-31.99,89.46c-11.55,15.49-26.07,29.33-43.36,40.59   c-29.21,19.03-73.55,35.45-115.63,41.66c-33.57,4.96-65.68,3.42-87.53-8.45c-1.61-19.53,5.22-42.29,17.04-65.11   c21.99-42.45,61.24-85.09,95.39-107.34c31.47-20.5,67.05-29.2,101.12-27.09c8.17,0.5,16.26,1.62,24.18,3.35   c1.32,0.27,2.63,0.57,3.94,0.9c12.73,3.13,24.98,7.84,36.45,14.07C404.09,68.14,404.22,74.13,403.99,80.12z"/>
	<path style="fill:#58B741;" d="M403.99,80.12c-1.19,31.59-12.22,62.95-31.99,89.46c-31.78,17.3-70.47,27.46-112.22,27.46   c-34.17,0-77.23-6.8-117.26-18.77c21.99-42.45,61.24-85.09,95.39-107.34c31.47-20.5,67.05-29.2,101.12-27.09   c24.38,8.4,46.13,20.55,64.05,35.52C403.38,79.61,403.69,79.86,403.99,80.12z"/>
	<path style="fill:#70D65B;" d="M455.12,83.1c-32.38,49.32-98.36,83.09-174.49,83.09c-42.35,0-98.38-10.45-145.34-28.22   c-37.46-14.17-69.13-32.99-83.5-54.87C84.16,33.78,204.5,0,280.63,0c56.58,0,107.56,18.66,143.3,48.51   c1.16,0.95,2.3,1.92,3.42,2.91C438.23,60.99,447.58,71.62,455.12,83.1z"/>
	<path style="fill:#58B741;" d="M423.93,48.51c-49.28-36.23-288.64-14.15-288.64,89.46c-37.46-14.17-69.13-32.99-83.5-54.87   C84.16,33.78,204.5,0,280.63,0C337.21,0,388.19,18.66,423.93,48.51z"/>
	<path style="fill:#4AA032;" d="M466.836,90.597H156.041c-4.143,0-7.5-3.358-7.5-7.5s3.357-7.5,7.5-7.5h310.795   c4.143,0,7.5,3.358,7.5,7.5S470.979,90.597,466.836,90.597z"/>
	<path style="fill:#4AA032;" d="M322.724,136.901c-1.92,0-3.839-0.732-5.304-2.197c-2.929-2.929-2.929-7.678,0-10.606l41.002-41.001   L317.42,42.096c-2.929-2.929-2.929-7.677,0-10.606c2.93-2.929,7.678-2.929,10.607,0l46.305,46.304   c1.406,1.406,2.196,3.314,2.196,5.303s-0.79,3.897-2.196,5.303l-46.305,46.304C326.563,136.169,324.643,136.901,322.724,136.901z"/>
	<path style="fill:#4AA032;" d="M248.499,129.186c-1.92,0-3.839-0.732-5.304-2.197c-2.929-2.929-2.929-7.678,0-10.606l33.287-33.286   l-33.287-33.286c-2.929-2.929-2.929-7.677,0-10.606c2.93-2.929,7.678-2.929,10.607,0l38.59,38.589   c1.406,1.406,2.196,3.314,2.196,5.303s-0.79,3.897-2.196,5.303l-38.59,38.589C252.338,128.454,250.418,129.186,248.499,129.186z"/>
	<path style="fill:#4AA032;" d="M185.11,119.665c-1.919,0-3.839-0.732-5.304-2.197c-2.929-2.929-2.929-7.677,0-10.606l23.766-23.765   l-23.766-23.765c-2.929-2.929-2.929-7.677,0-10.606c2.93-2.929,7.678-2.929,10.607,0l29.068,29.068   c2.929,2.929,2.929,7.677,0,10.606l-29.068,29.068C188.949,118.933,187.029,119.665,185.11,119.665z"/>
	<g>
		<path style="fill:#FF933B;" d="M223.83,463.123c-3.188,0-6.133-2.12-7.117-5.152c-0.969-2.986,0.026-6.324,2.5-8.263    c5.338-4.183,13.239,0.688,11.983,7.301C230.535,460.495,227.391,463.123,223.83,463.123z"/>
		<path style="fill:#FF933B;" d="M234.13,438.123c-3.137,0-6.004-2.035-7.064-4.981c-1.102-3.065-0.025-6.611,2.592-8.547    c5.45-4.033,13.306,1.035,11.78,7.668C240.664,435.629,237.609,438.123,234.13,438.123z"/>
		<path style="fill:#FF933B;" d="M249.7,457.023c-3.256,0-6.239-2.194-7.173-5.319c-0.858-2.87,0.085-6.074,2.415-7.975    c5.383-4.393,13.634,0.61,12.067,7.443C256.235,454.548,253.173,457.023,249.7,457.023z"/>
	</g>
	<g>
		<path style="fill:#FF933B;" d="M69.82,178.333c-3.066,0-5.897-1.94-6.994-4.801c-1.13-2.948-0.26-6.338,2.121-8.4    c2.447-2.119,6.155-2.37,8.88-0.636c2.584,1.644,3.95,4.797,3.344,7.807C76.474,175.764,73.356,178.333,69.82,178.333z"/>
		<path style="fill:#FF933B;" d="M89.58,159.873c-6.689,0-9.974-8.475-5.092-13.005c4.949-4.592,13.237-0.44,12.554,6.244    C96.655,156.9,93.398,159.873,89.58,159.873z"/>
		<path style="fill:#FF933B;" d="M95.88,183.543c-6.663,0-9.999-8.474-5.086-13.005c2.326-2.145,5.831-2.586,8.621-1.104    c2.828,1.503,4.394,4.743,3.855,7.895C102.662,180.882,99.478,183.543,95.88,183.543z"/>
	</g>
</g>















</svg>
