<?xml version="1.0" encoding="iso-8859-1"?>
<!-- Generator: Adobe Illustrator 19.0.0, SVG Export Plug-In . SVG Version: 6.00 Build 0)  -->
<svg xmlns="http://www.w3.org/2000/svg" xmlns:xlink="http://www.w3.org/1999/xlink" version="1.1" id="Layer_1" x="0px" y="0px" viewBox="0 0 490.002 490.002" style="enable-background:new 0 0 490.002 490.002;" xml:space="preserve" width="512" height="512">
<g>
	<path style="fill:#70D65B;" d="M409.482,149.61c-2.5,10.91-10.38,22.96-19.26,37.04c-14.94,23.65-32.72,53.03-32.72,92.36   c0,80.71-19.78,143.68-52.1,179.09c-18.82,20.62-41.89,31.9-67.79,31.9c-70.37,0-119.89-83.28-119.89-210.99   c0-82.47-78.19-121.19-44.31-155.07c6.08-6.09,12.88-8.77,19.94-9.07c12.76-0.55,22.61-11.04,22.23-23.81   c-0.45-14.93,3.66-31.14,20.39-40.1c12.38-6.63,22.2-7.27,29.79-5.2c11.47,3.11,23.35-2.62,27.82-13.63   c6.5-16.04,19.21-32.13,44.03-32.13c24.83,0,37.54,16.09,44.04,32.13c4.46,11.01,16.34,16.74,27.81,13.63   c7.59-2.07,17.42-1.43,29.8,5.2c16.72,8.96,20.84,25.17,20.39,40.1c-0.03,1.05,0.01,2.08,0.11,3.09   c1.14,11.34,10.4,20.21,22.12,20.72c7.05,0.3,13.85,2.98,19.93,9.07C409.912,132.04,411.612,140.42,409.482,149.61z"/>
	<path style="fill:#58B741;" d="M263.291,218.271l-94.74,123.29l-48.89-20.06c-1.28-13.53-1.94-27.71-1.94-42.49   c0-82.47-78.19-121.19-44.3-155.07c6.08-6.09,12.87-8.77,19.93-9.07c12.76-0.55,22.62-11.04,22.23-23.81   c-0.45-14.93,3.66-31.14,20.39-40.1c12.38-6.63,22.21-7.27,29.79-5.21c-39.27,0-49.34,140.74-18.06,140.74   c31.27,0,62.55-31.28,97.73-31.28C245.431,165.121,253.791,188.121,263.291,218.271z"/>
	<path style="fill:#4AA032;" d="M225.505,198.316c-3.321,0-6.356-2.222-7.246-5.584c-14.924-56.428-7.302-113.058-6.97-115.441   c0.571-4.103,4.359-6.967,8.462-6.394c4.102,0.571,6.964,4.358,6.395,8.459l0,0c-0.077,0.555-7.517,56.113,6.614,109.541   c1.059,4.004-1.328,8.109-5.333,9.168C226.785,198.235,226.14,198.316,225.505,198.316z"/>
	<path style="fill:#58B741;" d="M237.612,490c-8.62,0-16.79-0.96-24.51-2.74c-5.29-1.22-10.38-2.83-15.26-4.78   c-10.37-4.14-19.83-9.85-28.39-16.72c-45.61-36.54-66.06-105.93-66.06-147.65c0-58.65-43.01-83.41-13.03-101.65   c10.16-6.18,19.27-5.18,26.88-1.15c2.28,1.21,4.64,2.19,7.04,2.96c13.83,4.4,29.19,1.55,41.33-7.07c9.28-6.6,20.34-8.61,31.61,2.65   c8.62,8.62,11.76,17.54,11.94,25.79c0.28,13.22,8.51,24.73,20.42,30.47c7.82,3.76,14.55,12.38,17.16,29.75   C254.552,351.99,179.562,431.95,237.612,490z"/>
	<path style="fill:#58B741;" d="M237.614,490.002c-58.05-58.05,16.95-138.01,9.13-190.14c-2.61-17.37-9.34-25.99-17.16-29.75   c-11.91-5.74-20.14-17.25-20.42-30.47c-0.18-8.25-3.32-17.17-11.94-25.79c13.03-28.67,45.2-28.7,60.3-13.6   C281.544,274.512,325.784,412.881,237.614,490.002z"/>
	<path style="fill:#70D65B;" d="M237.611,490.001c-8.62,0-16.79-0.96-24.51-2.74c-46.06-36.42-66.71-106.26-66.71-148.18   c0-49.59-30.76-96.49-22.11-120.81c13.83,4.4,29.19,1.55,41.33-7.07c9.28-6.6,20.34-8.61,31.61,2.65   c8.62,8.62,11.76,17.54,11.94,25.79c0.28,13.22,8.51,24.73,20.42,30.47c7.82,3.76,14.55,12.38,17.16,29.75   C254.551,351.991,179.561,431.951,237.611,490.001z"/>
	<path style="fill:#58B741;" d="M409.482,149.61c-6.13,9.18-13.54,20.57-19.26,37.04c-14.94,23.65-32.72,53.03-32.72,92.36   c0,80.71-19.78,143.68-52.1,179.09c-19.13,13.3-42.73,21.15-71.7,21.15c113.38-99.16,7.82-299.6,7.82-334.79   c0-20.82,16.44-26.58,29.85-27.82c9.78-0.9,18.74-6.04,24.35-14.1c16.2-23.27,42.24-16.7,56.39-10.67   c2.47,1.05,5.04,1.82,7.65,2.28c1.14,11.34,10.4,20.21,22.12,20.72c7.05,0.3,13.85,2.98,19.93,9.07   C409.912,132.04,411.612,140.42,409.482,149.61z"/>
	<path style="fill:#70D65B;" d="M384.872,259.46c0,38.14-4.25,81.08-16.25,119.47c-5.91,18.93-13.7,36.76-23.8,52.35   c-22.62,34.95-56.79,58.72-107.21,58.72c113.38-99.16,7.82-299.6,7.82-334.79c0-20.82,16.44-26.58,29.85-27.82   c9.78-0.9,18.74-6.04,24.35-14.1c16.2-23.27,42.24-16.7,56.39-10.67c6.35,2.7,13.35,3.51,20.12,2.15   c12.9-2.6,34.8-3.18,45.87,18.51C438.302,155.21,384.872,160.42,384.872,259.46z"/>
	<path style="fill:#4AA032;" d="M197.842,482.48c-10.37-4.14-19.83-9.85-28.39-16.72c-17.89-38.93-19.58-92.06-20.88-133.35   c-0.73-23.05-1.42-44.81-5.1-52.9c-1.71-3.77-0.04-8.22,3.73-9.93c3.77-1.72,8.21-0.05,9.93,3.72c4.91,10.82,5.58,31.92,6.43,58.63   C165.122,381.52,167.262,449.04,197.842,482.48z"/>
	<path style="fill:#4AA032;" d="M368.622,378.93c-5.91,18.93-13.7,36.76-23.8,52.35c22.72-74.72-1.53-173.21-16.05-232.21   c-0.69-2.82-1.37-5.56-2.01-8.2c-0.98-4.02,1.48-8.08,5.51-9.06c4.02-0.98,8.08,1.48,9.06,5.5c0.64,2.63,1.32,5.36,2.01,8.17   C354.822,242.15,372.242,312.91,368.622,378.93z"/>
</g>















</svg>
