<?xml version="1.0" encoding="iso-8859-1"?>
<!-- Generator: Adobe Illustrator 19.0.0, SVG Export Plug-In . SVG Version: 6.00 Build 0)  -->
<svg xmlns="http://www.w3.org/2000/svg" xmlns:xlink="http://www.w3.org/1999/xlink" version="1.1" id="Layer_1" x="0px" y="0px" viewBox="0 0 489.997 489.997" style="enable-background:new 0 0 489.997 489.997;" xml:space="preserve" width="512" height="512">
<g>
	<path style="fill:#58B741;" d="M224.73,32.535C100.33,34.155,0,135.495,0,260.265c0,125.78,101.96,227.75,227.75,227.75   c122.41,0,222.28-96.59,227.52-217.71"/>
	<g>
		<path style="fill:#A4EF92;" d="M227.748,219.866V86.584c0-9.405,8.087-16.761,17.453-15.909    c39.507,3.591,75.531,19.252,104.347,43.264c7.192,5.993,7.626,16.9,1.006,23.52l-94.237,94.237    c-4.7,4.7-11.755,5.849-17.876,3.258c-0.192-0.081-0.385-0.16-0.579-0.237C231.766,232.299,227.748,226.425,227.748,219.866z"/>
		<path style="fill:#A4EF92;" d="M256.314,231.699l94.241-94.241c6.62-6.619,17.526-6.186,23.519,1.006    c24.013,28.816,39.674,64.835,43.264,104.348c0.851,9.367-6.504,17.453-15.909,17.453H268.142    c-6.558,0-12.431-4.016-14.849-10.112c-0.077-0.193-0.156-0.386-0.237-0.577C250.465,243.455,251.614,236.399,256.314,231.699z"/>
		<path style="fill:#A4EF92;" d="M417.338,277.718c-3.59,39.513-19.252,75.532-43.264,104.348c-5.993,7.192-16.9,7.625-23.519,1.006    l-94.241-94.241c-4.701-4.701-5.849-11.756-3.258-17.878c0.081-0.191,0.16-0.384,0.237-0.577    c2.418-6.096,8.291-10.112,14.849-10.112h133.287C410.834,260.265,418.189,268.352,417.338,277.718z"/>
		<path style="fill:#A4EF92;" d="M349.548,406.592c-28.817,24.012-64.84,39.673-104.347,43.264    c-9.367,0.851-17.453-6.504-17.453-15.909V300.664c0-6.559,4.018-12.434,10.115-14.85c0.194-0.077,0.387-0.156,0.579-0.237    c6.121-2.591,13.176-1.442,17.876,3.258l94.237,94.237C357.174,389.692,356.74,400.599,349.548,406.592z"/>
		<path style="fill:#A4EF92;" d="M227.747,300.664v133.282c0,9.405-8.087,16.761-17.453,15.909    c-39.507-3.591-75.531-19.252-104.347-43.264c-7.192-5.993-7.626-16.9-1.006-23.52l94.237-94.237    c4.7-4.7,11.755-5.849,17.876-3.258c0.192,0.081,0.385,0.16,0.579,0.237C223.729,288.231,227.747,294.105,227.747,300.664z"/>
		<path style="fill:#A4EF92;" d="M199.181,288.832l-94.241,94.241c-6.619,6.619-17.526,6.186-23.519-1.006    c-24.013-28.816-39.674-64.835-43.264-104.348c-0.851-9.367,6.504-17.453,15.909-17.453h133.287    c6.558,0,12.431,4.016,14.849,10.112c0.077,0.193,0.156,0.386,0.237,0.577C205.03,277.076,203.882,284.131,199.181,288.832z"/>
		<path style="fill:#A4EF92;" d="M38.157,242.812c3.59-39.513,19.252-75.532,43.264-104.348c5.993-7.192,16.9-7.625,23.519-1.006    l94.241,94.241c4.701,4.701,5.849,11.756,3.258,17.878c-0.081,0.191-0.16,0.384-0.237,0.577    c-2.418,6.096-8.291,10.112-14.849,10.112H54.066C44.661,260.265,37.306,252.179,38.157,242.812z"/>
		<path style="fill:#A4EF92;" d="M105.947,113.939c28.817-24.012,64.84-39.673,104.347-43.264    c9.367-0.851,17.453,6.504,17.453,15.909v133.282c0,6.559-4.018,12.434-10.115,14.85c-0.194,0.077-0.387,0.156-0.579,0.237    c-6.121,2.591-13.176,1.442-17.876-3.258l-94.237-94.237C98.321,130.839,98.755,119.931,105.947,113.939z"/>
		<path style="fill:#58B741;" d="M418.755,260.406c-0.044-0.048-0.091-0.093-0.136-0.141c0.045-0.048,0.092-0.093,0.136-0.141    c4.444-4.866,6.65-11.424,6.053-17.991c-3.637-40.013-19.188-77.52-44.972-108.467c-4.185-5.023-10.341-8.075-16.89-8.372    c-0.074-0.003-0.147-0.002-0.22-0.004c-0.003-0.075-0.001-0.149-0.004-0.224c-0.298-6.548-3.349-12.704-8.372-16.889    c-30.941-25.783-68.45-41.334-108.469-44.971c-6.573-0.597-13.125,1.609-17.991,6.053c-0.049,0.044-0.094,0.092-0.142,0.136    c-0.048-0.045-0.093-0.092-0.142-0.136c-4.866-4.444-11.418-6.65-17.991-6.053c-40.019,3.637-77.527,19.188-108.469,44.971    c-5.023,4.185-8.074,10.341-8.372,16.889c-0.003,0.075-0.001,0.149-0.004,0.224c-0.074,0.003-0.147,0.001-0.22,0.004    c-6.549,0.297-12.705,3.349-16.89,8.372c-25.784,30.947-41.335,68.454-44.972,108.467c-0.598,6.567,1.608,13.125,6.053,17.991    c0.044,0.048,0.091,0.093,0.136,0.141c-0.045,0.048-0.092,0.093-0.136,0.141c-4.444,4.866-6.65,11.423-6.054,17.991    c3.637,40.021,19.188,77.529,44.972,108.471c4.186,5.022,10.342,8.073,16.891,8.37c0.074,0.003,0.147,0.002,0.22,0.005    c0.003,0.074,0.001,0.147,0.004,0.221c0.298,6.548,3.349,12.704,8.372,16.889c30.941,25.783,68.449,41.334,108.469,44.972    c0.707,0.064,1.413,0.096,2.118,0.096c5.842,0,11.531-2.184,15.873-6.149c0.049-0.044,0.094-0.092,0.142-0.136    c0.048,0.045,0.093,0.092,0.142,0.136c4.342,3.966,10.031,6.149,15.873,6.149c0.705,0,1.411-0.032,2.118-0.096    c40.02-3.638,77.527-19.188,108.469-44.972c5.023-4.185,8.074-10.341,8.372-16.889c0.003-0.074,0.002-0.147,0.004-0.221    c0.073-0.003,0.147-0.002,0.22-0.005c6.549-0.297,12.705-3.348,16.891-8.37c25.784-30.942,41.335-68.45,44.972-108.471    C425.405,271.829,423.199,265.271,418.755,260.406z M355.858,142.763c1.616-1.617,3.736-2.494,6.005-2.494    c0.134,0,0.268,0.003,0.402,0.009c2.384,0.108,4.53,1.17,6.046,2.989c23.827,28.598,38.198,63.255,41.559,100.224    c0.219,2.416-0.559,4.73-2.191,6.518c-1.623,1.778-3.843,2.757-6.249,2.757H268.142c-3.489,0-6.581-2.111-7.877-5.377    c-0.103-0.256-0.2-0.496-0.302-0.736c-1.444-3.413-0.795-7.201,1.654-9.65L355.858,142.763z M238.005,80.335    c1.589-1.451,3.596-2.228,5.719-2.228c0.265,0,0.531,0.012,0.8,0.036c36.974,3.361,71.631,17.731,100.225,41.557    c1.819,1.516,2.881,3.663,2.988,6.046c0.11,2.421-0.772,4.697-2.484,6.409l-94.237,94.237c-2.448,2.449-6.235,3.099-9.649,1.655    c-0.238-0.101-0.487-0.203-0.736-0.302c-3.27-1.295-5.381-4.388-5.381-7.878V86.584C235.248,84.177,236.226,81.958,238.005,80.335    z M227.748,283.459c-2.095-1.935-4.567-3.513-7.345-4.614c-0.14-0.056-0.279-0.113-0.427-0.175    c-2.829-1.197-5.773-1.835-8.691-1.939c-0.104-2.922-0.743-5.871-1.942-8.704l-0.17-0.415c-1.102-2.778-2.68-5.25-4.615-7.346    c1.933-2.093,3.509-4.561,4.609-7.333l0.176-0.428c0-0.001,0.001-0.002,0.001-0.004c1.2-2.835,1.838-5.784,1.942-8.708    c2.92-0.105,5.867-0.738,8.699-1.936c0.136-0.058,0.273-0.114,0.41-0.168c2.781-1.102,5.255-2.682,7.353-4.618    c2.097,1.937,4.572,3.516,7.353,4.618c0.137,0.054,0.274,0.11,0.41,0.168c2.832,1.199,5.779,1.831,8.699,1.936    c0.103,2.923,0.742,5.873,1.942,8.708c0,0.001,0.001,0.002,0.001,0.004l0.176,0.428c1.1,2.773,2.676,5.241,4.609,7.333    c-1.935,2.095-3.513,4.568-4.615,7.346l-0.17,0.415c-1.2,2.834-1.838,5.782-1.942,8.704c-2.918,0.105-5.862,0.742-8.691,1.939    c-0.147,0.063-0.287,0.119-0.427,0.175C232.315,279.946,229.843,281.524,227.748,283.459z M110.748,119.7    c28.594-23.826,63.251-38.196,100.225-41.557c0.269-0.024,0.535-0.036,0.8-0.036c2.123,0,4.13,0.776,5.719,2.228    c1.778,1.623,2.757,3.842,2.757,6.249v133.282c0,3.49-2.111,6.583-5.381,7.878c-0.249,0.099-0.498,0.201-0.736,0.302    c-3.414,1.444-7.201,0.794-9.649-1.655l-94.237-94.237c-1.712-1.712-2.595-3.988-2.484-6.409    C107.867,123.364,108.929,121.217,110.748,119.7z M45.626,243.491c3.36-36.969,17.731-71.625,41.559-100.224    c1.516-1.819,3.662-2.881,6.046-2.989c0.135-0.006,0.269-0.009,0.402-0.009c2.269,0,4.389,0.877,6.005,2.494l94.24,94.239    c2.449,2.45,3.099,6.238,1.654,9.65c-0.102,0.239-0.199,0.48-0.302,0.736c-1.296,3.267-4.388,5.377-7.877,5.377H54.066    c-2.406,0-4.626-0.979-6.249-2.757C46.184,248.221,45.407,245.906,45.626,243.491z M99.637,377.769    c0,0.001-0.001,0.001-0.002,0.002c-1.712,1.711-3.99,2.591-6.407,2.483c-2.383-0.108-4.53-1.169-6.046-2.989    c-23.827-28.593-38.197-63.25-41.557-100.225c-0.22-2.416,0.559-4.731,2.191-6.519c1.623-1.777,3.842-2.756,6.248-2.756h0.001    h133.287c3.489,0,6.581,2.111,7.883,5.391c0.097,0.243,0.195,0.485,0.296,0.722c1.444,3.413,0.795,7.2-1.654,9.65c0,0,0,0-0.001,0    l-75.393,75.393L99.637,377.769z M217.491,440.195c-1.786,1.633-4.093,2.412-6.519,2.191    c-36.975-3.361-71.631-17.731-100.225-41.557c-1.819-1.516-2.881-3.663-2.988-6.046c-0.11-2.42,0.772-4.695,2.483-6.407    c0,0,0.001-0.001,0.002-0.001l18.848-18.848l75.39-75.389c1.584-1.584,3.728-2.415,5.966-2.415c1.222,0,2.473,0.248,3.675,0.757    c0.244,0.104,0.491,0.205,0.746,0.306c3.269,1.295,5.38,4.388,5.38,7.878v133.282    C220.248,436.353,219.269,438.572,217.491,440.195z M344.748,400.83c-28.594,23.826-63.25,38.196-100.225,41.557    c-2.426,0.221-4.732-0.559-6.519-2.191c-1.778-1.624-2.757-3.843-2.757-6.249V300.665c0-3.49,2.111-6.583,5.38-7.878    c0.255-0.101,0.502-0.202,0.746-0.306c1.202-0.509,2.453-0.757,3.675-0.757c2.238,0,4.382,0.831,5.966,2.415l75.39,75.389    l18.848,18.848c0,0,0.001,0.001,0.002,0.001c1.711,1.712,2.593,3.987,2.483,6.407C347.629,397.167,346.567,399.314,344.748,400.83    z M409.87,277.04c-3.359,36.975-17.729,71.632-41.557,100.225c-1.516,1.819-3.663,2.881-6.046,2.989    c-2.416,0.108-4.695-0.772-6.407-2.483c-0.001-0.001-0.001-0.001-0.002-0.002l-18.848-18.848l-75.393-75.393    c-0.001,0-0.001,0-0.001,0c-2.449-2.449-3.099-6.237-1.654-9.65c0.101-0.237,0.199-0.479,0.296-0.722    c1.302-3.281,4.394-5.391,7.883-5.391H401.43h0.001c2.406,0,4.625,0.979,6.248,2.756    C409.311,272.309,410.09,274.624,409.87,277.04z"/>
	</g>
	<path style="fill:#58B741;" d="M488.61,270.605h-0.01c-52.89,10.96-152.66-45.07-201.95-94.36   c-36.63-36.63-57.55-81.72-61.37-124.18c-0.13-1.37-0.24-2.73-0.33-4.1c-0.84-13.24-0.02-26.16,2.53-38.48v-0.01   c52.9-10.96,117.48,9.89,166.77,59.18c27.42,27.42,56.92,70.46,75.82,112.36C485.15,214.445,493.47,247.135,488.61,270.605z"/>
	<path style="fill:#70D65B;" d="M488.6,270.605c-52.89,10.96-152.66-45.07-201.95-94.36c-36.63-36.63-57.55-81.72-61.37-124.18   c-0.13-1.37-0.24-2.73-0.33-4.1c-0.84-13.24-0.02-26.16,2.53-38.48L488.6,270.605z"/>
	<path style="fill:#4AA032;" d="M421.112,210.61c-1.919,0-3.839-0.732-5.304-2.197L222.18,14.785c-2.929-2.929-2.929-7.677,0-10.606   c2.93-2.929,7.678-2.929,10.607,0l193.628,193.628c2.929,2.929,2.929,7.677,0,10.606   C424.951,209.878,423.031,210.61,421.112,210.61z"/>
	<path style="fill:#4AA032;" d="M283.221,132.674c-4.143,0-7.5-3.358-7.5-7.5V65.218c0-4.142,3.357-7.5,7.5-7.5h59.956   c4.143,0,7.5,3.358,7.5,7.5s-3.357,7.5-7.5,7.5h-52.456v52.456C290.721,129.316,287.363,132.674,283.221,132.674z"/>
	<path style="fill:#4AA032;" d="M336.269,175.734c-4.143,0-7.5-3.358-7.5-7.5v-49.967c0-4.142,3.357-7.5,7.5-7.5h49.967   c4.143,0,7.5,3.358,7.5,7.5s-3.357,7.5-7.5,7.5h-42.467v42.467C343.769,172.376,340.412,175.734,336.269,175.734z"/>
	<path style="fill:#4AA032;" d="M383.473,210.61c-4.143,0-7.5-3.358-7.5-7.5v-37.639c0-4.142,3.357-7.5,7.5-7.5h37.639   c4.143,0,7.5,3.358,7.5,7.5s-3.357,7.5-7.5,7.5h-30.139v30.139C390.973,207.252,387.616,210.61,383.473,210.61z"/>
</g>















</svg>
