<?xml version="1.0" encoding="iso-8859-1"?>
<!-- Generator: Adobe Illustrator 19.0.0, SVG Export Plug-In . SVG Version: 6.00 Build 0)  -->
<svg xmlns="http://www.w3.org/2000/svg" xmlns:xlink="http://www.w3.org/1999/xlink" version="1.1" id="Layer_1" x="0px" y="0px" viewBox="0 0 485.147 485.147" style="enable-background:new 0 0 485.147 485.147;" xml:space="preserve" width="512" height="512">
<g>
	<path style="fill:#AD7136;" d="M360.069,149.645l-70.577,24.853l50.46-46.592C376.09,95.467,402.009,47.809,419.795,0   l52.527,17.918C448.129,71.926,409.01,117.536,360.069,149.645z"/>
	<path style="fill:#FFE239;" d="M384.937,389.91c-75.273,75.273-170.792,99.539-246.189,94.631   C52.851,478.949-6.97,435.512,18.911,386.519c63.593-120.432,5.796-201.767,88.746-284.718   c82.951-82.951,209.844-90.539,283.422-16.961S467.888,306.959,384.937,389.91z"/>
	<path style="fill:#FFB83B;" d="M138.748,484.54C52.851,478.949-6.97,435.512,18.911,386.519   c63.593-120.432,5.796-201.767,88.746-284.718c82.951-82.951,209.844-90.539,283.422-16.961   c-51.3-51.3-377.085,205.344-252.34,399.691L138.748,484.54z"/>
</g>















</svg>
