<?xml version="1.0" encoding="iso-8859-1"?>
<!-- Generator: Adobe Illustrator 19.0.0, SVG Export Plug-In . SVG Version: 6.00 Build 0)  -->
<svg xmlns="http://www.w3.org/2000/svg" xmlns:xlink="http://www.w3.org/1999/xlink" version="1.1" id="Layer_1" x="0px" y="0px" viewBox="0 0 490 490" style="enable-background:new 0 0 490 490;" xml:space="preserve" width="512" height="512">
<g>
	<circle style="fill:#E21E56;" cx="245" cy="245" r="245"/>
	<circle style="fill:#FF3B6A;" cx="245" cy="245" r="229.52"/>
	<circle style="fill:#654B87;" cx="244.936" cy="244.999" r="89.28"/>
	<g>
		<path style="fill:#E6E6E6;" d="M301.786,112.109l-27.735,66.957c-10.082,24.34-44.558,24.34-54.64,0l-27.729-66.944    c-16.089-38.842,12.398-81.591,54.44-81.692c0.702-0.002,1.404,0,2.105,0.005C289.892,30.747,317.731,73.615,301.786,112.109z"/>
		<path style="fill:#CCCCCC;" d="M246.712,197.304c-11.134-0.011-22.257-6.095-27.307-18.252l-27.727-66.944    c-16.087-38.84,12.405-81.588,54.442-81.696h0.312c-17.261,0.183-28.944,42.889-22.343,81.696l11.403,66.944    C237.57,191.21,242.136,197.293,246.712,197.304z"/>
		<path style="fill:#E6E6E6;" d="M191.677,377.936l27.735-66.957c10.082-24.34,44.558-24.34,54.64,0l27.729,66.944    c16.089,38.842-12.398,81.591-54.44,81.692c-0.702,0.002-1.404,0-2.105-0.005C203.571,459.298,175.732,416.43,191.677,377.936z"/>
		<path style="fill:#E6E6E6;" d="M191.677,112.109l27.735,66.957c10.082,24.34-14.297,48.718-38.636,38.636l-66.944-27.729    c-38.842-16.089-48.926-66.46-19.27-96.26c0.495-0.498,0.993-0.992,1.492-1.485C125.735,62.987,175.732,73.615,191.677,112.109z"/>
		<path style="fill:#E6E6E6;" d="M301.786,377.936l-27.735-66.957c-10.082-24.34,14.297-48.718,38.636-38.636l66.944,27.729    c38.842,16.089,48.927,66.46,19.27,96.26c-0.495,0.498-0.993,0.992-1.492,1.485C367.728,427.057,317.731,416.43,301.786,377.936z"/>
		<path style="fill:#E6E6E6;" d="M113.818,189.968l66.957,27.735c24.34,10.082,24.34,44.558,0,54.64l-66.944,27.729    c-38.842,16.089-81.591-12.398-81.692-54.44c-0.002-0.702,0-1.404,0.005-2.105C32.456,201.862,75.324,174.023,113.818,189.968z"/>
		<path style="fill:#E6E6E6;" d="M379.646,300.077l-66.957-27.735c-24.34-10.082-24.34-44.558,0-54.64l66.944-27.729    c38.842-16.089,81.591,12.398,81.692,54.44c0.002,0.702,0,1.404-0.005,2.105C461.008,288.183,418.14,316.022,379.646,300.077z"/>
		<path style="fill:#E6E6E6;" d="M113.818,300.077l66.957-27.735c24.34-10.082,48.718,14.297,38.636,38.636l-27.729,66.944    c-16.089,38.842-66.46,48.927-96.26,19.27c-0.498-0.495-0.992-0.993-1.485-1.492C64.697,366.019,75.324,316.022,113.818,300.077z"/>
		<path style="fill:#E6E6E6;" d="M379.646,189.968l-66.957,27.735c-24.34,10.082-48.718-14.297-38.636-38.636l27.729-66.944    c16.089-38.842,66.46-48.927,96.26-19.27c0.498,0.495,0.992,0.993,1.485,1.492C428.767,124.026,418.14,174.023,379.646,189.968z"/>
		<path style="fill:#CCCCCC;" d="M246.748,292.722c11.134,0.011,22.257,6.095,27.307,18.252l27.727,66.944    c16.087,38.84-12.405,81.589-54.442,81.696h-0.312c17.261-0.183,28.944-42.889,22.343-81.696l-11.403-66.944    C255.89,298.817,251.325,292.733,246.748,292.722z"/>
		<path style="fill:#CCCCCC;" d="M212.982,211.291c-7.881,7.865-20.048,11.429-32.215,6.403l-66.943-27.73    c-38.839-16.088-48.92-66.463-19.271-96.265l0.221-0.221c-12.076,12.335,9.86,50.793,41.969,73.567l55.4,39.273    C202.208,213.446,209.738,214.519,212.982,211.291z"/>
		<path style="fill:#CCCCCC;" d="M280.478,278.736c7.881-7.865,20.048-11.429,32.215-6.403l66.943,27.73    c38.839,16.088,48.92,66.463,19.271,96.265l-0.221,0.221c12.076-12.335-9.86-50.793-41.969-73.567l-55.4-39.273    C291.252,276.581,283.722,275.508,280.478,278.736z"/>
		<path style="fill:#CCCCCC;" d="M199.021,245.032c-0.011,11.134-6.095,22.257-18.252,27.307l-66.944,27.727    c-38.84,16.087-81.588-12.405-81.696-54.442v-0.312c0.183,17.261,42.889,28.944,81.696,22.343l66.944-11.403    C192.926,254.174,199.01,249.608,199.021,245.032z"/>
		<path style="fill:#CCCCCC;" d="M294.439,244.995c0.011-11.134,6.095-22.257,18.252-27.307l66.944-27.727    c38.84-16.087,81.589,12.405,81.696,54.443v0.312c-0.183-17.261-42.889-28.944-81.696-22.343l-66.944,11.403    C300.534,235.853,294.45,240.419,294.439,244.995z"/>
		<path style="fill:#CCCCCC;" d="M213.008,278.762c7.865,7.881,11.429,20.048,6.403,32.215l-27.73,66.943    c-16.088,38.839-66.463,48.92-96.265,19.271l-0.221-0.221c12.335,12.076,50.793-9.86,73.567-41.969l39.273-55.4    C215.162,289.536,216.236,282.005,213.008,278.762z"/>
		<path style="fill:#CCCCCC;" d="M280.453,211.265c-7.865-7.881-11.429-20.048-6.403-32.215l27.73-66.943    c16.088-38.839,66.463-48.92,96.265-19.271l0.221,0.221c-12.335-12.076-50.793,9.86-73.567,41.969l-39.273,55.4    C278.298,200.491,277.224,208.021,280.453,211.265z"/>
	</g>
</g>















</svg>
