<?xml version="1.0" encoding="iso-8859-1"?>
<!-- Generator: Adobe Illustrator 19.0.0, SVG Export Plug-In . SVG Version: 6.00 Build 0)  -->
<svg xmlns="http://www.w3.org/2000/svg" xmlns:xlink="http://www.w3.org/1999/xlink" version="1.1" id="Layer_1" x="0px" y="0px" viewBox="0 0 492.503 492.503" style="enable-background:new 0 0 492.503 492.503;" xml:space="preserve" width="512" height="512">
<g>
	<path style="fill:#AD7136;" d="M42.044,212.037C13.157,212.037,0,181.764,0,153.637c0-4.142,3.358-7.5,7.5-7.5s7.5,3.358,7.5,7.5   c0,34.329,17.69,43.4,27.044,43.4c4.142,0,7.5,3.358,7.5,7.5S46.187,212.037,42.044,212.037z"/>
	<path style="fill:#FFB83B;" d="M492.503,204.536c0,92.244-79.565,169.058-184.831,185.714c-13.896,2.194-28.229,3.346-42.896,3.346   c-125.771,0-227.728-84.64-227.728-189.061c0-104.411,101.957-189.061,227.728-189.061c14.668,0,29,1.153,42.896,3.346   C412.938,35.478,492.503,112.301,492.503,204.536z"/>
	<path style="fill:#FFE239;" d="M492.503,204.536c0,92.244-79.565,169.058-184.831,185.714   C202.406,373.593,122.84,296.779,122.84,204.536c0-92.234,79.565-169.058,184.831-185.714   C412.938,35.478,492.503,112.301,492.503,204.536z"/>
	<path style="fill:#FF933B;" d="M92.327,179.976c-3.361,0-6.419-2.276-7.271-5.684c-1.004-4.019,1.44-8.09,5.459-9.094   c26.469-6.611,60.473-11.618,98.334-14.48c4.145-0.31,7.732,2.783,8.044,6.914c0.313,4.13-2.783,7.732-6.913,8.044   c-37.031,2.799-70.168,7.666-95.83,14.075C93.541,179.903,92.929,179.976,92.327,179.976z"/>
	<path style="fill:#FF933B;" d="M437.219,179.976c-0.602,0-1.213-0.073-1.823-0.225c-42.765-10.681-104.954-16.807-170.623-16.807   c-11.394,0-22.839,0.184-34.018,0.548c-4.133,0.14-7.605-3.112-7.74-7.252s3.112-7.605,7.252-7.74   c11.34-0.369,22.949-0.556,34.505-0.556c66.841,0,130.355,6.289,174.257,17.253c4.019,1.004,6.463,5.075,5.459,9.094   C443.638,177.7,440.58,179.976,437.219,179.976z"/>
	<path style="fill:#FF933B;" d="M264.773,261.124c-66.842,0-130.357-6.289-174.257-17.254c-4.019-1.004-6.463-5.075-5.459-9.094   c1.003-4.019,5.074-6.463,9.094-5.459c42.763,10.681,104.953,16.806,170.623,16.806c65.669,0,127.859-6.126,170.623-16.806   c4.017-1.006,8.09,1.44,9.094,5.459c1.004,4.019-1.44,8.09-5.459,9.094C395.129,254.835,331.615,261.124,264.773,261.124z"/>
	<path style="fill:#FF933B;" d="M419.026,110.605c-1.237,0-2.491-0.306-3.647-0.952c-41.03-22.892-94.516-35.5-150.605-35.5   s-109.576,12.607-150.606,35.5c-1.117,0.623-2.375,0.95-3.654,0.95c-4.142,0-7.505-3.358-7.505-7.5   c0-2.923,1.669-5.455,4.107-6.692c43.193-24.029,99.167-37.258,157.658-37.258c58.605,0,114.687,13.282,157.914,37.4   c3.617,2.018,4.914,6.587,2.896,10.204C424.209,109.218,421.656,110.605,419.026,110.605z"/>
	<path style="fill:#FF933B;" d="M433.858,297.971c0,98.895-96.562,179.056-215.678,179.056S2.503,396.866,2.503,297.971h128.702   c0,39.878,38.945,72.212,86.975,72.212s86.975-32.334,86.975-72.212H433.858z"/>
	<path style="fill:#FCE98D;" d="M402.571,297.971c0,84.546-82.556,153.087-184.391,153.087   c-101.835,0-184.391-68.541-184.391-153.087h97.416c0,39.878,38.945,72.212,86.975,72.212s86.975-32.334,86.975-72.212H402.571z"/>
</g>















</svg>
