<?xml version="1.0" encoding="iso-8859-1"?>
<!-- Generator: Adobe Illustrator 19.0.0, SVG Export Plug-In . SVG Version: 6.00 Build 0)  -->
<svg xmlns="http://www.w3.org/2000/svg" xmlns:xlink="http://www.w3.org/1999/xlink" version="1.1" id="Layer_1" x="0px" y="0px" viewBox="0 0 490.469 490.469" style="enable-background:new 0 0 490.469 490.469;" xml:space="preserve" width="512" height="512">
<g>
	<path style="fill:#E6E6E6;" d="M371.61,425.085c-19.54,65.38-126.38,65.38-126.38,65.38s-106.83,0-126.37-65.38   c-15.81-52.85,19.37-117.34,33.42-170.54c3.34-12.61,5.48-24.58,5.48-35.61l87.47-141.79l87.48,141.79c0,11.03,2.14,23,5.48,35.61   C352.24,307.745,387.42,372.235,371.61,425.085z"/>
	<path style="fill:#CCCCCC;" d="M245.23,249.875c33,0,64.42,2.45,92.96,4.67c-3.34-12.61-5.48-24.58-5.48-35.61l-87.48-141.79   l-0.009,0.019l0.006-0.02l-87.47,141.795c0,57.59-58.45,140.78-38.9,206.15c19.54,65.38,126.37,65.38,126.37,65.38   s-47.75,0-56.49-65.38c-5.575-41.699,3.032-90.641,9.998-135.568c3.526-22.741,23.062-39.631,46.075-39.645   C244.949,249.875,245.09,249.875,245.23,249.875z"/>
	<path style="fill:#AD7136;" d="M481.775,163.069C481.775,73.008,375.872,0,245.234,0C114.597,0,8.694,73.008,8.694,163.069   s105.903,51.619,236.54,51.619S481.775,253.129,481.775,163.069z"/>
	<path style="fill:#8C531F;" d="M139.836,163.07c0,33.696,6.603,49.409,17.926,55.865C70.425,225.685,8.694,231.823,8.694,163.07   c0-90.06,105.898-163.068,236.541-163.068C187.022,0.002,139.836,73.01,139.836,163.07z"/>
	<g>
		<path style="fill:#CCCCCC;" d="M322.147,434.543c-6.676,0-10-8.468-5.09-13.006c4.965-4.589,13.194-0.482,12.554,6.24    C329.25,431.57,325.949,434.543,322.147,434.543z"/>
		<path style="fill:#CCCCCC;" d="M318.717,407.723c-6.662,0-10.002-8.48-5.087-13.005c2.326-2.141,5.827-2.591,8.621-1.11    c2.827,1.499,4.396,4.754,3.855,7.901C325.498,405.057,322.314,407.723,318.717,407.723z"/>
		<path style="fill:#CCCCCC;" d="M341.607,416.443c-6.712,0-9.998-8.578-5.032-13.061c2.448-2.21,6.138-2.549,8.953-0.837    c2.541,1.546,3.925,4.56,3.498,7.496C348.499,413.671,345.269,416.443,341.607,416.443z"/>
	</g>
</g>















</svg>
