<?xml version="1.0" encoding="iso-8859-1"?>
<!-- Generator: Adobe Illustrator 19.0.0, SVG Export Plug-In . SVG Version: 6.00 Build 0)  -->
<svg xmlns="http://www.w3.org/2000/svg" xmlns:xlink="http://www.w3.org/1999/xlink" version="1.1" id="Layer_1" x="0px" y="0px" viewBox="0 0 488.173 488.173" style="enable-background:new 0 0 488.173 488.173;" xml:space="preserve" width="512" height="512">
<g>
	<path style="fill:#58B741;" d="M57.004,53.599c14.217,47.842,40.208,92.932,77.979,130.702s82.86,63.762,130.702,77.979   c-14.218-47.841-40.208-92.932-77.979-130.702S104.846,67.817,57.004,53.599z"/>
	<path style="fill:#70D65B;" d="M265.687,275.78c-5.74-4.94-11.31-10.09-16.7-15.46c-16.89-16.85-31.99-35.8-44.83-56.67   c-10.08-16.35-18.76-33.88-25.85-52.49c-19.01-49.91-24.29-101.69-17.69-151.16c34.42,29.6,62.78,67.17,81.93,111.29   c1.91,4.38,3.72,8.82,5.44,13.33c13.13,34.45,19.71,69.78,20.35,104.63C268.638,244.9,267.727,260.45,265.687,275.78z"/>
	<path style="fill:#58B741;" d="M268.338,229.25c-5.88,10.83-12.35,21.2-19.35,31.07c-16.89-16.85-31.99-35.8-44.83-56.67   c3.1-13.09,7.1-26.12,12.02-39.03c7.21-18.93,16.07-36.74,26.37-53.33c1.91,4.38,3.72,8.82,5.44,13.33   C261.118,159.07,267.697,194.4,268.338,229.25z"/>
	<path style="fill:#70D65B;" d="M444.37,93.596c-12.51,42.08-34.13,82.04-64.87,116.76c-4.19,4.75-8.56,9.4-13.11,13.94   c-31.9,31.9-69.03,55.41-108.62,70.51c-7.28,2.77-14.65,5.26-22.08,7.47c4.66-15.7,10.59-31.1,17.8-46.05   c10.28-21.34,23.15-41.74,38.61-60.75c6.69-8.24,13.88-16.22,21.56-23.9c6.91-6.91,14.07-13.43,21.45-19.55   c6.19-5.14,12.54-10.01,19.03-14.6C382.12,117.635,412.64,103.026,444.37,93.596z"/>
	<path style="fill:#58B741;" d="M354.14,137.425c-2.86,11.14-6.39,22.23-10.58,33.24c-0.19,0.5-0.38,0.99-0.58,1.48   c-15.14,39.18-37.39,73.53-64.71,102.16c-7.03,7.38-14.41,14.37-22.08,20.97c-1.72-12.89-2.63-25.93-2.7-39.05   c10.28-21.34,23.15-41.74,38.61-60.75c6.69-8.24,13.88-16.22,21.56-23.9c6.91-6.91,14.07-13.43,21.45-19.55   C341.3,146.885,347.65,142.016,354.14,137.425z"/>
	<path style="fill:#70D65B;" d="M335.108,152.03c-3.11,13.12-7.12,26.19-12.05,39.14c-0.19,0.5-0.38,0.99-0.58,1.48   c-15.14,39.18-37.39,73.53-64.71,102.16c-7.03,7.38-14.41,14.37-22.08,20.97c-3.47-26-3.66-52.63-0.3-79.29   c3.04-24.08,8.97-48.19,17.99-71.87c19.02-49.92,49.54-92.08,87.38-124.62C345.638,76.64,344.018,114.55,335.108,152.03z"/>
	<path style="fill:#58B741;" d="M379.497,210.36c-4.19,4.75-8.56,9.4-13.11,13.94c-31.9,31.9-69.03,55.41-108.62,70.51   c-7.03,7.38-14.41,14.37-22.08,20.97c-3.47-26-3.66-52.63-0.3-79.29c7.93-12.33,18.39-22.76,31.27-30.47   c8.05-4.82,16.59-8.31,25.44-10.54c9.84-2.47,20.05-3.39,30.38-2.83C341.668,193.68,361.247,199.8,379.497,210.36z"/>
	
		<ellipse transform="matrix(0.8579 0.5139 -0.5139 0.8579 200.8758 -20.8089)" style="fill:#654B87;" cx="138.054" cy="352.714" rx="114.679" ry="142.138"/>
	<path style="fill:#463068;" d="M64.365,474.252c-53.78-32.798-64.87-113.393-24.69-180.469s116.467-95.318,170.76-63.378   c-28.158-15.713-82.96,25.178-122.986,91.996C47.423,389.22,37.225,456.84,64.365,474.252z"/>
	
		<ellipse transform="matrix(0.8579 -0.5139 0.5139 0.8579 -131.4873 230.0551)" style="fill:#654B87;" cx="350.121" cy="352.714" rx="114.679" ry="142.138"/>
	<path style="fill:#463068;" d="M276.433,231.176c-53.78,32.798-64.87,113.393-24.69,180.469s116.467,95.318,170.76,63.378   c-28.158,15.713-82.96-25.178-122.986-91.996C259.491,316.208,249.292,248.587,276.433,231.176z"/>
	<path style="fill:#463068;" d="M416.35,454.885c-3.283,0-6.245-2.217-7.184-5.356c-0.896-2.993,0.234-6.383,2.781-8.207   c5.552-3.977,13.379,1.216,11.671,7.909C422.778,452.517,419.745,454.885,416.35,454.885z"/>
	<path style="fill:#463068;" d="M81.3,454.885c-3.013,0-5.76-1.862-6.92-4.63c-1.243-2.966-0.375-6.519,2.079-8.592   c5.177-4.372,13.227,0.122,12.261,6.829C88.196,452.128,84.957,454.885,81.3,454.885z"/>
</g>















</svg>
