<?xml version="1.0" encoding="iso-8859-1"?>
<!-- Generator: Adobe Illustrator 19.0.0, SVG Export Plug-In . SVG Version: 6.00 Build 0)  -->
<svg xmlns="http://www.w3.org/2000/svg" xmlns:xlink="http://www.w3.org/1999/xlink" version="1.1" id="Layer_1" x="0px" y="0px" viewBox="0 0 492.5 492.5" style="enable-background:new 0 0 492.5 492.5;" xml:space="preserve" width="512" height="512">
<g>
	<g>
		<path style="fill:#E6E6E6;" d="M246.252,492.5c-4.142,0-7.5-3.358-7.5-7.5v-23.71c0-4.142,3.358-7.5,7.5-7.5s7.5,3.358,7.5,7.5    V485C253.752,489.142,250.394,492.5,246.252,492.5z"/>
		<path style="fill:#E6E6E6;" d="M222.795,492.5c-4.142,0-7.5-3.358-7.5-7.5v-23.71c0-4.142,3.358-7.5,7.5-7.5s7.5,3.358,7.5,7.5    V485C230.295,489.142,226.937,492.5,222.795,492.5z"/>
		<path style="fill:#E6E6E6;" d="M269.709,492.5c-4.142,0-7.5-3.358-7.5-7.5v-23.71c0-4.142,3.358-7.5,7.5-7.5s7.5,3.358,7.5,7.5    V485C277.209,489.142,273.851,492.5,269.709,492.5z"/>
	</g>
	<path style="fill:#FFE239;" d="M456.445,323.709c0,68.56-43.1,109.63-106.96,129.01c-30.49,9.26-65.71,13.57-103.23,13.57   c-33.47,0-65.12-3.43-93.21-10.75c-69.33-18.05-116.99-59.74-116.99-131.83c0-72.57,48.3-135.29,118.36-165.04   c39.11-16.59,64.77-53.92,64.77-95.67v-0.16h54.13v0.16c0,41.75,25.67,79.08,64.77,95.67   C408.155,188.419,456.445,251.139,456.445,323.709z"/>
	<path style="fill:#FFB83B;" d="M246.245,466.285c-116.084,0-210.186-41.282-210.186-142.584   c0-72.561,48.289-135.287,118.357-165.029c39.096-16.591,64.768-53.924,64.768-95.674v-0.167h15.513v0.167   c0,41.75-10.95,79.083-27.632,95.674c-29.895,29.743-50.497,92.468-50.497,165.029   C156.569,425.003,196.715,466.285,246.245,466.285z"/>
	<path style="fill:#70D65B;" d="M219.189,62.834c0,0-5.312-45.118,27.063-62.834c0,0,27.063,10.388,27.063,62.834"/>
	<path style="fill:#58B741;" d="M234.839,63.001h-15.65c0,0-5.29-44.96,26.9-62.74C232.629,18.051,234.839,63.001,234.839,63.001z"/>
	<path style="fill:#58B741;" d="M246.199,0.201c-0.04,0.01-0.07,0.03-0.11,0.06c0.02-0.03,0.05-0.07,0.07-0.1   C246.159,0.161,246.169,0.171,246.199,0.201z"/>
	<path style="fill:#FF933B;" d="M410.135,323.709c0,49.9-16.71,91.13-48.32,119.24c-3.92,3.48-8.03,6.74-12.33,9.77   c-30.49,9.26-65.71,13.57-103.23,13.57c-33.47,0-65.12-3.43-93.21-10.75c-8.02-5.21-15.56-11.14-22.54-17.76   c-31.04-29.43-48.14-69.94-48.14-114.07c0-4.15,3.36-7.5,7.5-7.5s7.5,3.35,7.5,7.5c0,39.97,15.44,76.62,43.46,103.19   c17.78,16.85,39.62,28.81,63.68,35.21c-3.23-3.3-6.31-7.01-9.21-11.14c-13.56-19.33-22.9-47.62-27.02-81.83   c-0.49-4.12,2.44-7.85,6.55-8.35c4.12-0.49,7.85,2.44,8.35,6.55c7.3,60.73,31.48,98.45,63.08,98.45s55.77-37.72,63.07-98.45   c0.5-4.11,4.24-7.04,8.35-6.55c4.11,0.5,7.04,4.23,6.55,8.35c-4.12,34.21-13.46,62.5-27.01,81.83c-3.3,4.7-6.83,8.86-10.56,12.48   c25.5-5.39,47.62-16.09,65.2-31.71c28.31-25.18,43.28-62.54,43.28-108.03c0-4.15,3.36-7.5,7.5-7.5S410.135,319.559,410.135,323.709   z"/>
</g>















</svg>
