<?xml version="1.0" encoding="iso-8859-1"?>
<!-- Generator: Adobe Illustrator 19.0.0, SVG Export Plug-In . SVG Version: 6.00 Build 0)  -->
<svg xmlns="http://www.w3.org/2000/svg" xmlns:xlink="http://www.w3.org/1999/xlink" version="1.1" id="Layer_1" x="0px" y="0px" viewBox="0 0 482.995 482.995" style="enable-background:new 0 0 482.995 482.995;" xml:space="preserve" width="512" height="512">
<g>
	<path style="fill:#FF933B;" d="M441.207,268.354c0,6.03-0.25,12-0.74,17.91c-9.1,110.16-101.39,196.73-213.9,196.73   c-118.54,0-214.64-96.1-214.64-214.64c0-106.42,77.45-194.73,179.06-211.69c-0.08-0.97-0.13-1.95-0.13-2.95   c0-19.72,15.99-35.71,35.71-35.71c19.72,0,35.71,15.99,35.71,35.71c0,1-0.05,1.98-0.13,2.95c2.14,0.36,4.26,0.74,6.37,1.17   C366.977,77.344,441.207,164.174,441.207,268.354z"/>
	<path style="fill:#ED761D;" d="M441.207,268.354c0,6.03-0.25,12-0.74,17.91c-32.56-3.94-192.85-87.01-178.19-206.25   c1.03-8.42,3.16-15.78,6.24-22.18C366.977,77.344,441.207,164.174,441.207,268.354z"/>
	<path style="fill:#ED761D;" d="M226.568,482.995c-118.54,0-214.64-96.1-214.64-214.64c0-106.42,77.45-194.73,179.06-211.69   c-0.08-0.97-0.13-1.95-0.13-2.95c0-19.72,15.99-35.71,35.71-35.71c-9.61,0-17.4,15.99-17.4,35.71c0,1,0.03,1.98,0.07,2.95   c-49.5,16.96-87.24,105.27-87.24,211.69C121.998,386.895,168.818,482.995,226.568,482.995z"/>
	<path style="fill:#70D65B;" d="M471.067,252.505c-59.59-8.93-116.94-36.32-162.81-82.19c-45.88-45.88-73.26-103.23-82.19-162.81   c59.59,8.92,116.94,36.31,162.81,82.18C434.757,135.565,462.137,192.915,471.067,252.505z"/>
	<path style="fill:#58B741;" d="M471.067,252.505c-59.59-8.93-116.94-36.32-162.81-82.19c-45.88-45.88-73.26-103.23-82.19-162.81   L471.067,252.505z"/>
	<path style="fill:#4AA032;" d="M396.85,185.782c-1.919,0-3.839-0.732-5.303-2.197L220.764,12.803   c-2.929-2.929-2.929-7.677,0-10.606c2.929-2.929,7.678-2.929,10.606,0l170.782,170.782c2.929,2.929,2.929,7.677,0,10.606   C400.689,185.05,398.769,185.782,396.85,185.782z"/>
	<path style="fill:#4AA032;" d="M355.128,181.567c-4.142,0-7.5-3.358-7.5-7.5V136.56c0-4.142,3.358-7.5,7.5-7.5H395.2   c4.142,0,7.5,3.358,7.5,7.5s-3.358,7.5-7.5,7.5h-32.572v30.007C362.628,178.209,359.27,181.567,355.128,181.567z"/>
	<path style="fill:#4AA032;" d="M307.42,133.859c-4.142,0-7.5-3.358-7.5-7.5V88.852c0-4.142,3.358-7.5,7.5-7.5h40.072   c4.142,0,7.5,3.358,7.5,7.5s-3.358,7.5-7.5,7.5H314.92v30.007C314.92,130.501,311.562,133.859,307.42,133.859z"/>
	<g>
		<path style="fill:#FF933B;" d="M57.129,359.796c-6.686,0-9.97-8.482-5.09-13.005c4.953-4.592,13.233-0.453,12.553,6.24    C64.207,356.821,60.947,359.796,57.129,359.796z"/>
		<path style="fill:#FF933B;" d="M83.849,363.946c-6.695,0-10.019-8.561-5.036-13.061c2.425-2.19,6.086-2.551,8.889-0.874    c2.747,1.642,4.16,4.953,3.458,8.074C90.4,361.46,87.322,363.946,83.849,363.946z"/>
		<path style="fill:#FF933B;" d="M69.119,383.516c-3.129,0-5.995-2.031-7.053-4.973c-1.066-2.963-0.117-6.357,2.325-8.342    c5.069-4.12,12.82,0.056,12.192,6.549C76.216,380.541,72.922,383.516,69.119,383.516z"/>
	</g>
	<g>
		<path style="fill:#ED761D;" d="M391.069,291.166c-6.77,0-10.069-8.758-4.896-13.178c2.531-2.163,6.278-2.409,9.056-0.562    c2.499,1.661,3.78,4.756,3.19,7.7C397.725,288.587,394.613,291.166,391.069,291.166z"/>
		<path style="fill:#ED761D;" d="M415.769,302.156c-6.796,0-10.071-8.777-4.866-13.201c5.24-4.453,13.418,0.207,12.256,6.989    C422.55,299.497,419.367,302.156,415.769,302.156z"/>
		<path style="fill:#ED761D;" d="M396.439,317.196c-3.28,0-6.215-2.197-7.175-5.323c-0.864-2.811,0.068-5.97,2.299-7.879    c5.153-4.41,13.316,0.113,12.291,6.804C403.299,314.424,400.119,317.196,396.439,317.196z"/>
	</g>
	<g>
		<path style="fill:#FF933B;" d="M102.669,144.576c-3.337,0-6.337-2.293-7.228-5.502c-0.842-3.033,0.363-6.351,2.937-8.152    c5.547-3.881,13.226,1.393,11.559,7.974C109.103,142.187,106.073,144.576,102.669,144.576z"/>
		<path style="fill:#FF933B;" d="M121.049,124.746c-3.001,0-5.78-1.858-6.93-4.63c-1.275-3.071-0.315-6.741,2.313-8.781    c5.194-4.032,13.049,0.416,12.033,7.009C127.906,121.967,124.732,124.746,121.049,124.746z"/>
		<path style="fill:#FF933B;" d="M129.039,147.896c-3.071,0-5.893-1.936-6.995-4.8c-1.18-3.068-0.178-6.697,2.465-8.674    c5.484-4.103,13.391,0.962,11.832,7.67C135.562,145.445,132.488,147.896,129.039,147.896z"/>
	</g>
</g>















</svg>
