<?xml version="1.0" encoding="iso-8859-1"?>
<!-- Generator: Adobe Illustrator 19.0.0, SVG Export Plug-In . SVG Version: 6.00 Build 0)  -->
<svg xmlns="http://www.w3.org/2000/svg" xmlns:xlink="http://www.w3.org/1999/xlink" version="1.1" id="Layer_1" x="0px" y="0px" viewBox="0 0 491.13 491.13" style="enable-background:new 0 0 491.13 491.13;" xml:space="preserve" width="512" height="512">
<g>
	<path style="fill:#58B741;" d="M270,24.44V88.8l-48.87-0.03V24.44c0-13.5,10.94-24.44,24.44-24.44c2.92,0,5.71,0.51,8.31,1.45   C263.28,4.85,270,13.86,270,24.44z"/>
	<path style="fill:#70D65B;" d="M270,24.44v64.35l-32.25-0.02V24.44c0-10.58,6.72-19.59,16.13-22.99   C263.28,4.85,270,13.86,270,24.44z"/>
	<path style="fill:#FF933B;" d="M440.018,303.613c0,103.562-87.063,187.517-194.459,187.517   c-107.385,0-194.448-83.954-194.448-187.517c0-30.218,18.805-69.73,38.27-102.551c19.19-32.328,36.227-65.841,49.628-100.783   c8.008-20.871,22.43-38.754,40.95-51.419c0.109-0.074,0.217-0.148,0.326-0.222c18.123-12.29,42.489-9.711,57.972,5.773l7.301,7.301   l7.297-7.297c15.698-15.699,40.358-17.913,58.644-5.323c18.367,12.645,32.661,30.436,40.62,51.186   c13.401,34.942,30.438,68.455,49.617,100.783C421.213,233.884,440.018,273.395,440.018,303.613z"/>
	<path style="fill:#ED761D;" d="M245.565,446.96c-12.21,0-23.891-4.564-32.891-12.853c-35.397-32.598-57.336-64.562-57.336-123.102   c0-57.124,20.743-125.707,51.615-170.66c8.753-12.746,23.188-20.354,38.611-20.354c15.423,0,29.857,7.609,38.61,20.354   c30.873,44.953,51.615,113.536,51.615,170.661c0,58.54-21.938,90.503-57.335,123.102   C269.456,442.395,257.775,446.96,245.565,446.96z"/>
	<path style="fill:#654B87;" d="M170.339,311.005c0,53.474,19.815,81.971,52.497,112.068c12.867,11.849,32.592,11.849,45.459,0   c32.682-30.097,52.497-58.594,52.497-112.068c0-51.527-18.399-117.64-48.98-162.168c-12.679-18.462-39.813-18.462-52.492,0   C188.738,193.365,170.339,259.478,170.339,311.005z"/>
	<path style="fill:#463068;" d="M238.068,401.964c0-4.953,4.891-8.548,9.631-7.229c4.655,1.295,6.897,6.835,4.455,11.004   c-1.332,2.274-3.818,3.715-6.456,3.715c-0.043,0.003-0.087,0.007-0.13,0.01C241.479,409.446,238.068,406.067,238.068,401.964z    M211.718,377.664c-3.156-4.496-0.368-10.965,5.08-11.737c5.344-0.758,9.804,4.45,8.229,9.612c-0.95,3.115-3.905,5.316-7.168,5.316   C215.432,380.854,213.112,379.65,211.718,377.664z M269.038,379.404c-4.77-3.349-3.928-10.918,1.489-13.099   c5.472-2.203,11.381,2.754,10.15,8.526c-0.729,3.418-3.845,5.932-7.339,5.932C271.805,380.764,270.293,380.285,269.038,379.404z    M195.088,337.944c-0.924-5.025,3.547-9.603,8.599-8.77c4.862,0.802,7.657,6.201,5.55,10.629c-1.235,2.597-3.906,4.271-6.779,4.271   C198.888,344.058,195.741,341.462,195.088,337.944z M287.318,343.834c-6.431-1.185-8.271-9.836-2.89-13.548   c5.447-3.758,12.927,1.203,11.601,7.679c-0.705,3.442-3.824,5.999-7.341,5.999C288.229,343.964,287.769,343.922,287.318,343.834z    M200.338,303.984c-6.773-0.476-9.418-9.375-4.003-13.473c5.388-4.079,13.206,0.859,11.871,7.471   c-0.697,3.454-3.823,6.011-7.347,6.011C200.685,303.995,200.511,303.992,200.338,303.984z M282.788,296.904   c-0.269-4.077,2.873-7.713,6.96-8c4.074-0.286,7.723,2.883,8,6.96l0,0c0.282,4.285-3.186,8.02-7.49,8.02   C286.372,303.867,283.053,300.791,282.788,296.904z M205.108,264.054c-6.441-1.435-7.935-10.267-2.298-13.72   c5.601-3.43,12.73,1.797,11.204,8.161c-0.797,3.323-3.857,5.739-7.276,5.739C206.19,264.231,205.644,264.171,205.108,264.054z    M277.048,258.244c-1.089-4.956,3.157-9.677,8.209-9.078c5.063,0.6,8.1,6.215,5.834,10.78c-1.256,2.531-3.892,4.178-6.723,4.178   C280.892,264.108,277.805,261.642,277.048,258.244z M215.398,225.164c-3.842-1.392-5.881-5.773-4.48-9.61l0,0   c2.027-5.593,9.778-6.613,13.188-1.738c3.408,4.871-0.169,11.809-6.138,11.809C217.093,225.624,216.219,225.463,215.398,225.164z    M266.078,220.574c-1.402-3.84,0.644-8.21,4.48-9.61c3.84-1.401,8.209,0.643,9.609,4.48l0,0c1.754,4.804-1.911,10.07-7.04,10.07   C270.002,225.493,267.15,223.52,266.078,220.574z M230.818,188.024c-5.36-2.961-4.95-11.06,0.681-13.467   c5.529-2.363,11.627,2.741,10.246,8.601c-0.791,3.357-3.855,5.796-7.307,5.796C233.183,188.963,231.917,188.626,230.818,188.024z    M250.068,184.984c-2.588-4.661,0.598-10.633,5.908-11.096c5.321-0.464,9.486,4.875,7.743,9.923   c-1.03,2.982-3.92,5.053-7.082,5.053C253.928,188.864,251.378,187.355,250.068,184.984z"/>
	<g>
		<path style="fill:#463068;" d="M245.568,367.874c-3.078,0-5.888-1.945-6.997-4.811c-1.213-3.132-0.123-6.841,2.624-8.789    c5.388-3.823,13.068,0.997,11.723,7.56C252.211,365.284,249.111,367.874,245.568,367.874z"/>
		<path style="fill:#463068;" d="M224.318,331.124L224.318,331.124c-0.809-4.985,3.578-9.477,8.601-8.66    c4.954,0.805,7.764,6.4,5.452,10.856c-1.278,2.464-3.885,4.054-6.664,4.054C228.097,337.358,224.923,334.692,224.318,331.124z     M230.358,303.544c-6.761-0.557-9.298-9.489-3.835-13.516c5.442-4.012,13.186,1.019,11.783,7.615    c-0.726,3.415-3.837,5.931-7.328,5.931C230.771,303.573,230.564,303.564,230.358,303.544z M234.528,269.924    c-6.448-1.436-7.898-10.287-2.26-13.721c5.604-3.413,12.73,1.836,11.186,8.191c-0.805,3.313-3.866,5.72-7.276,5.72    C235.623,270.111,235.068,270.051,234.528,269.924z"/>
		<path style="fill:#463068;" d="M245.558,237.564c-6.745,0-10.017-8.659-4.964-13.124c2.325-2.054,5.768-2.441,8.501-0.99    c2.801,1.487,4.402,4.719,3.867,7.849C252.353,234.863,249.185,237.564,245.558,237.564z"/>
		<path style="fill:#463068;" d="M258.168,337.254c-6.571-1.109-8.45-9.982-2.884-13.655c5.476-3.613,12.806,1.379,11.472,7.795    c-0.714,3.432-3.831,5.971-7.338,5.971C258.999,337.363,258.581,337.323,258.168,337.254z M252.677,296.674    c-0.307-4.077,2.781-7.748,6.87-8.08c4.075-0.331,7.754,2.782,8.09,6.86l0,0c0.327,4.319-3.147,8.11-7.489,8.11    C256.298,303.547,252.992,300.521,252.677,296.674z M247.637,264.244c-1.08-4.952,3.115-9.683,8.185-9.091    c5.061,0.592,8.117,6.191,5.86,10.764c-1.255,2.543-3.896,4.187-6.734,4.187C251.482,270.088,248.395,267.634,247.637,264.244z"/>
	</g>
</g>















</svg>
