<?xml version="1.0" encoding="iso-8859-1"?>
<!-- Generator: Adobe Illustrator 19.0.0, SVG Export Plug-In . SVG Version: 6.00 Build 0)  -->
<svg xmlns="http://www.w3.org/2000/svg" xmlns:xlink="http://www.w3.org/1999/xlink" version="1.1" id="Layer_1" x="0px" y="0px" viewBox="0 0 491.128 491.128" style="enable-background:new 0 0 491.128 491.128;" xml:space="preserve" width="512" height="512">
<g>
	<path style="fill:#AD7136;" d="M215.614,106.005l-28.897,38.977l2.002-41.457c1.914-29.293-9.336-60.722-24.874-88.742L200.302,0   C215.732,33.404,224.325,71.384,215.614,106.005z"/>
	<path style="fill:#FFE239;" d="M361.867,333.848c0,86.86-73.02,157.28-163.1,157.28c-90.07,0-163.1-70.42-163.1-157.28   c0-25.35,15.77-58.49,32.11-86.02c16.08-27.12,30.38-55.23,41.62-84.53c6.72-17.51,18.81-32.51,34.35-43.14   c15.54-10.62,34.53-16.86,55.02-16.86c2.36,0,4.7,0.08,7.02,0.25c37.94,2.66,69.69,26.74,82.36,59.75   c11.24,29.3,25.53,57.41,41.62,84.53c5.9,9.94,11.72,20.61,16.75,31.38C355.427,298.268,361.867,317.648,361.867,333.848z"/>
	<path style="fill:#FFB83B;" d="M197.712,491.118c-89.59-0.54-162.04-70.75-162.04-157.27c0-25.35,15.76-58.49,32.1-86.02   c16.09-27.12,30.38-55.23,41.62-84.53c13.44-35.03,48.38-60,89.37-60c-20.68,0-38.32,24.97-45.1,60   c-5.67,29.3-12.88,57.41-21,84.53c-8.24,27.53-16.2,60.67-16.2,86.02C116.462,420.028,152.742,490.028,197.712,491.118z"/>
	<path style="fill:#FFB83B;" d="M346.517,279.208c-34.86-4.86-68.43-20.93-94.86-48.13c-34.3-35.29-49.53-82.05-45.87-127.53   c37.94,2.66,69.69,26.74,82.36,59.75c11.24,29.3,25.53,57.41,41.62,84.53C335.667,257.768,341.487,268.438,346.517,279.208z"/>
	<g>
		<path style="fill:#FF933B;" d="M271.037,441.933c-6.869,0-10.124-8.931-4.762-13.294c5.309-4.319,13.405,0.437,12.128,7.186    C277.742,439.32,274.602,441.933,271.037,441.933z"/>
		<path style="fill:#FF933B;" d="M265.487,415.473c-3.004,0-5.775-1.859-6.93-4.63c-1.275-3.061-0.317-6.745,2.31-8.778    c5.199-4.022,13.048,0.409,12.035,7.01C272.346,412.699,269.162,415.473,265.487,415.473z"/>
		<path style="fill:#FF933B;" d="M288.997,422.342c-6.818,0-10.07-8.813-4.851-13.222c5.268-4.449,13.503,0.32,12.217,7.109    C295.702,419.722,292.556,422.342,288.997,422.342z"/>
	</g>
	<g>
		<path style="fill:#FF933B;" d="M65.547,342.442c-6.738,0-10.029-8.63-4.98-13.103c5.051-4.475,13.277-0.203,12.419,6.522    C72.513,339.575,69.306,342.442,65.547,342.442z"/>
		<path style="fill:#FF933B;" d="M68.177,315.532c-3.207,0-6.112-2.108-7.121-5.147c-1.014-3.055,0.103-6.53,2.709-8.421    c5.542-4.023,13.376,1.239,11.68,7.892C74.605,313.149,71.587,315.532,68.177,315.532z"/>
		<path style="fill:#FF933B;" d="M88.547,329.122c-6.742,0-10.024-8.627-4.98-13.103c5.082-4.51,13.219-0.175,12.422,6.526    C95.547,326.259,92.279,329.122,88.547,329.122z"/>
	</g>
	<path style="fill:#58B741;" d="M284.323,219.985c44.793,30.429,99.264,35.713,146.715,19.041c8.006-2.8,15.805-6.235,23.328-10.271   c6.832-58.791-18.461-119.285-70.809-154.847c-52.349-35.562-117.897-36.785-170.032-8.762c-0.2,1.737-0.379,3.479-0.512,5.222   C208.208,127.499,233.522,185.475,284.323,219.985z"/>
	<path style="fill:#70D65B;" d="M213.012,70.367c84.791,15.674,198.234,119.478,218.026,168.659   c8.006-2.8,15.805-6.235,23.328-10.271c6.832-58.791-18.461-119.285-70.809-154.847c-52.349-35.562-117.897-36.785-170.032-8.762   C213.324,66.882,213.145,68.625,213.012,70.367z"/>
	<path style="fill:#4AA032;" d="M394.7,195.721c-2.066,0-4.124-0.849-5.605-2.514C321.562,117.319,211.82,72.545,210.719,72.101   c-3.842-1.548-5.702-5.917-4.154-9.759c1.548-3.842,5.916-5.701,9.759-4.154c4.627,1.864,114.127,46.557,183.975,125.048   c2.754,3.094,2.478,7.835-0.616,10.588C398.254,195.096,396.474,195.721,394.7,195.721z"/>
	<path style="fill:#4AA032;" d="M288.214,155.301c-3.018,0-5.861-1.833-7.006-4.818L259.397,93.56c-0.848-2.215-0.6-4.7,0.671-6.702   c1.271-2.002,3.414-3.286,5.779-3.461l57.124-4.232c4.12-0.304,7.728,2.795,8.033,6.926s-2.795,7.728-6.926,8.033l-47.065,3.487   l18.202,47.504c1.481,3.868-0.452,8.205-4.32,9.687C290.013,155.141,289.105,155.301,288.214,155.301z"/>
	<path style="fill:#4AA032;" d="M337.295,174.369c-3.528,0-6.672-2.501-7.358-6.095l-6.812-35.672   c-0.396-2.072,0.1-4.215,1.365-5.904c1.265-1.688,3.182-2.766,5.281-2.969l37.939-3.661c4.125-0.398,7.788,2.622,8.186,6.745   c0.398,4.123-2.621,7.788-6.744,8.186l-29.75,2.871l5.269,27.59c0.776,4.069-1.892,7.997-5.961,8.773   C338.235,174.325,337.762,174.369,337.295,174.369z"/>
</g>















</svg>
