<?xml version="1.0" encoding="iso-8859-1"?>
<!-- Generator: Adobe Illustrator 19.0.0, SVG Export Plug-In . SVG Version: 6.00 Build 0)  -->
<svg xmlns="http://www.w3.org/2000/svg" xmlns:xlink="http://www.w3.org/1999/xlink" version="1.1" id="Layer_1" x="0px" y="0px" viewBox="0 0 488.43 488.43" style="enable-background:new 0 0 488.43 488.43;" xml:space="preserve" width="512" height="512">
<g>
	<path style="fill:#58B741;" d="M351.35,62.966c-3.35,0-6.4-2.26-7.264-5.655c-0.608-2.398-1.774-4.95-3.376-7.568   c-9.853,6.96-22.328,10.905-34.728,10.905c-10.496,0-20.148-2.909-27.178-8.19c-8.343-6.268-12.753-15.346-12.753-26.253   c0-21.249,13.737-25.261,19.643-25.999c15.986-1.994,39.849,10.828,56.075,27.112c3.185-5.141,5.078-11.324,5.078-18.497   c0-4.142,3.357-7.5,7.5-7.5s7.5,3.358,7.5,7.5c0,11.385-3.528,21.851-10.108,30.399c3.286,4.821,5.692,9.701,6.886,14.397   c1.02,4.015-1.408,8.096-5.423,9.116C352.583,62.89,351.961,62.966,351.35,62.966z M289.489,14.974   c-0.669,0-1.313,0.038-1.933,0.115c-2.111,0.264-6.504,0.813-6.504,11.115c0,6.091,2.275,10.889,6.763,14.261   c4.448,3.342,10.9,5.183,18.168,5.183c8.836,0,17.917-2.566,25.27-7.533C318.917,25.808,300.819,14.974,289.489,14.974z"/>
	<path style="fill:#4AA032;" d="M225.651,245.787c54.646-54.646,94.581-118.432,119.807-186.436   c7.304-19.691,32.478-25.178,47.339-10.337c0.671,0.67,1.34,1.345,2.006,2.025c98.832,100.866,97.486,263.778-2.931,363.067   c-100.575,99.446-262.724,99.098-362.867-1.046c-0.109-0.109-0.217-0.217-0.326-0.326c-14.739-14.791-9.046-39.876,10.532-47.138   C107.216,340.37,171.003,300.434,225.651,245.787z"/>
	<circle style="fill:#70D65B;" cx="379.313" cy="144.171" r="40.768"/>
	<path style="fill:#58B741;" d="M374.445,173.004c4.88,4.88,10.68,8.26,16.85,10.15c-13.96,4.28-29.76,0.89-40.81-10.15   c-15.92-15.92-15.92-41.74,0-57.66c11.05-11.04,26.85-14.43,40.81-10.15c-6.17,1.89-11.97,5.27-16.85,10.15   C358.526,131.264,358.526,157.084,374.445,173.004z"/>
	<circle style="fill:#70D65B;" cx="363.562" cy="276.818" r="60.898"/>
	<path style="fill:#58B741;" d="M353.08,319.876c7.71,7.71,16.97,12.91,26.77,15.62c-20.45,5.66-43.28,0.45-59.35-15.62   c-23.79-23.78-23.79-62.34,0-86.12c16.07-16.07,38.9-21.28,59.35-15.62c-9.8,2.71-19.06,7.91-26.77,15.62   C329.29,257.536,329.29,296.096,353.08,319.876z"/>
	<circle style="fill:#70D65B;" cx="124.035" cy="399.45" r="40.768"/>
	<path style="fill:#58B741;" d="M119.167,428.277c4.88,4.88,10.68,8.26,16.85,10.15c-13.96,4.28-29.76,0.89-40.81-10.15   c-15.92-15.92-15.92-41.74,0-57.66c11.05-11.04,26.85-14.43,40.81-10.15c-6.17,1.89-11.97,5.27-16.85,10.15   C103.247,386.537,103.247,412.357,119.167,428.277z"/>
	<circle style="fill:#70D65B;" cx="253.151" cy="387.228" r="60.898"/>
	<path style="fill:#58B741;" d="M242.67,430.287c7.71,7.71,16.97,12.91,26.77,15.62c-20.45,5.66-43.28,0.45-59.35-15.62   c-23.79-23.78-23.79-62.34,0-86.12c16.07-16.07,38.9-21.28,59.35-15.62c-9.8,2.71-19.06,7.91-26.77,15.62   C218.88,367.947,218.88,406.507,242.67,430.287z"/>
</g>















</svg>
