<?xml version="1.0" encoding="iso-8859-1"?>
<!-- Generator: Adobe Illustrator 19.0.0, SVG Export Plug-In . SVG Version: 6.00 Build 0)  -->
<svg xmlns="http://www.w3.org/2000/svg" xmlns:xlink="http://www.w3.org/1999/xlink" version="1.1" id="Layer_1" x="0px" y="0px" viewBox="0 0 490.813 490.813" style="enable-background:new 0 0 490.813 490.813;" xml:space="preserve" width="512" height="512">
<g>
	<path style="fill:#70D65B;" d="M385.989,126.66v1.88h-281.15v-1.89c0-26.32,21.33-47.66,47.66-47.66h51.5   c21.76,0,38.46-19.26,35.41-40.8c-1.54-10.97-3.84-21.98-6.73-32.91l17.09-2.16L274.459,0c1.02,13.59,1.1,27.23,0.2,40.83   c-1.36,20.65,14.98,38.16,35.69,38.16h27.96C364.629,78.99,385.989,100.34,385.989,126.66z"/>
	<path style="fill:#58B741;" d="M247.792,62.313c-2.365,13.785-13.919,24.104-27.883,24.884c-29.421,1.645-77.6,8.508-77.6,35.822   c0,1.97-0.22,3.81-0.63,5.52h-36.84v-1.89c0-26.32,21.33-47.66,47.66-47.66h51.5c21.76,0,38.46-19.26,35.41-40.8   c-1.54-10.97-3.84-21.98-6.73-32.91l17.09-2.16C252.542,25.283,250.471,46.7,247.792,62.313z"/>
	<path style="fill:#FF3B6A;" d="M477.174,237.636l-53.216,188.297c-12.166,43.09-54.431,70.441-98.723,63.921   c-6.343-0.931-12.449-2.523-18.25-4.692c-5.411-2.028-10.551-4.55-15.373-7.51c-0.2-0.118-0.401-0.236-0.601-0.365h-91.225   c-0.2,0.118-0.389,0.248-0.589,0.365c-4.834,2.971-9.962,5.494-15.361,7.51c-5.8,2.169-11.907,3.761-18.261,4.692   c-44.292,6.519-86.545-20.831-98.723-63.921L13.634,237.636c-13.758-48.689,18.415-98.381,68.46-105.749l42.594-6.272l17.625-2.594   c6.366-0.931,12.65-1.132,18.768-0.66h168.645c6.119-0.472,12.402-0.271,18.768,0.66l17.637,2.594l42.583,6.272   C458.771,139.255,490.944,188.947,477.174,237.636z"/>
	<path style="fill:#E21E56;" d="M161.082,122.361h27.115c-1.981,0.153-3.961,0.366-5.942,0.66l-17.625,2.594l-42.594,6.272   c-50.045,7.368-82.218,57.06-68.46,105.749l53.217,188.297c9.078,32.126,34.873,55.503,65.76,62.613   c-2.287,0.53-4.621,0.967-6.979,1.308c-44.292,6.519-86.545-20.831-98.723-63.921L13.634,237.636   c-13.758-48.689,18.415-98.381,68.46-105.749l42.594-6.272l17.625-2.594C148.679,122.09,154.963,121.89,161.082,122.361z"/>
	<path style="fill:#E21E56;" d="M201.023,122.361h-12.827C192.535,122.031,196.815,122.031,201.023,122.361z"/>
	<path style="fill:#E21E56;" d="M332.438,204.52l-26.49,203.812c-3.03,23.319-14.477,43.691-31.041,58.25   c-4.598,4.044-9.596,7.628-14.913,10.705h-60.208c-0.2,0.118-0.389,0.248-0.589,0.365c-4.834,2.971-9.962,5.494-15.361,7.51   c-33.375-11.011-58.757-40.319-63.497-76.83L93.848,204.52c-4.055-31.23,8.7-60.361,30.841-78.905l17.625-2.594   c6.366-0.931,12.65-1.132,18.768-0.66h136.389C322.122,140.635,336.741,171.393,332.438,204.52z"/>
	<path style="fill:#E21E56;" d="M396.96,204.52l-26.49,203.812c-3.03,23.319-14.477,43.691-31.041,58.25   c-9.372,8.229-20.384,14.607-32.444,18.58c-5.411-2.028-10.551-4.55-15.373-7.51c-0.2-0.118-0.401-0.236-0.601-0.365h-60.184   c-24.486-14.171-42.099-39.164-45.966-68.955L158.382,204.52c-4.303-33.128,10.304-63.886,34.967-82.159h136.378   c6.119-0.472,12.402-0.271,18.768,0.66l17.637,2.594C388.26,144.16,401.016,173.291,396.96,204.52z"/>
	<path style="fill:#FF3B6A;" d="M277.373,105.111H213.44c-53.14,0-94.173,46.711-87.325,99.408l26.487,203.813   c6.06,46.631,45.781,81.524,92.805,81.524h0c47.023,0,86.745-34.893,92.805-81.524l26.487-203.813   C371.547,151.822,330.513,105.111,277.373,105.111z"/>
	<path style="fill:#E21E56;" d="M263.082,488.179c-5.73,1.096-11.648,1.674-17.672,1.674c-47.027,0-86.745-34.896-92.805-81.522   l-26.49-203.812c-6.85-52.698,34.189-99.407,87.335-99.407h35.332c-53.146,0-94.172,46.709-87.323,99.407l26.479,203.812   C193.219,448.98,224.095,480.717,263.082,488.179z"/>
</g>















</svg>
