<?xml version="1.0" encoding="iso-8859-1"?>
<!-- Generator: Adobe Illustrator 19.0.0, SVG Export Plug-In . SVG Version: 6.00 Build 0)  -->
<svg xmlns="http://www.w3.org/2000/svg" xmlns:xlink="http://www.w3.org/1999/xlink" version="1.1" id="Layer_1" x="0px" y="0px" viewBox="0 0 490.379 490.379" style="enable-background:new 0 0 490.379 490.379;" xml:space="preserve" width="512" height="512">
<g>
	<polygon style="fill:#58B741;" points="489.702,146.85 385.842,179.19 320.852,199.42 291.292,165.6 342.852,0 376.152,69.16    456.612,33.09 420.552,113.55  "/>
	<polygon style="fill:#70D65B;" points="417.852,218.71 295.672,241.192 276.132,199.89 251.892,175.65 271.002,71.85    308.562,136.74 375.162,114.54 352.962,181.14  "/>
	<polygon style="fill:#70D65B;" points="366.718,185.145 404.892,114.31 375.162,114.54 456.612,33.09 420.552,113.55    489.702,146.85  "/>
	<polygon style="fill:#58B741;" points="375.162,114.54 304.112,182.51 276.752,173.39 276.132,199.89 248.94,191.684    271.002,71.85 308.562,136.74  "/>
	<path style="fill:#FFB83B;" d="M318.5,357.031c-4.07,7.65-9.06,14.92-15,21.67c-1.64,1.88-3.36,3.72-5.15,5.51l-26.19,26.19   l-15,14.99l-31.41,31.41c-4.69,4.69-9.69,8.9-14.93,12.6c-9.75,6.91-20.34,12.11-31.35,15.6c-4.93,1.57-9.94,2.79-15,3.66   c-31.37,5.48-64.58-2.17-90.8-22.93c-3.47-2.75-6.82-5.71-10.02-8.92l-29.4-29.4c-27.43-27.43-38.06-65.31-31.86-100.83   c0.87-5.06,2.1-10.07,3.66-15c3.5-11.01,8.69-21.59,15.6-31.34c3.7-5.24,7.91-10.25,12.6-14.94l0.06-0.06l31.34-31.34l14.99-15   l26.2-26.2c1.79-1.79,3.63-3.51,5.51-5.15c6.75-5.94,14.02-10.93,21.66-15c43.34-23.1,98.4-16.38,134.94,20.16l29.4,29.4   c3.21,3.2,6.17,6.55,8.92,10.02C335.83,268.201,339.57,317.491,318.5,357.031z"/>
	<path style="fill:#FFE239;" d="M298.351,384.207l-72.597,72.597c-41.564,41.564-107.107,44.538-152.086,8.922   c-35.63-44.992-32.663-110.529,8.908-152.1l72.597-72.597c41.564-41.564,107.1-44.531,152.093-8.901   C342.882,277.107,339.908,342.651,298.351,384.207z"/>
	<path style="fill:#FF933B;" d="M318.5,311.791v45.24c-4.07,7.65-9.06,14.92-15,21.67v-59.42h-58.36c-4.15,0-7.5-3.36-7.5-7.5   v-58.36l-58.37-0.01c-4.14,0-7.5-3.36-7.5-7.5v-58.36h-59.42c6.75-5.94,14.02-10.93,21.66-15h45.26c4.14,0,7.5,3.36,7.5,7.5v58.36   l58.37,0.01c4.14,0,7.5,3.36,7.5,7.5v58.36l58.36,0.01C315.15,304.291,318.5,307.641,318.5,311.791z"/>
	<path style="fill:#FF933B;" d="M272.16,358.13v52.27l-15,14.99v-59.76l-58.37-0.01c-4.14,0-7.49-3.36-7.49-7.5v-58.36l-58.37-0.01   c-4.14,0-7.5-3.35-7.5-7.5V233.9H65.65l14.99-15h52.29c4.14,0,7.5,3.35,7.5,7.5v58.35l58.37,0.01c4.14,0,7.5,3.36,7.5,7.5v58.36   l58.36,0.01C268.8,350.63,272.16,353.981,272.16,358.13z"/>
	<path style="fill:#FF933B;" d="M225.82,404.471v52.26l-0.07,0.07c-4.69,4.69-9.69,8.9-14.93,12.6v-57.43l-58.37-0.01   c-4.14,0-7.5-3.35-7.5-7.5v-58.36H86.58c-4.14,0-7.49-3.36-7.49-7.5v-58.36H21.65c3.7-5.24,7.91-10.25,12.6-14.94l0.06-0.06h52.28   c4.14,0,7.5,3.36,7.5,7.5v58.36l58.36,0.01c4.14,0,7.5,3.35,7.5,7.5v58.35l58.37,0.01   C222.46,396.971,225.82,400.331,225.82,404.471z"/>
	<path style="fill:#FF933B;" d="M179.47,450.811v34.19c-4.93,1.57-9.94,2.79-15,3.66v-30.35h-58.36c-4.14,0-7.5-3.36-7.5-7.5v-58.36   l-58.37-0.01c-4.14,0-7.5-3.36-7.5-7.5v-58.36H2.39c0.87-5.06,2.1-10.07,3.66-15h34.19c4.14,0,7.5,3.36,7.5,7.5v58.36l58.37,0.01   c4.14,0,7.5,3.36,7.5,7.5v58.36h58.36C176.12,443.311,179.47,446.671,179.47,450.811z"/>
</g>















</svg>
