<?xml version="1.0" encoding="iso-8859-1"?>
<!-- Generator: Adobe Illustrator 19.0.0, SVG Export Plug-In . SVG Version: 6.00 Build 0)  -->
<svg xmlns="http://www.w3.org/2000/svg" xmlns:xlink="http://www.w3.org/1999/xlink" version="1.1" id="Layer_1" x="0px" y="0px" viewBox="0 0 490.621 490.621" style="enable-background:new 0 0 490.621 490.621;" xml:space="preserve" width="512" height="512">
<g>
	<path style="fill:#AD7136;" d="M282.492,66.73c5.53-15.26,15.21-28.97,28.31-39.41c-7.26-9.11-14.52-18.22-21.78-27.32   c-21.79,17.37-36.77,41.23-43.24,67.52l16.857,23.051L282.492,66.73z"/>
	<path style="fill:#654B87;" d="M311.131,63.204c-16.92,0-33.213,3.626-48.492,10.311c-15.279-6.685-31.571-10.311-48.492-10.311   c-87.092,0-157.693,95.681-157.693,213.708s70.602,213.708,157.693,213.708c16.92,0,33.213-3.626,48.492-10.311   c15.279,6.685,31.571,10.311,48.492,10.311c87.092,0,157.693-95.68,157.693-213.708S398.223,63.204,311.131,63.204z"/>
	<path style="fill:#463068;" d="M230.651,489.46c-5.42,0.77-10.93,1.16-16.5,1.16c-87.09,0-157.7-95.68-157.7-213.71   s70.61-213.71,157.7-213.71c5.57,0,11.08,0.39,16.5,1.16c-38.99,11.22-69.4,102.1-69.4,212.55S191.661,478.24,230.651,489.46z"/>
	<path style="fill:#70D65B;" d="M207.331,219.94c-41.08,41.08-97.42,57.61-150.78,49.59c-9-1.34-17.91-3.39-26.65-6.13   c-19.03-60.58-4.55-129.42,43.46-177.43c48.01-48.01,116.84-62.49,177.42-43.45c0.56,1.79,1.1,3.59,1.59,5.4   C268.931,107.16,253.921,173.35,207.331,219.94z"/>
	<path style="fill:#58B741;" d="M252.371,47.92c-86.2,33.58-184.86,165.8-195.82,221.61c-9-1.34-17.91-3.39-26.65-6.13   c-19.03-60.58-4.55-129.42,43.46-177.43c48.01-48.01,116.84-62.49,177.42-43.45C251.341,44.31,251.881,46.11,252.371,47.92z"/>
	<path style="fill:#4AA032;" d="M84.616,216.179c-1.309,0-2.634-0.343-3.839-1.063c-3.556-2.124-4.716-6.729-2.592-10.285   c30.225-50.593,74.433-93.737,106.197-121.021c34.349-29.505,61.215-46.874,62.342-47.599c3.482-2.241,8.121-1.233,10.364,2.249   c2.241,3.483,1.234,8.123-2.248,10.365c-1.072,0.69-107.871,70.116-163.779,163.699C89.658,214.875,87.169,216.179,84.616,216.179z   "/>
	<path style="fill:#4AA032;" d="M188.715,152.153c-0.439,0-0.884-0.039-1.331-0.119c-4.077-0.73-6.791-4.627-6.06-8.705   l9.751-54.448l-51.031,5.881c-4.115,0.475-7.835-2.477-8.309-6.592c-0.474-4.115,2.477-7.835,6.592-8.309l61.05-7.036   c2.355-0.27,4.702,0.587,6.325,2.316c1.624,1.728,2.334,4.123,1.916,6.457l-11.529,64.375   C195.439,149.604,192.278,152.153,188.715,152.153z"/>
	<path style="fill:#4AA032;" d="M140.809,182.125c-4.142,0-7.5-3.358-7.5-7.5v-30.734l-32.525,3.017   c-4.124,0.379-7.779-2.651-8.161-6.775c-0.383-4.125,2.651-7.778,6.775-8.161l40.718-3.777c2.103-0.194,4.187,0.504,5.745,1.925   c1.559,1.421,2.448,3.433,2.448,5.543v38.962C148.309,178.767,144.951,182.125,140.809,182.125z"/>
</g>















</svg>
