<?xml version="1.0" encoding="iso-8859-1"?>
<!-- Generator: Adobe Illustrator 19.0.0, SVG Export Plug-In . SVG Version: 6.00 Build 0)  -->
<svg xmlns="http://www.w3.org/2000/svg" xmlns:xlink="http://www.w3.org/1999/xlink" version="1.1" id="Layer_1" x="0px" y="0px" viewBox="0 0 489.87 489.87" style="enable-background:new 0 0 489.87 489.87;" xml:space="preserve" width="512" height="512">
<g>
	<path style="fill:#70D65B;" d="M244.937,129.906l16.693-35.01c8.5-24.28,9.58-51.74,1.45-78.66c-15.19-0.28-30.04,1.38-44.14,4.88   c13.75,22.44,16.94,49.36,9.57,73.87"/>
	<path style="fill:#70D65B;" d="M350.338,132.956c0-82.776-105.402-31.218-105.402-31.218S139.535,50.18,139.535,132.956"/>
	<path style="fill:#58B741;" d="M244.585,101.564v31.39h-105.05C139.535,52.964,237.975,98.424,244.585,101.564z"/>
	<path style="fill:#FF933B;" d="M489.87,301.784c0,94.93-76.95,171.88-171.88,171.88c-12.53,0-24.75-1.34-36.52-3.89h-73.06   c-11.77,2.55-23.99,3.89-36.53,3.89C76.95,473.664,0,396.714,0,301.784s76.95-171.88,171.88-171.88c12.54,0,24.76,1.34,36.53,3.89   h73.06c11.77-2.55,23.99-3.89,36.52-3.89C412.92,129.904,489.87,206.854,489.87,301.784z"/>
	<path style="fill:#ED761D;" d="M247.58,133.794v335.98h-39.17c-11.77,2.55-23.99,3.89-36.53,3.89   C76.95,473.664,0,396.714,0,301.784s76.95-171.88,171.88-171.88c12.54,0,24.76,1.34,36.53,3.89H247.58z"/>
	<circle style="fill:#FF933B;" cx="220.938" cy="301.785" r="171.879"/>
	<circle style="fill:#ED761D;" cx="261.878" cy="301.785" r="171.879"/>
	<circle style="fill:#FF933B;" cx="244.937" cy="301.785" r="171.879"/>
	<path style="fill:#ED761D;" d="M243.628,473.654c-94.33-0.7-170.57-77.38-170.57-171.87s76.24-171.17,170.57-171.87   c-55.39,1.19-100.08,77.68-100.08,171.87S188.238,472.464,243.628,473.654z"/>
</g>















</svg>
