<?xml version="1.0" encoding="iso-8859-1"?>
<!-- Generator: Adobe Illustrator 19.0.0, SVG Export Plug-In . SVG Version: 6.00 Build 0)  -->
<svg xmlns="http://www.w3.org/2000/svg" xmlns:xlink="http://www.w3.org/1999/xlink" version="1.1" id="Layer_1" x="0px" y="0px" viewBox="0 0 490.001 490.001" style="enable-background:new 0 0 490.001 490.001;" xml:space="preserve" width="512" height="512">
<g>
	<path style="fill:#70D65B;" d="M335.164,147.48h-180.33c-36.9-36.9-61.95-92-24.81-111.54c37.14-19.55,62.55,39.09,62.55,39.09   S192.224,0,245.004,0c52.77,0,52.43,75.03,52.43,75.03s25.41-58.64,62.55-39.09C397.124,55.48,372.074,110.58,335.164,147.48z"/>
	<path style="fill:#58B741;" d="M225.134,147.48h-70.3c-36.9-36.9-61.95-92-24.81-111.54c37.14-19.55,62.55,39.09,62.55,39.09   S192.224,0,245.004,0C210.764,0,222.044,119.65,225.134,147.48z"/>
	<path style="fill:#FF3B6A;" d="M154.835,147.484c56.551-28.716,123.78-28.716,180.331,0   c39.743,20.181,77.594,55.975,77.594,119.113c0,148.561-158.335,121.194-167.76,223.403   c-9.425-102.209-167.76-74.843-167.76-223.403C77.241,203.459,115.092,167.665,154.835,147.484z"/>
	<path style="fill:#E21E56;" d="M166.801,266.598c0,148.56,73.81,121.19,78.2,223.4c-9.43-102.21-167.76-74.84-167.76-223.4   c0-63.14,37.85-98.93,77.59-119.12c28.27-14.35,59.22-21.53,90.17-21.53c-14.42,0-28.85,7.18-42.03,21.53   C184.451,167.667,166.801,203.458,166.801,266.598z"/>
	<path style="fill:#E6E6E6;" d="M349.871,384.591c-45.34,30.87-99.48,46.93-104.87,105.41c-5.4-58.48-59.54-74.54-104.88-105.41   c26.89-26.75,63.96-43.29,104.88-43.29S322.98,357.841,349.871,384.591z"/>
	<path style="fill:#CCCCCC;" d="M245.001,490.001c-5.4-58.48-59.54-74.54-104.88-105.41c11.76-11.7,25.45-21.44,40.57-28.7   C202.291,409.931,241.821,416.031,245.001,490.001z"/>
	<path style="fill:#E6E6E6;" d="M140.884,227.286h-36.163c-4.142,0-7.5-3.358-7.5-7.5s3.358-7.5,7.5-7.5h36.163   c4.142,0,7.5,3.358,7.5,7.5S145.026,227.286,140.884,227.286z"/>
	<path style="fill:#E6E6E6;" d="M347.313,297.555h-50.546c-4.143,0-7.5-3.358-7.5-7.5s3.357-7.5,7.5-7.5h50.546   c4.143,0,7.5,3.358,7.5,7.5S351.456,297.555,347.313,297.555z"/>
	<path style="fill:#E6E6E6;" d="M198.252,311.238h-29.304c-4.142,0-7.5-3.358-7.5-7.5s3.358-7.5,7.5-7.5h29.304   c4.142,0,7.5,3.358,7.5,7.5S202.394,311.238,198.252,311.238z"/>
	<path style="fill:#E6E6E6;" d="M283.421,201.389h-50.546c-4.142,0-7.5-3.358-7.5-7.5s3.358-7.5,7.5-7.5h50.546   c4.143,0,7.5,3.358,7.5,7.5S287.563,201.389,283.421,201.389z"/>
</g>















</svg>
