<?xml version="1.0" encoding="iso-8859-1"?>
<!-- Generator: Adobe Illustrator 19.0.0, SVG Export Plug-In . SVG Version: 6.00 Build 0)  -->
<svg xmlns="http://www.w3.org/2000/svg" xmlns:xlink="http://www.w3.org/1999/xlink" version="1.1" id="Layer_1" x="0px" y="0px" viewBox="0 0 489.65 489.65" style="enable-background:new 0 0 489.65 489.65;" xml:space="preserve" width="512" height="512">
<g>
	<path style="fill:#70D65B;" d="M366.968,40.86c-23.01,17.05-46.77,40.08-62.43,66.01L293.018,91l-14.01-19.32   c13.64-27.24,33.61-51.37,58.86-70.08c3.86,5.21,7.73,10.42,11.59,15.64C355.297,25.11,361.127,32.98,366.968,40.86z"/>
	<path style="fill:#58B741;" d="M349.458,17.24c-16.25,10.71-44.67,34.28-56.44,73.76l-14.01-19.32   c13.64-27.24,33.61-51.37,58.86-70.08C341.728,6.81,345.597,12.02,349.458,17.24z"/>
	<path style="fill:#FF3B6A;" d="M460.753,258.098c0-107.177-86.884-156.572-194.061-156.572S72.632,150.921,72.632,258.098   s116.877,231.55,194.061,231.55C341.671,489.648,460.753,365.275,460.753,258.098z"/>
	<path style="fill:#E21E56;" d="M266.692,489.65c-77.19,0-194.06-124.38-194.06-231.55c0-107.18,86.88-156.57,194.06-156.57   c-50.33,0-91.13,49.39-91.13,156.57C175.562,365.27,230.442,489.65,266.692,489.65z"/>
	<path style="fill:#E21E56;" d="M193.121,372.73c-12.344-54.021-19.869-117.194,68.506-95.81l-2.846-78.959l-127.71-20.851"/>
	<path style="fill:#70D65B;" d="M318.73,167.014c0,45.44-22.57,85.61-57.1,109.91c-19.82-13.95-35.69-33.13-45.62-55.53   c-3.06,3.51-6.24,6.95-9.58,10.3c-47.5,47.49-113.08,65.89-174.58,55.2c-10.7-61.51,7.7-127.09,55.2-174.59   c3.34-3.34,6.78-6.52,10.29-9.57c-22.4-9.94-41.58-25.8-55.53-45.63c24.31-34.53,64.47-57.1,109.91-57.1   c39.41,0,74.86,16.98,99.42,44.02c2.06,2.27,4.05,4.6,5.95,7.01c1.57,1.98,3.09,4,4.54,6.07c2.07,1.46,4.09,2.97,6.07,4.53   C298.78,86.244,318.73,124.294,318.73,167.014z"/>
	<path style="fill:#58B741;" d="M251.137,44.02v0.01c-26.24-11.57-53.33,13.04-53.33,44.96c0,0-42.53,0.22-42.53,51.99   c0,0-40.22,6.78-123.43,145.91c-10.7-61.51,7.7-127.09,55.2-174.59c3.34-3.34,6.78-6.52,10.29-9.57   c-22.4-9.94-41.58-25.8-55.53-45.63C66.117,22.57,106.277,0,151.718,0C191.127,0,226.578,16.98,251.137,44.02z"/>
	<path style="fill:#4AA032;" d="M267.7,61.634l-124.08,124.09c-1.47,1.46-3.39,2.19-5.31,2.19c-1.92,0-3.84-0.73-5.3-2.19   c-2.93-2.93-2.93-7.68,0-10.61l124.08-124.08c1.57,1.98,3.09,4,4.54,6.07C263.7,58.564,265.72,60.074,267.7,61.634z"/>
	<path style="fill:#4AA032;" d="M242.149,165.927c-3.146,0-6.076-1.995-7.119-5.145l-19.17-57.912l-57.911-19.17   c-3.933-1.302-6.065-5.545-4.764-9.477c1.302-3.932,5.544-6.065,9.477-4.763l61.49,20.354c2.252,0.745,4.019,2.512,4.764,4.763   l20.354,61.49c1.302,3.932-0.831,8.175-4.764,9.477C243.724,165.804,242.93,165.927,242.149,165.927z"/>
	<path style="fill:#4AA032;" d="M187.703,201.015c-3.146,0-6.076-1.995-7.119-5.145l-14.355-43.368l-43.367-14.355   c-3.933-1.302-6.065-5.545-4.764-9.477c1.302-3.932,5.544-6.065,9.477-4.763l46.946,15.54c2.252,0.745,4.019,2.512,4.764,4.763   l15.54,46.946c1.302,3.932-0.831,8.175-4.764,9.477C189.279,200.892,188.485,201.015,187.703,201.015z"/>
	<g>
		<path style="fill:#E21E56;" d="M266.693,454.022c-10.603,0-21.697-7.201-22.388-20.963c-0.027-0.551-0.041-1.095-0.041-1.643    c0-12.87,7.627-24.514,19.43-29.664c1.912-0.834,4.086-0.834,5.998,0c11.803,5.15,19.43,16.793,19.43,29.664    c0,0.548-0.014,1.093-0.04,1.633C288.39,446.821,277.295,454.022,266.693,454.022z M266.693,417.179    c-4.597,3.207-7.429,8.495-7.429,14.237c0,0.302,0.008,0.602,0.022,0.901c0.32,6.381,6.226,6.705,7.406,6.705    s7.086-0.324,7.407-6.715c0.014-0.288,0.021-0.589,0.021-0.891C274.121,425.674,271.289,420.386,266.693,417.179z"/>
		<path style="fill:#FFE239;" d="M266.693,408.626c-8.786,3.833-14.929,12.592-14.929,22.79c0,0.425,0.011,0.847,0.032,1.267    c0.927,18.451,28.867,18.451,29.794,0c0.021-0.42,0.032-0.842,0.032-1.267C281.621,421.218,275.478,412.459,266.693,408.626z"/>
	</g>
	<g>
		<g>
			<path style="fill:#E21E56;" d="M318.468,315.697c-10.602,0-21.696-7.201-22.387-20.963c-0.028-0.54-0.042-1.09-0.042-1.643     c0-12.871,7.627-24.514,19.431-29.664c1.912-0.834,4.086-0.834,5.998,0c11.803,5.15,19.43,16.793,19.43,29.664     c0,0.553-0.014,1.104-0.042,1.65C340.165,308.497,329.07,315.697,318.468,315.697z M318.469,278.854     c-4.599,3.207-7.43,8.495-7.43,14.237c0,0.296,0.008,0.591,0.022,0.883c0.321,6.398,6.227,6.722,7.406,6.722     c1.181,0,7.086-0.324,7.407-6.715c0.015-0.3,0.022-0.594,0.022-0.891C325.898,287.349,323.067,282.062,318.469,278.854z"/>
			<path style="fill:#FFE239;" d="M318.469,270.302c-8.786,3.833-14.929,12.592-14.929,22.79c0,0.425,0.011,0.847,0.032,1.267     c0.927,18.451,28.867,18.451,29.794,0c0.021-0.42,0.032-0.842,0.032-1.267C333.397,282.894,327.254,274.135,318.469,270.302z"/>
		</g>
		<g>
			<path style="fill:#E21E56;" d="M214.917,314.394c-10.603,0-21.697-7.2-22.388-20.962c-0.028-0.54-0.042-1.09-0.042-1.643     c0-12.871,7.627-24.514,19.431-29.664c1.912-0.834,4.086-0.834,5.998,0c11.803,5.15,19.43,16.793,19.43,29.664     c0,0.554-0.014,1.104-0.042,1.651C236.613,307.194,225.519,314.394,214.917,314.394z M214.917,277.551     c-4.599,3.207-7.43,8.495-7.43,14.237c0,0.296,0.008,0.591,0.022,0.884c0.321,6.398,6.227,6.722,7.407,6.722     c1.18,0,7.085-0.324,7.406-6.715c0.015-0.3,0.022-0.594,0.022-0.891C222.346,286.046,219.515,280.758,214.917,277.551z"/>
			<path style="fill:#FFE239;" d="M214.917,268.999c-8.786,3.833-14.929,12.592-14.929,22.79c0,0.425,0.011,0.847,0.032,1.267     c0.927,18.451,28.867,18.451,29.794,0c0.021-0.42,0.032-0.842,0.032-1.267C229.846,281.591,223.702,272.832,214.917,268.999z"/>
		</g>
	</g>
	<g>
		<path style="fill:#E21E56;" d="M377.13,224.512c-10.603,0-21.697-7.201-22.388-20.963c-0.027-0.551-0.041-1.095-0.041-1.643    c0-12.87,7.627-24.514,19.43-29.664c1.912-0.834,4.086-0.834,5.998,0c11.803,5.15,19.43,16.793,19.43,29.664    c0,0.548-0.014,1.092-0.04,1.633C398.827,217.311,387.733,224.512,377.13,224.512z M377.13,187.669    c-4.597,3.207-7.429,8.495-7.429,14.237c0,0.302,0.008,0.602,0.022,0.901c0.32,6.381,6.226,6.705,7.406,6.705    s7.086-0.324,7.407-6.715c0.014-0.288,0.021-0.589,0.021-0.891C384.559,196.164,381.727,190.876,377.13,187.669z"/>
		<path style="fill:#FFE239;" d="M377.13,179.117c-8.786,3.833-14.929,12.592-14.929,22.79c0,0.425,0.011,0.847,0.032,1.267    c0.927,18.451,28.867,18.451,29.794,0c0.021-0.42,0.032-0.842,0.032-1.267C392.059,191.709,385.916,182.95,377.13,179.117z"/>
	</g>
	<g>
		<g>
			<path style="fill:#E21E56;" d="M172.216,388.887c-10.603,0-21.698-7.2-22.389-20.962c-0.027-0.551-0.041-1.095-0.041-1.643     c0-12.87,7.627-24.514,19.43-29.664c1.912-0.834,4.086-0.834,5.998,0c11.803,5.15,19.43,16.793,19.43,29.664     c0,0.554-0.014,1.104-0.042,1.651C193.911,381.686,182.818,388.887,172.216,388.887z M172.215,352.044     c-4.597,3.207-7.429,8.495-7.429,14.237c0,0.302,0.008,0.603,0.022,0.901c0.32,6.381,6.226,6.705,7.406,6.705     s7.085-0.324,7.406-6.714c0.015-0.3,0.022-0.595,0.022-0.891C179.644,360.539,176.812,355.251,172.215,352.044z"/>
			<path style="fill:#FFE239;" d="M172.215,343.492c-8.786,3.833-14.929,12.592-14.929,22.79c0,0.425,0.011,0.847,0.032,1.267     c0.927,18.451,28.867,18.451,29.794,0c0.021-0.42,0.032-0.842,0.032-1.267C187.144,356.083,181,347.325,172.215,343.492z"/>
		</g>
		<g>
			<path style="fill:#E21E56;" d="M361.171,388.887c-10.603,0-21.697-7.2-22.388-20.962c-0.028-0.54-0.042-1.09-0.042-1.643     c0-12.87,7.627-24.514,19.43-29.664c1.912-0.834,4.086-0.834,5.998,0c11.803,5.149,19.43,16.793,19.43,29.664     c0,0.554-0.013,1.104-0.041,1.651C382.867,381.686,371.773,388.887,361.171,388.887z M361.17,352.044     c-4.598,3.207-7.429,8.495-7.429,14.237c0,0.296,0.008,0.591,0.022,0.884c0.321,6.398,6.227,6.722,7.407,6.722     c1.18,0,7.085-0.324,7.406-6.715c0.015-0.3,0.021-0.594,0.021-0.891C368.599,360.538,365.768,355.251,361.17,352.044z"/>
			<path style="fill:#FFE239;" d="M361.171,343.492c-8.786,3.833-14.929,12.592-14.929,22.79c0,0.425,0.011,0.847,0.032,1.267     c0.927,18.451,28.867,18.451,29.794,0c0.021-0.42,0.032-0.842,0.032-1.267C376.099,356.083,369.956,347.325,361.171,343.492z"/>
		</g>
	</g>
</g>















</svg>
