<?xml version="1.0" encoding="iso-8859-1"?>
<!-- Generator: Adobe Illustrator 19.0.0, SVG Export Plug-In . SVG Version: 6.00 Build 0)  -->
<svg xmlns="http://www.w3.org/2000/svg" xmlns:xlink="http://www.w3.org/1999/xlink" version="1.1" id="Layer_1" x="0px" y="0px" viewBox="0 0 482.978 482.978" style="enable-background:new 0 0 482.978 482.978;" xml:space="preserve" width="512" height="512">
<g>
	<path style="fill:#70D65B;" d="M272.642,73.52v95.34l-62.31-19.54v-75.8c-1.26-4.74-1.14-9.21-0.07-13.51   c5.05-20.36,31.23-36.96,31.23-60.01c0,23.05,26.18,39.65,31.22,60.02C273.782,64.32,273.902,68.79,272.642,73.52z"/>
	<path style="fill:#58B741;" d="M272.642,73.52v68.08l-30.9-0.25l-31.41-26.31V73.52c-1.26-4.74-1.14-9.21-0.07-13.51   c13.9,7.28,27.11,15.87,31.23,45.9c4.12-30.03,17.33-38.61,31.22-45.89C273.782,64.32,273.902,68.79,272.642,73.52z"/>
	<path style="fill:#58B741;" d="M186.904,108.89c-43.113,0-23.565-82.271-78.298-108.886c0,0,52.778,0.751,68.416,41.801   s56.608,20.257,64.467,77.567"/>
	<path style="fill:#70D65B;" d="M296.074,108.89c43.113,0,23.565-82.271,78.298-108.886c0,0-52.778,0.751-68.416,41.801   s-56.608,20.257-64.467,77.567"/>
	<path style="fill:#FF3B6A;" d="M241.489,114.371c143.96-41.701,212.973,38.012,212.973,155.634s-95.351,212.973-212.973,212.973   S28.516,387.627,28.516,270.005S97.529,72.67,241.489,114.371z"/>
	<path style="fill:#E21E56;" d="M203.549,261.372c-7.71,9.07-15.06,21.93-15.06,38.02c0,26.424,19.82,56.822,28.528,103.554   c2.707,14.527-11.111,26.818-25.182,22.306C126.181,404.2,78.519,342.567,78.519,270.002c0-37.81,8.36-68.41,24.19-88.48   c15.04-19.08,37.01-28.36,67.14-28.36c0.154,0,0.308,0,0.462,0.001c28.11,0.091,50.748,23.154,50.748,51.264v8.435   C221.059,230.582,215.039,247.882,203.549,261.372z"/>
	<path style="fill:#E21E56;" d="M404.459,270.002c0,72.567-47.664,134.208-113.328,155.255c-14.071,4.51-27.888-7.781-25.18-22.307   c8.71-46.734,28.538-77.133,28.538-103.557c0-16.09-7.35-28.95-15.07-38.02c-11.48-13.49-17.51-30.79-17.51-48.51v-8.435   c0-28.11,22.639-51.171,50.749-51.264c0.157-0.001,0.314-0.001,0.471-0.001c30.14,0,52.1,9.28,67.14,28.35   C396.099,201.582,404.459,232.182,404.459,270.002z"/>
	<g>
		<path style="fill:#FF3B6A;" d="M312.752,190.66c-6.611,0-9.968-8.367-5.166-12.925c2.286-2.17,5.762-2.675,8.574-1.252    c2.826,1.43,4.498,4.649,4.018,7.784C319.621,187.9,316.429,190.66,312.752,190.66z"/>
		<path style="fill:#FF3B6A;" d="M319.322,377.95c-3.503-4.308-1.072-10.971,4.332-12.068c5.429-1.102,10.238,4.113,8.697,9.435    c-0.915,3.161-3.903,5.413-7.198,5.413C322.902,380.719,320.74,379.703,319.322,377.95z M341.572,357.749    c-4.61-3.631-3.299-11.2,2.295-13.029c5.521-1.805,11.017,3.348,9.611,8.968c-0.824,3.293-3.886,5.661-7.277,5.661    C344.53,359.35,342.889,358.78,341.572,357.749z M358.773,333.1c-4.426-2.089-5.687-8.002-2.477-11.704    c3.152-3.635,9.073-3.325,11.822,0.629c1.516,2.182,1.764,5.068,0.635,7.475l0,0c-1.228,2.609-3.917,4.31-6.8,4.31    C360.856,333.805,359.766,333.563,358.773,333.1z M369.972,305.209c-4.749-1.008-7.323-6.431-5.111-10.752    c2.223-4.341,8.176-5.411,11.76-2.097c1.928,1.783,2.797,4.51,2.251,7.079l0,0c-0.742,3.408-3.817,5.94-7.32,5.94    C371.021,305.376,370.492,305.318,369.972,305.209z M366.952,268.08c-0.048-4.952,4.841-8.658,9.598-7.273    c4.669,1.359,6.838,6.968,4.296,11.115c-1.353,2.207-3.803,3.588-6.394,3.588C370.395,275.492,366.992,272.149,366.952,268.08z     M364.442,239.41c-0.859-4.979,3.484-9.509,8.515-8.744c4.961,0.755,7.836,6.323,5.565,10.803    c-1.267,2.499-3.896,4.121-6.701,4.121C368.235,245.574,365.076,242.95,364.442,239.41z M356.052,212.97    c-2.488-4.581,0.827-10.418,5.963-10.898c5.32-0.497,9.521,4.815,7.807,9.878c-1.018,3.008-3.917,5.09-7.1,5.09    C359.938,217.039,357.324,215.446,356.052,212.97z M338.972,195.24c-3.557-1.824-5.386-6.029-3.706-9.831    c1.674-3.789,6.254-5.53,10.017-3.779l0,0c3.051,1.428,4.826,4.801,4.229,8.126c-0.635,3.536-3.799,6.174-7.389,6.174    C341.038,195.925,339.957,195.693,338.972,195.24z"/>
		<path style="fill:#FF3B6A;" d="M299.852,396.95c-6.814,0-10.074-8.804-4.841-13.222c2.338-1.974,5.72-2.323,8.412-0.871    c2.935,1.583,4.488,5.037,3.731,8.283C306.371,394.499,303.308,396.95,299.852,396.95z"/>
	</g>
	<g>
		<path style="fill:#FF3B6A;" d="M170.222,190.66c-6.75,0-10.036-8.61-4.986-13.103c5.109-4.545,13.441-0.072,12.402,6.709    C177.082,187.894,173.902,190.66,170.222,190.66z"/>
		<path style="fill:#FF3B6A;" d="M153.102,379.05c-4.563-3.7-3.121-11.25,2.504-12.985c5.51-1.699,10.941,3.461,9.481,9.052    c-0.853,3.267-3.887,5.612-7.265,5.612C156.11,380.729,154.43,380.129,153.102,379.05z M130.872,356.479    c-2.512-3.227-1.956-7.997,1.27-10.53c3.216-2.526,8.006-1.946,10.53,1.27l0,0c3.77,4.819,0.262,12.13-5.899,12.13    C134.485,359.338,132.285,358.286,130.872,356.479z M114.233,329.499c-1.749-3.694-0.105-8.241,3.59-9.98    c3.697-1.74,8.244-0.098,9.979,3.6l0,0c2.288,4.875-1.365,10.69-6.779,10.69C118.142,333.809,115.452,332.112,114.233,329.499z     M104.102,299.439c-1.054-4.967,3.232-9.646,8.277-9.006c5.054,0.641,8.057,6.276,5.753,10.825c-1.266,2.5-3.893,4.121-6.7,4.121    C107.939,305.364,104.831,302.863,104.102,299.439z M108.462,275.51c-3.128-0.03-5.971-2.071-7.009-5.02    c-1.048-2.979-0.063-6.387,2.405-8.353c5.34-4.252,13.339,0.62,12.036,7.309c-0.677,3.475-3.822,6.063-7.362,6.063    C108.509,275.51,108.485,275.51,108.462,275.51z M109.822,245.47c-6.565-1.175-8.341-10.073-2.741-13.689    c5.51-3.558,12.789,1.506,11.396,7.907c-0.74,3.4-3.844,5.903-7.325,5.903C110.707,245.589,110.261,245.548,109.822,245.47z     M116.822,216.209c-4.35-2.245-5.387-8.208-2.05-11.791c3.278-3.521,9.191-2.988,11.791,1.06c1.437,2.238,1.577,5.135,0.359,7.501    l0,0c-1.275,2.474-3.888,4.06-6.67,4.06C119.061,217.033,117.885,216.75,116.822,216.209z M134.042,191.58    c-2.22-4.784,1.275-10.463,6.548-10.643c5.228-0.178,9.1,5.163,7.299,10.076c-1.071,2.923-3.919,4.916-7.038,4.916    C137.956,195.93,135.259,194.206,134.042,191.58z"/>
		<path style="fill:#FF3B6A;" d="M183.122,396.95c-3.194,0-6.125-2.113-7.116-5.148c-0.951-2.913-0.023-6.204,2.361-8.146    c5.315-4.33,13.395,0.459,12.122,7.181C189.827,394.332,186.69,396.95,183.122,396.95z"/>
	</g>
</g>















</svg>
