<svg width="95" height="44" viewBox="0 0 95 44" fill="none" xmlns="http://www.w3.org/2000/svg">
<path d="M13.0044 10.792C13.4204 10.792 13.7724 10.896 14.0604 11.104C14.3484 11.296 14.4924 11.536 14.4924 11.824C14.4924 12.336 14.3324 12.752 14.0124 13.072C13.6924 13.376 13.2364 13.528 12.6444 13.528C11.7164 13.528 11.0124 13.536 10.5324 13.552C10.5004 13.744 10.3564 14.608 10.1004 16.144C9.81244 17.856 9.63644 18.904 9.57244 19.288L9.06844 22.432C8.71644 24.784 8.43644 26.752 8.22844 28.336C8.56444 28.32 9.02044 28.312 9.59644 28.312C10.4444 28.312 11.0204 28.424 11.3244 28.648C11.6284 28.872 11.7804 29.208 11.7804 29.656C11.7804 30.072 11.6124 30.424 11.2764 30.712C10.9564 31 10.5004 31.144 9.90844 31.144C9.50844 31.144 8.87644 31.128 8.01244 31.096C7.21244 31.064 6.68444 31.048 6.42844 31.048C5.42044 31.048 4.31644 31.136 3.11644 31.312C2.58844 31.392 2.21244 31.432 1.98844 31.432C1.63644 31.432 1.34044 31.336 1.10044 31.144C0.860437 30.952 0.740437 30.672 0.740437 30.304C0.740437 29.728 0.996437 29.28 1.50844 28.96C2.02044 28.64 2.74044 28.472 3.66844 28.456L4.79644 28.432L4.86844 27.904C5.25244 25.344 5.53244 23.536 5.70844 22.48L6.23644 19.336C6.55644 17.48 6.84444 15.568 7.10044 13.6L5.08444 13.624C4.50844 13.624 4.10844 13.536 3.88444 13.36C3.67644 13.168 3.57244 12.904 3.57244 12.568C3.57244 11.48 4.35644 10.896 5.92444 10.816C6.66044 10.784 7.55644 10.768 8.61244 10.768L13.0044 10.792ZM15.8873 31.12C15.2793 31.12 14.8473 30.8 14.5913 30.16C14.3513 29.52 14.2313 28.496 14.2313 27.088C14.2313 25.008 14.5273 23.032 15.1193 21.16C15.2633 20.696 15.4953 20.36 15.8153 20.152C16.1513 19.928 16.6153 19.816 17.2073 19.816C17.5273 19.816 17.7513 19.856 17.8793 19.936C18.0073 20.016 18.0713 20.168 18.0713 20.392C18.0713 20.648 17.9513 21.224 17.7113 22.12C17.5513 22.76 17.4233 23.32 17.3273 23.8C17.2313 24.28 17.1513 24.872 17.0873 25.576C17.6153 24.2 18.2073 23.08 18.8633 22.216C19.5193 21.352 20.1593 20.736 20.7833 20.368C21.4233 20 22.0073 19.816 22.5353 19.816C23.5753 19.816 24.0953 20.336 24.0953 21.376C24.0953 22 23.9193 23.128 23.5673 24.76C23.2633 26.152 23.1113 27.072 23.1113 27.52C23.1113 28.16 23.3433 28.48 23.8073 28.48C24.1273 28.48 24.5033 28.288 24.9353 27.904C25.3833 27.504 25.9753 26.864 26.7113 25.984C26.9033 25.76 27.1193 25.648 27.3593 25.648C27.5673 25.648 27.7273 25.744 27.8393 25.936C27.9673 26.128 28.0312 26.392 28.0312 26.728C28.0312 27.368 27.8793 27.864 27.5753 28.216C26.8873 29.064 26.1433 29.76 25.3433 30.304C24.5593 30.848 23.6633 31.12 22.6553 31.12C21.8393 31.12 21.2233 30.888 20.8073 30.424C20.3913 29.944 20.1833 29.256 20.1833 28.36C20.1833 27.912 20.2953 27.112 20.5193 25.96C20.7273 24.952 20.8313 24.256 20.8313 23.872C20.8313 23.616 20.7433 23.488 20.5673 23.488C20.3593 23.488 20.0633 23.76 19.6793 24.304C19.3113 24.832 18.9273 25.536 18.5273 26.416C18.1433 27.296 17.8313 28.224 17.5913 29.2C17.4153 29.952 17.2073 30.464 16.9673 30.736C16.7433 30.992 16.3833 31.12 15.8873 31.12ZM32.7855 31.192C30.6575 31.192 28.9535 30.792 27.6735 29.992C26.3935 29.176 25.7535 27.936 25.7535 26.272C25.7535 25.392 25.9055 24.72 26.2095 24.256C26.5135 23.792 26.9615 23.56 27.5535 23.56C27.9855 23.56 28.3375 23.672 28.6095 23.896C28.8815 24.12 29.0175 24.408 29.0175 24.76C29.0175 25.08 28.9935 25.36 28.9455 25.6C28.9455 25.664 28.9295 25.776 28.8975 25.936C28.8815 26.096 28.8735 26.264 28.8735 26.44C28.8735 27.16 29.2335 27.696 29.9535 28.048C30.6895 28.4 31.7135 28.576 33.0255 28.576C34.3855 28.576 35.4495 28.336 36.2175 27.856C36.9855 27.36 37.3695 26.672 37.3695 25.792C37.3695 25.248 37.1935 24.784 36.8415 24.4C36.4895 24 36.0495 23.672 35.5215 23.416C34.9935 23.144 34.2495 22.816 33.2895 22.432C32.0575 21.952 31.0495 21.496 30.2655 21.064C29.4975 20.632 28.8335 20.048 28.2735 19.312C27.7295 18.56 27.4575 17.632 27.4575 16.528C27.4575 15.376 27.7615 14.352 28.3695 13.456C28.9935 12.56 29.8815 11.864 31.0335 11.368C32.2015 10.872 33.5695 10.624 35.1375 10.624C36.3055 10.624 37.3775 10.8 38.3535 11.152C39.3295 11.488 40.1055 12.008 40.6815 12.712C41.2735 13.416 41.5695 14.28 41.5695 15.304C41.5695 16.312 41.4175 17.072 41.1135 17.584C40.8095 18.096 40.3615 18.352 39.7695 18.352C39.3535 18.352 39.0015 18.224 38.7135 17.968C38.4415 17.712 38.3055 17.408 38.3055 17.056C38.3055 16.752 38.3295 16.472 38.3775 16.216C38.4255 15.736 38.4495 15.432 38.4495 15.304C38.4495 14.632 38.1215 14.12 37.4655 13.768C36.8095 13.416 35.9935 13.24 35.0175 13.24C33.6415 13.24 32.5855 13.496 31.8495 14.008C31.1295 14.504 30.7695 15.208 30.7695 16.12C30.7695 16.728 30.9535 17.248 31.3215 17.68C31.7055 18.112 32.1775 18.472 32.7375 18.76C33.2975 19.048 34.0815 19.392 35.0895 19.792C36.3055 20.288 37.2815 20.736 38.0175 21.136C38.7535 21.536 39.3775 22.08 39.8895 22.768C40.4175 23.456 40.6815 24.304 40.6815 25.312C40.6815 27.2 39.9615 28.656 38.5215 29.68C37.0975 30.688 35.1855 31.192 32.7855 31.192ZM53.4341 25.648C53.6421 25.648 53.8021 25.744 53.9141 25.936C54.0421 26.128 54.1061 26.392 54.1061 26.728C54.1061 27.368 53.9541 27.864 53.6501 28.216C53.0581 28.936 52.2181 29.6 51.1301 30.208C50.0581 30.816 48.9061 31.12 47.6741 31.12C45.9941 31.12 44.6901 30.664 43.7621 29.752C42.8341 28.84 42.3701 27.592 42.3701 26.008C42.3701 24.904 42.6021 23.88 43.0661 22.936C43.5301 21.976 44.1701 21.216 44.9861 20.656C45.8181 20.096 46.7541 19.816 47.7941 19.816C48.7221 19.816 49.4661 20.096 50.0261 20.656C50.5861 21.2 50.8661 21.944 50.8661 22.888C50.8661 23.992 50.4661 24.944 49.6661 25.744C48.8821 26.528 47.5461 27.152 45.6581 27.616C46.0581 28.352 46.8181 28.72 47.9381 28.72C48.6581 28.72 49.4741 28.472 50.3861 27.976C51.3141 27.464 52.1141 26.8 52.7861 25.984C52.9781 25.76 53.1941 25.648 53.4341 25.648ZM47.3861 22.168C46.7941 22.168 46.2901 22.512 45.8741 23.2C45.4741 23.888 45.2741 24.72 45.2741 25.696V25.744C46.2181 25.52 46.9621 25.184 47.5061 24.736C48.0501 24.288 48.3221 23.768 48.3221 23.176C48.3221 22.872 48.2341 22.632 48.0581 22.456C47.8981 22.264 47.6741 22.168 47.3861 22.168ZM54.9868 31.12C53.9948 31.12 53.2028 30.76 52.6108 30.04C52.0188 29.32 51.7228 28.376 51.7228 27.208C51.7228 25.928 52.0188 24.72 52.6108 23.584C53.2028 22.432 53.9868 21.512 54.9628 20.824C55.9548 20.12 57.0028 19.768 58.1068 19.768C58.4588 19.768 58.6908 19.84 58.8028 19.984C58.9308 20.112 59.0348 20.352 59.1148 20.704C59.4508 20.64 59.8028 20.608 60.1708 20.608C60.9548 20.608 61.3468 20.888 61.3468 21.448C61.3468 21.784 61.2268 22.584 60.9868 23.848C60.6188 25.688 60.4348 26.968 60.4348 27.688C60.4348 27.928 60.4908 28.12 60.6028 28.264C60.7308 28.408 60.8908 28.48 61.0828 28.48C61.3868 28.48 61.7548 28.288 62.1868 27.904C62.6188 27.504 63.2028 26.864 63.9388 25.984C64.1308 25.76 64.3468 25.648 64.5868 25.648C64.7948 25.648 64.9548 25.744 65.0668 25.936C65.1948 26.128 65.2588 26.392 65.2588 26.728C65.2588 27.368 65.1068 27.864 64.8028 28.216C64.1468 29.032 63.4508 29.72 62.7148 30.28C61.9788 30.84 61.2668 31.12 60.5788 31.12C60.0508 31.12 59.5628 30.944 59.1148 30.592C58.6828 30.224 58.3548 29.728 58.1308 29.104C57.2988 30.448 56.2508 31.12 54.9868 31.12ZM55.8508 28.696C56.2028 28.696 56.5388 28.488 56.8588 28.072C57.1788 27.656 57.4108 27.104 57.5548 26.416L58.4428 22C57.7708 22.016 57.1468 22.272 56.5708 22.768C56.0108 23.248 55.5628 23.888 55.2268 24.688C54.8908 25.488 54.7228 26.336 54.7228 27.232C54.7228 27.728 54.8188 28.096 55.0108 28.336C55.2188 28.576 55.4988 28.696 55.8508 28.696ZM67.7723 31.648C66.9403 31.648 66.3003 31.456 65.8523 31.072C65.4203 30.688 65.2043 30.256 65.2043 29.776C65.2043 29.36 65.3563 29 65.6603 28.696C65.9643 28.392 66.4123 28.24 67.0043 28.24C67.2123 28.24 67.4523 28.264 67.7243 28.312C68.0123 28.344 68.2283 28.368 68.3723 28.384C68.3563 27.968 68.2603 27.576 68.0843 27.208C67.9243 26.84 67.7163 26.488 67.4603 26.152C67.2043 25.8 66.9643 25.496 66.7403 25.24C66.2443 26.184 65.7483 26.968 65.2523 27.592C64.7723 28.216 64.2443 28.808 63.6683 29.368C63.3803 29.656 63.0763 29.8 62.7563 29.8C62.5003 29.8 62.2923 29.712 62.1322 29.536C61.9722 29.344 61.8922 29.112 61.8922 28.84C61.8922 28.52 62.0042 28.224 62.2283 27.952L62.5403 27.568C63.4203 26.48 64.0843 25.584 64.5323 24.88C64.8043 24.416 65.1243 23.8 65.4923 23.032C65.8603 22.248 66.2203 21.44 66.5723 20.608C66.8763 19.904 67.5083 19.552 68.4683 19.552C68.9163 19.552 69.2283 19.592 69.4043 19.672C69.5803 19.752 69.6683 19.88 69.6683 20.056C69.6683 20.152 69.6363 20.304 69.5723 20.512C69.5083 20.72 69.4203 20.928 69.3083 21.136C69.0203 21.712 68.8763 22.2 68.8763 22.6C68.8763 22.84 68.9563 23.104 69.1163 23.392C69.2923 23.68 69.5563 24.04 69.9083 24.472C70.4203 25.144 70.8043 25.72 71.0603 26.2C71.3323 26.664 71.4683 27.176 71.4683 27.736C71.4683 27.896 71.4523 28.12 71.4203 28.408C72.2043 28.104 73.1243 27.296 74.1803 25.984C74.3723 25.76 74.5883 25.648 74.8282 25.648C75.0363 25.648 75.1963 25.744 75.3083 25.936C75.4363 26.128 75.5003 26.392 75.5003 26.728C75.5003 27.336 75.3483 27.832 75.0443 28.216C74.2443 29.208 73.4763 29.888 72.7403 30.256C72.0203 30.608 71.1243 30.8 70.0523 30.832C69.4123 31.376 68.6523 31.648 67.7723 31.648ZM85.7904 23.632C85.9984 23.632 86.1584 23.736 86.2704 23.944C86.3824 24.152 86.4384 24.416 86.4384 24.736C86.4384 25.504 86.2064 25.96 85.7424 26.104C84.7824 26.44 83.7264 26.632 82.5744 26.68C82.2704 28.024 81.6704 29.104 80.7744 29.92C79.8784 30.72 78.8624 31.12 77.7264 31.12C76.7664 31.12 75.9424 30.888 75.2544 30.424C74.5824 29.96 74.0704 29.344 73.7184 28.576C73.3664 27.808 73.1904 26.976 73.1904 26.08C73.1904 24.864 73.4224 23.784 73.8864 22.84C74.3504 21.88 74.9904 21.136 75.8064 20.608C76.6224 20.064 77.5264 19.792 78.5184 19.792C79.7344 19.792 80.7104 20.216 81.4464 21.064C82.1984 21.896 82.6384 22.928 82.7664 24.16C83.5184 24.112 84.4144 23.952 85.4544 23.68C85.5824 23.648 85.6944 23.632 85.7904 23.632ZM77.9184 28.576C78.4304 28.576 78.8704 28.368 79.2384 27.952C79.6224 27.536 79.8784 26.936 80.0064 26.152C79.5104 25.816 79.1264 25.376 78.8544 24.832C78.5984 24.288 78.4704 23.712 78.4704 23.104C78.4704 22.848 78.4944 22.592 78.5424 22.336H78.4224C77.7824 22.336 77.2464 22.648 76.8144 23.272C76.3984 23.88 76.1904 24.744 76.1904 25.864C76.1904 26.744 76.3584 27.416 76.6944 27.88C77.0464 28.344 77.4544 28.576 77.9184 28.576ZM86.0826 31.12C85.4746 31.12 85.0426 30.8 84.7866 30.16C84.5466 29.52 84.4266 28.496 84.4266 27.088C84.4266 25.008 84.7226 23.032 85.3146 21.16C85.4586 20.696 85.6906 20.36 86.0106 20.152C86.3466 19.928 86.8106 19.816 87.4026 19.816C87.7226 19.816 87.9466 19.856 88.0746 19.936C88.2026 20.016 88.2666 20.168 88.2666 20.392C88.2666 20.648 88.1466 21.224 87.9066 22.12C87.7466 22.76 87.6186 23.32 87.5226 23.8C87.4266 24.28 87.3466 24.872 87.2826 25.576C87.8106 24.2 88.4026 23.08 89.0586 22.216C89.7146 21.352 90.3546 20.736 90.9786 20.368C91.6186 20 92.2026 19.816 92.7306 19.816C93.2426 19.816 93.6266 19.952 93.8826 20.224C94.1546 20.48 94.2906 20.864 94.2906 21.376C94.2906 21.792 94.2026 22.576 94.0266 23.728C93.8666 24.704 93.7386 25.632 93.6426 26.512C93.5466 27.376 93.4986 28.344 93.4986 29.416C93.4986 30.024 93.3706 30.464 93.1146 30.736C92.8746 30.992 92.4746 31.12 91.9146 31.12C91.3866 31.12 91.0026 30.984 90.7626 30.712C90.5226 30.44 90.4026 30.032 90.4026 29.488C90.4026 28.848 90.5146 27.792 90.7386 26.32C90.9306 25.04 91.0266 24.224 91.0266 23.872C91.0266 23.616 90.9386 23.488 90.7626 23.488C90.5546 23.488 90.2586 23.76 89.8746 24.304C89.5066 24.832 89.1226 25.536 88.7226 26.416C88.3386 27.296 88.0266 28.224 87.7866 29.2C87.6106 29.952 87.4026 30.464 87.1626 30.736C86.9386 30.992 86.5786 31.12 86.0826 31.12Z" fill="white"/>
<path d="M36 42.1772C58 36 90.5 34 74.5 42.1772" stroke="white" stroke-width="2.5" stroke-linecap="round" stroke-linejoin="round"/>
</svg>
